STARTFONT 2.1
FONT -FontForge-Everson Mono-Bold-R-Normal--40-380-75-75-P-348-ISO10646-1
SIZE 38 75 75
FONTBOUNDINGBOX 92 57 -25 -16
COMMENT "Generated by fontforge, http://fontforge.sourceforge.net"
COMMENT "Copyright (c) 2015 by Michael Everson. All rights reserved."
STARTPROPERTIES 40
FOUNDRY "FontForge"
FAMILY_NAME "Everson Mono"
WEIGHT_NAME "Bold"
SLANT "R"
SETWIDTH_NAME "Normal"
ADD_STYLE_NAME ""
PIXEL_SIZE 40
POINT_SIZE 380
RESOLUTION_X 75
RESOLUTION_Y 75
SPACING "P"
AVERAGE_WIDTH 348
CHARSET_REGISTRY "ISO10646"
CHARSET_ENCODING "1"
FONTNAME_REGISTRY ""
CHARSET_COLLECTIONS "ASCII ISOLatin1Encoding ISO8859-2 ISO8859-5 ISO8859-7 ISO8859-9 ISO8859-8 ISO8859-4 ISO8859-11 ISO10646-1"
FONT_NAME "EversonMono-Bold"
FACE_NAME "EversonMono-Bold"
COPYRIGHT "Copyright (c) 2015 by Michael Everson. All rights reserved."
FONT_VERSION "7.001b"
FONT_ASCENT 32
FONT_DESCENT 8
UNDERLINE_POSITION -6
UNDERLINE_THICKNESS 1
X_HEIGHT 17
CAP_HEIGHT 23
DEFAULT_CHAR 1
RAW_ASCENT 800
RAW_DESCENT 200
NORM_SPACE 35
RELATIVE_WEIGHT 70
RELATIVE_SETWIDTH 50
SUPERSCRIPT_X 0
SUPERSCRIPT_Y 18
SUPERSCRIPT_SIZE 26
SUBSCRIPT_X 0
SUBSCRIPT_Y 5
SUBSCRIPT_SIZE 26
AVG_LOWERCASE_WIDTH 347
AVG_UPPERCASE_WIDTH 347
ENDPROPERTIES
CHARS 9756
STARTCHAR NULL
ENCODING 0
SWIDTH 870 0
DWIDTH 35 0
BBX 1 1 0 0
BITMAP
00
ENDCHAR
STARTCHAR uni0002
ENCODING 2
SWIDTH 870 0
DWIDTH 35 0
BBX 1 1 0 0
BITMAP
00
ENDCHAR
STARTCHAR uni0009
ENCODING 9
SWIDTH 870 0
DWIDTH 35 0
BBX 1 1 0 0
BITMAP
00
ENDCHAR
STARTCHAR uni000A
ENCODING 10
SWIDTH 870 0
DWIDTH 35 0
BBX 1 1 0 0
BITMAP
00
ENDCHAR
STARTCHAR nonmarkingreturn
ENCODING 13
SWIDTH 870 0
DWIDTH 35 0
BBX 1 1 0 0
BITMAP
00
ENDCHAR
STARTCHAR space
ENCODING 32
SWIDTH 870 0
DWIDTH 35 0
BBX 1 1 0 0
BITMAP
00
ENDCHAR
STARTCHAR exclam
ENCODING 33
SWIDTH 870 0
DWIDTH 35 0
BBX 5 26 9 0
BITMAP
70
F0
F0
F0
70
70
70
70
70
70
70
70
70
70
70
70
70
20
00
00
00
70
F8
F8
F8
70
ENDCHAR
STARTCHAR quotedbl
ENCODING 34
SWIDTH 870 0
DWIDTH 35 0
BBX 13 12 5 13
BITMAP
F8F8
F8F8
F0F8
F078
7070
7070
7070
7070
7070
7070
7070
6020
ENDCHAR
STARTCHAR numbersign
ENCODING 35
SWIDTH 870 0
DWIDTH 35 0
BBX 18 31 3 -3
BITMAP
020C00
070C00
070C00
070C00
070C00
070C00
060C00
060C00
060C00
060C00
060C00
7FFFC0
7FFFC0
061C00
061800
0E1800
0E1800
0E1800
FFFF80
FFFF80
0E1800
0E1800
0C1800
0C1800
0C1800
0C1800
0C1800
0C1800
0C3800
0C3800
0C1000
ENDCHAR
STARTCHAR dollar
ENCODING 36
SWIDTH 870 0
DWIDTH 35 0
BBX 15 32 4 -4
BITMAP
0180
0180
0180
0380
0FF0
1FF8
383C
700C
600C
6004
6000
7000
3800
1F00
07F0
0078
000C
0006
0006
C006
C006
E00E
783C
3FFC
1FF8
03E0
0180
0180
0180
0180
0180
0180
ENDCHAR
STARTCHAR percent
ENCODING 37
SWIDTH 870 0
DWIDTH 35 0
BBX 17 26 3 0
BITMAP
0F0000
1F8000
31C000
70E000
606000
606000
606000
60E000
31C000
1F8000
0F0380
001F80
00FC00
07E000
3F0000
F80000
C07800
01FE00
018600
030300
030300
030300
030300
018600
01FE00
007800
ENDCHAR
STARTCHAR ampersand
ENCODING 38
SWIDTH 870 0
DWIDTH 35 0
BBX 15 22 4 0
BITMAP
1F00
3FC0
31E0
6060
6000
6000
7000
3000
3800
1C04
3E0E
7F0E
771C
E39C
E1D8
C0F8
C0F0
C070
C078
61FC
7F9C
3E0C
ENDCHAR
STARTCHAR quotesingle
ENCODING 39
SWIDTH 870 0
DWIDTH 35 0
BBX 5 13 9 13
BITMAP
F8
F8
F8
70
70
70
70
70
70
70
70
70
20
ENDCHAR
STARTCHAR parenleft
ENCODING 40
SWIDTH 870 0
DWIDTH 35 0
BBX 10 30 6 -5
BITMAP
01C0
03C0
0F80
1E00
1C00
3800
3000
7000
6000
6000
E000
C000
C000
C000
C000
C000
C000
C000
C000
E000
6000
6000
7000
3000
3800
1C00
1E00
0F80
03C0
01C0
ENDCHAR
STARTCHAR parenright
ENCODING 41
SWIDTH 870 0
DWIDTH 35 0
BBX 10 30 7 -5
BITMAP
E000
F000
7C00
1E00
0E00
0700
0300
0380
0180
0180
01C0
00C0
00C0
00C0
00C0
00C0
00C0
00C0
00C0
01C0
0180
0180
0380
0380
0700
0E00
1E00
7C00
F000
E000
ENDCHAR
STARTCHAR asterisk
ENCODING 42
SWIDTH 870 0
DWIDTH 35 0
BBX 18 18 3 9
BITMAP
00C000
00C000
00C000
38C300
3CC700
1ECE00
0FFC00
07F800
FFFFC0
FFFFC0
FFFFC0
07F800
0FFC00
1ECE00
3CC700
38C300
00C000
00C000
ENDCHAR
STARTCHAR plus
ENCODING 43
SWIDTH 870 0
DWIDTH 35 0
BBX 18 22 3 1
BITMAP
00C000
00C000
00C000
00C000
00C000
00C000
00C000
00C000
00C000
00C000
FFFFC0
FFFFC0
00C000
00C000
00C000
00C000
00C000
00C000
00C000
00C000
00C000
00C000
ENDCHAR
STARTCHAR comma
ENCODING 44
SWIDTH 870 0
DWIDTH 35 0
BBX 7 11 8 -6
BITMAP
78
FC
FE
FE
7E
06
06
0C
1C
38
20
ENDCHAR
STARTCHAR hyphen
ENCODING 45
SWIDTH 870 0
DWIDTH 35 0
BBX 13 2 5 11
BITMAP
FFF8
FFF8
ENDCHAR
STARTCHAR period
ENCODING 46
SWIDTH 870 0
DWIDTH 35 0
BBX 5 5 9 0
BITMAP
70
F8
F8
F8
70
ENDCHAR
STARTCHAR slash
ENCODING 47
SWIDTH 870 0
DWIDTH 35 0
BBX 15 32 4 -4
BITMAP
0006
0006
000E
000C
001C
0018
0038
0038
0070
0070
0060
00E0
00C0
01C0
0180
0380
0380
0300
0700
0600
0E00
0C00
1C00
1800
3800
3800
3000
7000
6000
E000
C000
C000
ENDCHAR
STARTCHAR zero
ENCODING 48
SWIDTH 870 0
DWIDTH 35 0
BBX 15 26 4 0
BITMAP
07C0
1FE0
3870
3018
701C
600C
600C
C006
C006
C006
C006
C006
C006
C006
C006
C006
C006
C006
E006
E00C
600C
601C
3018
3878
1FF0
07C0
ENDCHAR
STARTCHAR one
ENCODING 49
SWIDTH 870 0
DWIDTH 35 0
BBX 16 27 4 0
BITMAP
0080
0180
0380
0780
0F80
1F80
3D80
7980
F180
E180
4180
0180
0180
0180
0180
0180
0180
0180
0180
0180
0180
0180
0180
0180
0180
FFFF
FFFF
ENDCHAR
STARTCHAR two
ENCODING 50
SWIDTH 870 0
DWIDTH 34 0
BBX 16 26 3 0
BITMAP
03E0
0FF8
1C1C
380E
7006
7003
6003
0003
0003
0007
0006
000E
001C
003C
0078
00F0
01E0
03C0
0780
0F00
1E00
3C00
7803
F003
FFFF
FFFF
ENDCHAR
STARTCHAR three
ENCODING 51
SWIDTH 870 0
DWIDTH 35 0
BBX 16 26 3 0
BITMAP
03F0
1FFC
3C1E
3806
3007
0003
0003
0003
0007
0006
001E
03FC
03F8
003C
000E
0006
0007
0003
0003
0003
0003
8006
E00E
F83C
3FF8
0FE0
ENDCHAR
STARTCHAR four
ENCODING 52
SWIDTH 870 0
DWIDTH 35 0
BBX 16 26 4 0
BITMAP
0078
0078
00F8
00D8
0198
0398
0318
0718
0618
0C18
0C18
1818
1818
3018
7018
6018
E018
FFFF
FFFF
0018
0018
0018
0018
0018
03FF
03FF
ENDCHAR
STARTCHAR five
ENCODING 53
SWIDTH 870 0
DWIDTH 34 0
BBX 16 25 3 0
BITMAP
3FFC
3FFE
3000
3000
3000
3000
3000
3000
37E0
3FF8
3E1C
200E
0006
0003
0003
0003
0003
0003
0003
0006
C006
E00E
781C
3FF8
0FE0
ENDCHAR
STARTCHAR six
ENCODING 54
SWIDTH 870 0
DWIDTH 34 0
BBX 15 26 4 0
BITMAP
00FC
03FE
0784
0E00
1C00
3800
7000
7000
6000
E000
C000
C3E0
CFF0
DC38
F80C
F00C
F006
E006
6006
6006
6006
300C
380C
1C38
0FF0
03E0
ENDCHAR
STARTCHAR seven
ENCODING 55
SWIDTH 870 0
DWIDTH 35 0
BBX 15 25 4 0
BITMAP
FFFE
FFFE
C006
C00E
C00E
000E
001C
001C
001C
0038
0038
0038
0030
0070
0070
0060
00E0
00E0
00E0
01C0
01C0
01C0
0180
0380
0580
ENDCHAR
STARTCHAR eight
ENCODING 56
SWIDTH 870 0
DWIDTH 35 0
BBX 15 26 4 0
BITMAP
07C0
1FF0
3C78
7018
600C
E00C
E00E
E00E
E00C
E00C
701C
3838
1FF0
3FF0
7838
F01C
E00E
C006
C006
C006
C006
E00E
701C
7838
1FF0
07C0
ENDCHAR
STARTCHAR nine
ENCODING 57
SWIDTH 870 0
DWIDTH 35 0
BBX 15 26 4 0
BITMAP
0F80
1FE0
3870
7038
6018
E01C
C00C
C00C
C00E
C00E
C00E
E01E
603E
703E
38F6
1FE6
0786
0004
000C
000C
0018
0038
0070
C1C0
FF80
7C00
ENDCHAR
STARTCHAR colon
ENCODING 58
SWIDTH 870 0
DWIDTH 35 0
BBX 5 17 9 0
BITMAP
70
F8
F8
F8
70
00
00
00
00
00
00
00
70
F8
F8
F8
70
ENDCHAR
STARTCHAR semicolon
ENCODING 59
SWIDTH 870 0
DWIDTH 35 0
BBX 7 23 8 -6
BITMAP
38
7C
7C
7C
38
00
00
00
00
00
00
00
78
FC
FE
FE
7E
06
06
0C
1C
38
20
ENDCHAR
STARTCHAR less
ENCODING 60
SWIDTH 870 0
DWIDTH 35 0
BBX 20 22 1 1
BITMAP
000030
0000F0
0001E0
0007C0
001F00
003C00
00F800
03E000
078000
1F0000
7C0000
FC0000
1F0000
0F8000
03E000
00F800
007C00
001F00
0007C0
0003E0
0000F0
000030
ENDCHAR
STARTCHAR equal
ENCODING 61
SWIDTH 870 0
DWIDTH 35 0
BBX 21 8 1 8
BITMAP
FFFFF8
FFFFF8
000000
000000
000000
000000
FFFFF8
FFFFF8
ENDCHAR
STARTCHAR greater
ENCODING 62
SWIDTH 870 0
DWIDTH 35 0
BBX 20 22 2 1
BITMAP
800000
C00000
700000
3C0000
0F0000
03C000
01F000
007800
001E00
000F80
0003E0
0003F0
000F80
001F00
007C00
01F000
03E000
0F8000
3E0000
7C0000
F00000
C00000
ENDCHAR
STARTCHAR question
ENCODING 63
SWIDTH 870 0
DWIDTH 35 0
BBX 14 24 5 0
BITMAP
0FC0
3FF0
7078
E038
C01C
C00C
000C
000C
000C
0018
0078
01F0
07C0
0700
0600
0600
0600
0000
0000
0E00
1F00
1F00
1F00
0E00
ENDCHAR
STARTCHAR at
ENCODING 64
SWIDTH 870 0
DWIDTH 34 0
BBX 21 24 1 0
BITMAP
01F800
07FF00
0F0780
1C01C0
3800E0
300060
607270
61FE30
E18E30
C30618
C30618
C30618
C30618
C30E18
C18E18
C1FE18
60F618
600730
3003F0
3801E0
1C0000
0F0E00
07FE00
01F800
ENDCHAR
STARTCHAR A
ENCODING 65
SWIDTH 870 0
DWIDTH 35 0
BBX 21 24 1 0
BITMAP
007000
007000
00F800
00D800
01DC00
019C00
038C00
038E00
030600
070700
070700
0E0300
0E0380
0C0180
1FFFC0
1FFFC0
3800C0
3800E0
300060
700070
600070
E00030
E00038
C00018
ENDCHAR
STARTCHAR B
ENCODING 66
SWIDTH 870 0
DWIDTH 33 0
BBX 16 24 3 0
BITMAP
FFE0
FFF0
C038
C00C
C006
C006
C006
C006
C006
C00C
C038
DFF0
FFF8
C01C
C006
C003
C003
C003
C003
C003
C006
C00E
FFFC
FFF0
ENDCHAR
STARTCHAR C
ENCODING 67
SWIDTH 870 0
DWIDTH 34 0
BBX 19 24 2 0
BITMAP
01F8C0
07FEC0
0E0FC0
1803C0
3001C0
3000C0
6000C0
6000C0
C00000
C00000
C00000
C00000
C00000
C00000
C00000
E00000
600000
600000
3000E0
3800E0
1C03C0
0F0780
07FF00
01FC00
ENDCHAR
STARTCHAR D
ENCODING 68
SWIDTH 870 0
DWIDTH 34 0
BBX 18 24 2 0
BITMAP
FFE000
FFF800
C01C00
C00E00
C00700
C00380
C00180
C00180
C000C0
C000C0
C000C0
C000C0
C000C0
C000C0
C000C0
C000C0
C001C0
C00180
C00380
C00700
C00E00
C01C00
FFF800
FFE000
ENDCHAR
STARTCHAR E
ENCODING 69
SWIDTH 870 0
DWIDTH 35 0
BBX 16 24 3 0
BITMAP
FFFF
FFFF
C000
C000
C000
C000
C000
C000
C000
C000
C000
FFC0
FFC0
C000
C000
C000
C000
C000
C000
C000
C000
C000
FFFF
FFFF
ENDCHAR
STARTCHAR F
ENCODING 70
SWIDTH 870 0
DWIDTH 35 0
BBX 16 24 4 0
BITMAP
FFFE
FFFF
C000
C000
C000
C000
C000
C000
C000
C000
C000
FFC0
FFC0
C000
C000
C000
C000
C000
C000
C000
C000
C000
C000
C000
ENDCHAR
STARTCHAR G
ENCODING 71
SWIDTH 870 0
DWIDTH 35 0
BBX 21 24 1 0
BITMAP
01FC60
07FF60
0E07E0
1C01E0
3800E0
300060
600060
600060
E00000
C00000
C00000
C00000
C00000
C00FF8
C00FF8
E00038
600038
700030
300070
3800E0
1C01C0
0F07C0
03FF00
00FC00
ENDCHAR
STARTCHAR H
ENCODING 72
SWIDTH 870 0
DWIDTH 35 0
BBX 15 24 4 0
BITMAP
C006
C006
C006
C006
C006
C006
C006
C006
C006
C006
C006
FFFE
FFFE
C006
C006
C006
C006
C006
C006
C006
C006
C006
C006
C006
ENDCHAR
STARTCHAR I
ENCODING 73
SWIDTH 870 0
DWIDTH 35 0
BBX 16 24 4 0
BITMAP
FFFF
FFFF
0180
0180
0180
0180
0180
0180
0180
0180
0180
0180
0180
0180
0180
0180
0180
0180
0180
0180
0180
0180
FFFF
FFFF
ENDCHAR
STARTCHAR J
ENCODING 74
SWIDTH 870 0
DWIDTH 35 0
BBX 17 24 3 0
BITMAP
01FF80
01FF80
000180
000180
000180
000180
000180
000180
000180
000180
000180
000180
000180
C00180
C00180
C00180
C00180
C00180
C00180
C00300
600700
781E00
3FFC00
07F000
ENDCHAR
STARTCHAR K
ENCODING 75
SWIDTH 870 0
DWIDTH 35 0
BBX 18 24 2 0
BITMAP
C00380
C00780
C00E00
C01C00
C03800
C0F000
C1E000
C3C000
C78000
CF0000
DF0000
FF8000
F1C000
E0E000
C07000
C03000
C03800
C01800
C01C00
C00C00
C00C00
C00E00
C007C0
C007C0
ENDCHAR
STARTCHAR L
ENCODING 76
SWIDTH 870 0
DWIDTH 35 0
BBX 15 24 4 0
BITMAP
C000
C000
C000
C000
C000
C000
C000
C000
C000
C000
C000
C000
C000
C000
C000
C000
C000
C000
C000
C000
C000
C000
FFFE
FFFE
ENDCHAR
STARTCHAR M
ENCODING 77
SWIDTH 870 0
DWIDTH 34 0
BBX 19 24 2 0
BITMAP
E000E0
F001E0
F001E0
F803E0
F803E0
DC0760
DC0760
CE0E60
CE0E60
CE1E60
C71C60
C71C60
C3B860
C3B860
C1F060
C1F060
C0E060
C0E060
C00060
C00060
C00060
C00060
C00060
C00060
ENDCHAR
STARTCHAR N
ENCODING 78
SWIDTH 870 0
DWIDTH 35 0
BBX 17 24 3 0
BITMAP
E00180
F00180
F00180
F80180
FC0180
DC0180
DE0180
CE0180
C70180
C78180
C38180
C3C180
C1E180
C0E180
C0F180
C07980
C03980
C03D80
C01F80
C00F80
C00F80
C00780
C00380
C00380
ENDCHAR
STARTCHAR O
ENCODING 79
SWIDTH 870 0
DWIDTH 34 0
BBX 20 24 1 0
BITMAP
01F800
07FE00
0E0700
1C0380
3801C0
7000C0
600060
600060
E00030
C00030
C00030
C00030
C00030
C00030
C00030
C00070
600060
600060
3000E0
3801C0
1C03C0
0F0780
07FF00
01F800
ENDCHAR
STARTCHAR P
ENCODING 80
SWIDTH 870 0
DWIDTH 34 0
BBX 16 24 3 0
BITMAP
FFE0
FFF8
C03C
C00E
C006
C003
C003
C003
C003
C007
C006
C00E
C03C
FFF8
FFC0
C000
C000
C000
C000
C000
C000
C000
C000
C000
ENDCHAR
STARTCHAR Q
ENCODING 81
SWIDTH 870 0
DWIDTH 35 0
BBX 23 28 0 -4
BITMAP
01F800
07FE00
0F0780
1C01C0
3800E0
300060
600070
600030
C00030
C00018
C00018
C00018
C00018
C00018
C00018
E00018
600030
700030
38FC60
3FFE60
1F87C0
0F0780
07FF00
01FF06
000306
00038E
0001FC
0000F8
ENDCHAR
STARTCHAR R
ENCODING 82
SWIDTH 870 0
DWIDTH 34 0
BBX 20 24 1 0
BITMAP
FFE000
FFF800
C01C00
C00E00
C00600
C00300
C00300
C00300
C00300
C00600
C00E00
C03C00
DFF000
DFE000
C0F000
C03800
C01C00
C00E00
C00600
C00700
C00300
C00180
C001F0
C000F0
ENDCHAR
STARTCHAR S
ENCODING 83
SWIDTH 870 0
DWIDTH 34 0
BBX 17 25 3 0
BITMAP
07E000
1FF800
3C1E00
300E00
700700
600300
600300
600300
700000
380000
3F0000
1FF000
07FC00
007E00
000F00
000380
000180
C00180
C00180
C00180
E00380
700700
7C1E00
1FFC00
07F000
ENDCHAR
STARTCHAR T
ENCODING 84
SWIDTH 870 0
DWIDTH 35 0
BBX 20 24 2 0
BITMAP
FFFFF0
FFFFF0
006000
006000
006000
006000
006000
006000
006000
006000
006000
006000
006000
006000
006000
006000
006000
006000
006000
006000
006000
006000
006000
006000
ENDCHAR
STARTCHAR U
ENCODING 85
SWIDTH 870 0
DWIDTH 35 0
BBX 17 24 3 0
BITMAP
C00180
C00180
C00180
C00180
C00180
C00180
C00180
C00180
C00180
C00180
C00180
C00180
C00180
C00180
C00180
C00180
C00180
C00180
E00380
600300
300700
3C1E00
0FFC00
03F000
ENDCHAR
STARTCHAR V
ENCODING 86
SWIDTH 870 0
DWIDTH 35 0
BBX 21 24 1 0
BITMAP
600038
E00030
600070
700070
300060
3800E0
3800E0
1801C0
1C01C0
0C0180
0E0380
0E0380
060300
070700
030600
038E00
038E00
018C00
01DC00
00D800
00F800
00F800
007000
007000
ENDCHAR
STARTCHAR W
ENCODING 87
SWIDTH 870 0
DWIDTH 35 0
BBX 23 24 0 0
BITMAP
C00006
E0380E
E03C0E
E03C0E
607C0C
607C0C
606E0C
60EE0C
70E60C
70C71C
70C71C
31C71C
31C31C
318398
338398
3B8198
3B0198
3B01F8
1F00F8
1F00F8
1E00F8
1E0070
1E0070
1C0070
ENDCHAR
STARTCHAR X
ENCODING 88
SWIDTH 870 0
DWIDTH 35 0
BBX 23 25 0 -1
BITMAP
700038
F80038
1C0070
0C00E0
0E01E0
0701C0
038380
018700
01CF00
00EE00
007C00
003800
007800
007C00
00EE00
01C600
01C700
038380
0701C0
0E00C0
0E00E0
1C0070
38003E
70001E
700000
ENDCHAR
STARTCHAR Y
ENCODING 89
SWIDTH 870 0
DWIDTH 35 0
BBX 18 24 3 0
BITMAP
C00180
E001C0
700380
700700
380700
1C0E00
1C0C00
0E1C00
073800
073000
03F000
01E000
01C000
00C000
00C000
00C000
00C000
00C000
00C000
00C000
00C000
00C000
00C000
00C000
ENDCHAR
STARTCHAR Z
ENCODING 90
SWIDTH 870 0
DWIDTH 35 0
BBX 19 24 2 0
BITMAP
7FFF80
7FFF80
000780
000700
000E00
001E00
001C00
003800
007800
007000
00E000
01E000
01C000
038000
078000
070000
0E0000
1E0000
1C0000
380000
780000
700000
FFFFC0
7FFFE0
ENDCHAR
STARTCHAR bracketleft
ENCODING 91
SWIDTH 870 0
DWIDTH 35 0
BBX 9 30 7 -5
BITMAP
FF80
FF80
C000
C000
C000
C000
C000
C000
C000
C000
C000
C000
C000
C000
C000
C000
C000
C000
C000
C000
C000
C000
C000
C000
C000
C000
C000
C000
FF80
FF80
ENDCHAR
STARTCHAR backslash
ENCODING 92
SWIDTH 870 0
DWIDTH 35 0
BBX 15 32 4 -4
BITMAP
C000
E000
E000
6000
7000
3000
3800
1800
1C00
1C00
0E00
0E00
0600
0700
0300
0380
0380
01C0
01C0
00E0
00E0
0060
0070
0030
0038
0038
001C
001C
000E
000E
0006
0004
ENDCHAR
STARTCHAR bracketright
ENCODING 93
SWIDTH 870 0
DWIDTH 35 0
BBX 9 30 7 -5
BITMAP
FF80
FF80
0180
0180
0180
0180
0180
0180
0180
0180
0180
0180
0180
0180
0180
0180
0180
0180
0180
0180
0180
0180
0180
0180
0180
0180
0180
0180
FF80
FF80
ENDCHAR
STARTCHAR asciicircum
ENCODING 94
SWIDTH 870 0
DWIDTH 35 0
BBX 15 12 4 14
BITMAP
0100
0380
0380
07C0
0EE0
1C70
1C70
3838
701C
E00E
E00E
C006
ENDCHAR
STARTCHAR underscore
ENCODING 95
SWIDTH 870 0
DWIDTH 35 0
BBX 23 2 0 -7
BITMAP
FFFFFE
FFFFFE
ENDCHAR
STARTCHAR grave
ENCODING 96
SWIDTH 870 0
DWIDTH 35 0
BBX 7 7 8 21
BITMAP
C0
E0
F0
78
3E
0E
06
ENDCHAR
STARTCHAR a
ENCODING 97
SWIDTH 870 0
DWIDTH 34 0
BBX 16 18 3 0
BITMAP
07F0
3FFC
3E0E
0007
0003
0003
0003
07FF
1FFF
7C03
7003
C003
C003
C007
E00F
707F
3FFB
1FC3
ENDCHAR
STARTCHAR b
ENCODING 98
SWIDTH 870 0
DWIDTH 34 0
BBX 18 26 2 0
BITMAP
C00000
C00000
C00000
C00000
C00000
C00000
C00000
C00000
C3F000
CFFC00
FE0E00
F80700
F00380
E00180
E001C0
C000C0
C000C0
C000C0
C000C0
C000C0
E00180
F00380
F80780
DC0F00
CFFC00
C3F000
ENDCHAR
STARTCHAR c
ENCODING 99
SWIDTH 870 0
DWIDTH 35 0
BBX 18 19 2 0
BITMAP
03F000
0FFE00
1C0F00
380780
700380
600180
E00180
C00180
C00000
C00000
C00000
C00000
C00000
600000
7000C0
3003C0
3C0F80
0FFF00
03F800
ENDCHAR
STARTCHAR d
ENCODING 100
SWIDTH 870 0
DWIDTH 34 0
BBX 18 26 2 0
BITMAP
0000C0
0000C0
0000C0
0000C0
0000C0
0000C0
0000C0
03F0C0
0FFCC0
1E0EC0
3807C0
7003C0
6001C0
E001C0
C000C0
C000C0
C000C0
C000C0
C000C0
E001C0
6001C0
7003C0
3807C0
1C0EC0
0FFCC0
03F0C0
ENDCHAR
STARTCHAR e
ENCODING 101
SWIDTH 870 0
DWIDTH 35 0
BBX 19 19 2 0
BITMAP
03F000
0FFC00
1E0F00
380700
700380
E00180
E00180
E001C0
C001C0
FFFFC0
FFFFC0
C00000
E00000
600000
700060
3800E0
1E03C0
0FFF80
01FC00
ENDCHAR
STARTCHAR f
ENCODING 102
SWIDTH 870 0
DWIDTH 35 0
BBX 15 25 4 0
BITMAP
00FE
01FE
0380
0700
0600
0600
0600
FFFE
FFFE
0600
0600
0600
0600
0600
0600
0600
0600
0600
0600
0600
0600
0600
0600
0600
0600
ENDCHAR
STARTCHAR g
ENCODING 103
SWIDTH 870 0
DWIDTH 34 0
BBX 19 25 2 -6
BITMAP
000200
01F700
03FE00
071C00
0E0E00
0C0600
0C0600
0C0600
0E0E00
071C00
07FC00
03F800
01F000
03C000
0FF800
3FFF00
7C0780
F000C0
C00060
C00060
C00060
6001C0
3C07C0
1FFF00
03FC00
ENDCHAR
STARTCHAR h
ENCODING 104
SWIDTH 870 0
DWIDTH 35 0
BBX 15 26 4 0
BITMAP
C000
C000
C000
C000
C000
C000
C000
C7E0
DFF8
F81C
F00C
E006
C006
C006
C006
C006
C006
C006
C006
C006
C006
C006
C006
C006
C006
C006
ENDCHAR
STARTCHAR i
ENCODING 105
SWIDTH 870 0
DWIDTH 35 0
BBX 18 25 3 0
BITMAP
00C000
01E000
01E000
01C000
000000
000000
000000
7FC000
7FC000
00C000
00C000
00C000
00C000
00C000
00C000
00C000
00C000
00C000
00C000
00C000
00C000
00C000
00C000
FFFFC0
FFFFC0
ENDCHAR
STARTCHAR j
ENCODING 106
SWIDTH 870 0
DWIDTH 35 0
BBX 10 33 6 -8
BITMAP
0180
03C0
03C0
0380
0000
0000
0000
1FC0
1FC0
00C0
00C0
00C0
00C0
00C0
00C0
00C0
00C0
00C0
00C0
00C0
00C0
00C0
00C0
00C0
00C0
00C0
00C0
00C0
0180
0180
0700
FE00
FC00
ENDCHAR
STARTCHAR k
ENCODING 107
SWIDTH 870 0
DWIDTH 35 0
BBX 16 26 4 0
BITMAP
C000
C000
C000
C000
C000
C000
C000
C020
C078
C0F8
C1E0
C3C0
C780
CF00
FC00
F800
FC00
EE00
C700
C380
C1C0
C0E0
C070
C03C
C01F
C00F
ENDCHAR
STARTCHAR l
ENCODING 108
SWIDTH 870 0
DWIDTH 35 0
BBX 17 25 4 0
BITMAP
FF8000
FF8000
018000
018000
018000
018000
018000
018000
018000
018000
018000
018000
018000
018000
018000
018000
018000
018000
018000
018000
018000
018000
018000
FFFF80
FFFF80
ENDCHAR
STARTCHAR m
ENCODING 109
SWIDTH 870 0
DWIDTH 35 0
BBX 21 18 1 0
BITMAP
CFC3C0
FFEFF0
F87E30
F03818
C03018
C03018
C03018
C03018
C03018
C03018
C03018
C03018
C03018
C03018
C03018
C03018
C03018
C03018
ENDCHAR
STARTCHAR n
ENCODING 110
SWIDTH 870 0
DWIDTH 35 0
BBX 15 18 4 0
BITMAP
C7E0
CFF8
FC1C
F00C
E006
C006
C006
C006
C006
C006
C006
C006
C006
C006
C006
C006
C006
C006
ENDCHAR
STARTCHAR o
ENCODING 111
SWIDTH 870 0
DWIDTH 34 0
BBX 19 18 2 0
BITMAP
03F800
0FFE00
1E0F00
380380
7001C0
6000C0
E000E0
C00060
C00060
C00060
C00060
E000E0
6000C0
7001C0
380380
1E0F00
0FFE00
03F800
ENDCHAR
STARTCHAR p
ENCODING 112
SWIDTH 870 0
DWIDTH 34 0
BBX 18 27 2 -9
BITMAP
C3F000
CFFC00
FE0E00
F80700
F00380
E00180
C000C0
C000C0
C000C0
C000C0
C000C0
C001C0
E00180
F00380
F80780
DC1F00
CFFE00
C3F000
C00000
C00000
C00000
C00000
C00000
C00000
C00000
C00000
C00000
ENDCHAR
STARTCHAR q
ENCODING 113
SWIDTH 870 0
DWIDTH 34 0
BBX 18 27 2 -9
BITMAP
03F8C0
0FFEC0
1C0FC0
3807C0
7003C0
6001C0
C000C0
C000C0
C000C0
C000C0
C000C0
C001C0
6001C0
7003C0
3807C0
1C0FC0
0FFCC0
03F0C0
0000C0
0000C0
0000C0
0000C0
0000C0
0000C0
0000C0
0000C0
0000C0
ENDCHAR
STARTCHAR r
ENCODING 114
SWIDTH 870 0
DWIDTH 35 0
BBX 14 18 4 0
BITMAP
C1F0
C7FC
CF1C
DC0C
F800
F000
E000
C000
C000
C000
C000
C000
C000
C000
C000
C000
C000
C000
ENDCHAR
STARTCHAR s
ENCODING 115
SWIDTH 870 0
DWIDTH 34 0
BBX 16 19 3 0
BITMAP
0FE0
1FF8
381C
700E
6006
6006
7806
3F00
1FF8
07FC
003E
0007
C003
C003
E003
E007
780E
3FFC
0FF0
ENDCHAR
STARTCHAR t
ENCODING 116
SWIDTH 870 0
DWIDTH 35 0
BBX 14 25 5 0
BITMAP
0600
0600
0600
0600
0600
0600
0600
FFFC
FFFC
0600
0600
0600
0600
0600
0600
0600
0600
0600
0600
0600
0600
0600
0380
01FC
00FC
ENDCHAR
STARTCHAR u
ENCODING 117
SWIDTH 870 0
DWIDTH 35 0
BBX 15 18 4 0
BITMAP
C006
C006
C006
C006
C006
C006
C006
C006
C006
C006
C006
C006
C006
C00E
C01E
60FE
3FE6
1F86
ENDCHAR
STARTCHAR v
ENCODING 118
SWIDTH 870 0
DWIDTH 35 0
BBX 17 20 3 -1
BITMAP
C00180
E00380
E00380
700700
700700
300600
380E00
380E00
1C1C00
1C1C00
0E1800
0E3800
063000
077000
077000
03E000
03E000
01C000
01C000
008000
ENDCHAR
STARTCHAR w
ENCODING 119
SWIDTH 870 0
DWIDTH 35 0
BBX 19 19 2 0
BITMAP
C00000
C00060
E00060
E0E060
60F0E0
61F0C0
61F0C0
71B0C0
71B9C0
33B9C0
339980
3B1980
3B1F80
3F1F80
1E0F00
1E0F00
1E0F00
1E0700
0C0600
ENDCHAR
STARTCHAR x
ENCODING 120
SWIDTH 870 0
DWIDTH 35 0
BBX 21 18 1 0
BITMAP
F00060
F800E0
3C01C0
1E0380
0F0700
078E00
03DC00
01F800
007000
00F800
03FC00
079E00
0F0F00
1E0780
3C03C0
7801E0
F000F8
E00038
ENDCHAR
STARTCHAR y
ENCODING 121
SWIDTH 870 0
DWIDTH 35 0
BBX 19 26 2 -8
BITMAP
C00060
E000E0
6000C0
7001C0
3001C0
380380
180380
1C0700
0C0700
0E0600
060E00
070C00
031C00
039800
01B800
01F000
00F000
00E000
00E000
00C000
01C000
018000
038000
130000
1F0000
1E0000
ENDCHAR
STARTCHAR z
ENCODING 122
SWIDTH 870 0
DWIDTH 35 0
BBX 17 18 3 0
BITMAP
FFFF00
FFFF00
000E00
001C00
003C00
007800
00F000
00E000
01C000
038000
078000
0F0000
1E0000
3C0000
380000
700000
FFFF80
FFFF80
ENDCHAR
STARTCHAR braceleft
ENCODING 123
SWIDTH 870 0
DWIDTH 35 0
BBX 11 32 6 -6
BITMAP
01E0
03E0
07C0
0E00
0C00
0C00
0C00
0C00
0C00
0C00
0C00
0C00
0C00
0C00
3800
F800
F800
3800
0C00
0C00
0C00
0C00
0C00
0C00
0C00
0C00
0C00
0C00
0E00
07C0
03E0
01E0
ENDCHAR
STARTCHAR bar
ENCODING 124
SWIDTH 870 0
DWIDTH 35 0
BBX 2 32 10 -6
BITMAP
C0
C0
C0
C0
C0
C0
C0
C0
C0
C0
C0
C0
C0
C0
C0
C0
C0
C0
C0
C0
C0
C0
C0
C0
C0
C0
C0
C0
C0
C0
C0
C0
ENDCHAR
STARTCHAR braceright
ENCODING 125
SWIDTH 870 0
DWIDTH 35 0
BBX 10 32 6 -6
BITMAP
F000
F800
7C00
0E00
0600
0600
0600
0600
0600
0600
0600
0600
0600
0600
0700
03C0
03C0
0700
0600
0600
0600
0600
0600
0600
0600
0600
0600
0600
0E00
7C00
F800
F000
ENDCHAR
STARTCHAR asciitilde
ENCODING 126
SWIDTH 870 0
DWIDTH 35 0
BBX 17 6 3 8
BITMAP
0E0100
3F8180
738380
E1C700
C0FE00
007800
ENDCHAR
STARTCHAR nonbreakingspace
ENCODING 160
SWIDTH 870 0
DWIDTH 35 0
BBX 1 1 0 0
BITMAP
00
ENDCHAR
STARTCHAR exclamdown
ENCODING 161
SWIDTH 870 0
DWIDTH 35 0
BBX 5 26 9 -8
BITMAP
70
F8
F8
F8
70
00
00
00
20
70
70
70
70
70
70
70
70
70
70
70
70
70
70
F8
70
70
ENDCHAR
STARTCHAR cent
ENCODING 162
SWIDTH 870 0
DWIDTH 35 0
BBX 15 28 4 0
BITMAP
0180
0180
0180
0180
0180
0180
0380
0FE0
3FF8
381C
700E
E00E
C006
C000
C000
C000
C000
6000
7006
383E
1FFC
0FF0
0180
0180
0180
0180
0180
0180
ENDCHAR
STARTCHAR sterling
ENCODING 163
SWIDTH 870 0
DWIDTH 35 0
BBX 19 24 2 0
BITMAP
01F000
03FC00
071E00
0E0600
0C0400
0C0000
0C0000
0C0000
0E0000
060000
060000
FFF000
FFF000
030000
030000
030000
030000
030000
070060
060060
0E00E0
3C00E0
7FFFC0
7FFF80
ENDCHAR
STARTCHAR currency
ENCODING 164
SWIDTH 870 0
DWIDTH 34 0
BBX 15 17 4 4
BITMAP
C006
C006
67CE
7FFC
3C78
3018
701C
600C
600C
600C
600C
3018
3018
7C7C
7FFC
E7CE
C006
ENDCHAR
STARTCHAR yen
ENCODING 165
SWIDTH 870 0
DWIDTH 35 0
BBX 18 24 3 0
BITMAP
C000C0
E001C0
E00380
700380
380700
380E00
1C0E00
0C1C00
0E3C00
073800
3F7F00
3FFF00
01E000
00C000
00C000
3FFF00
3FFF00
00C000
00C000
00C000
00C000
00C000
00C000
00C000
ENDCHAR
STARTCHAR brokenbar
ENCODING 166
SWIDTH 870 0
DWIDTH 35 0
BBX 2 32 10 -6
BITMAP
C0
C0
C0
C0
C0
C0
C0
C0
C0
C0
C0
C0
C0
00
00
00
00
00
00
C0
C0
C0
C0
C0
C0
C0
C0
C0
C0
C0
C0
C0
ENDCHAR
STARTCHAR section
ENCODING 167
SWIDTH 870 0
DWIDTH 34 0
BBX 16 29 3 -3
BITMAP
07E0
1FF8
383C
700E
6006
6006
7006
3F80
3FF8
1FFC
3C3E
7007
6003
6003
6003
7006
381E
3FFC
1FF8
07FE
003E
0007
C003
E003
E003
E007
781E
3FFC
0FF0
ENDCHAR
STARTCHAR dieresis
ENCODING 168
SWIDTH 870 0
DWIDTH 35 0
BBX 13 4 5 21
BITMAP
E030
F078
F078
E070
ENDCHAR
STARTCHAR copyright
ENCODING 169
SWIDTH 870 0
DWIDTH 35 0
BBX 23 24 0 0
BITMAP
00FE00
03FF80
0F81E0
1E0070
180030
307F18
70FF1C
61C70C
E1830C
C30306
C30006
C30006
C30006
C30006
C38006
E1818E
61C70C
70FF1C
303C18
180038
1C00F0
0F83E0
03FF80
00FE00
ENDCHAR
STARTCHAR ordfeminine
ENCODING 170
SWIDTH 870 0
DWIDTH 35 0
BBX 13 16 5 11
BITMAP
0FC0
3FE0
7870
0030
0030
1FF0
7FF0
F030
E030
C030
C070
E1F0
7FF0
3F30
FFF8
FFF8
ENDCHAR
STARTCHAR guillemotleft
ENCODING 171
SWIDTH 870 0
DWIDTH 35 0
BBX 21 18 1 0
BITMAP
006030
00E070
01E0F0
03C1E0
0783C0
0F0780
1E0F00
3C1E00
783C00
F87C00
3C1E00
1E0F00
0F0780
0783C0
03C1E0
01E0F0
00E070
006038
ENDCHAR
STARTCHAR logicalnot
ENCODING 172
SWIDTH 870 0
DWIDTH 34 0
BBX 22 12 0 1
BITMAP
FFFFFC
7FFFFC
00000C
00000C
00000C
00000C
00000C
00000C
00000C
00000C
00000C
00000C
ENDCHAR
STARTCHAR uni00AD
ENCODING 173
SWIDTH 870 0
DWIDTH 35 0
BBX 13 2 5 11
BITMAP
FFF8
FFF8
ENDCHAR
STARTCHAR registered
ENCODING 174
SWIDTH 870 0
DWIDTH 35 0
BBX 23 24 0 0
BITMAP
00FE00
03FF80
0F81E0
1E0070
180030
300018
71FC1C
61FE0C
E1870C
C18306
C18306
C18706
C1FE06
C1FC06
C18E06
E1870E
61830C
7183DC
3181D8
180038
1C00F0
0F83E0
03FF80
00FE00
ENDCHAR
STARTCHAR macron
ENCODING 175
SWIDTH 870 0
DWIDTH 35 0
BBX 13 2 5 21
BITMAP
FFF8
FFF8
ENDCHAR
STARTCHAR degree
ENCODING 176
SWIDTH 870 0
DWIDTH 35 0
BBX 7 8 8 20
BITMAP
38
7C
CE
C6
C6
CE
7C
38
ENDCHAR
STARTCHAR plusminus
ENCODING 177
SWIDTH 870 0
DWIDTH 35 0
BBX 18 25 2 0
BITMAP
00C000
00C000
00C000
00C000
00C000
00C000
00C000
00C000
00C000
00C000
FFFFC0
FFFFC0
00C000
00C000
00C000
00C000
00C000
00C000
00C000
00C000
00C000
008000
000000
7FFFC0
7FFFC0
ENDCHAR
STARTCHAR twosuperior
ENCODING 178
SWIDTH 870 0
DWIDTH 35 0
BBX 9 15 7 15
BITMAP
3E00
7F00
E380
C180
8180
0180
0380
0700
0E00
1C00
3800
7000
E000
FF80
FF80
ENDCHAR
STARTCHAR threesuperior
ENCODING 179
SWIDTH 870 0
DWIDTH 35 0
BBX 9 15 7 15
BITMAP
3C00
FF00
E300
0180
0180
0300
1F00
1F00
0380
0180
0180
0180
C380
FF00
3E00
ENDCHAR
STARTCHAR acute
ENCODING 180
SWIDTH 870 0
DWIDTH 35 0
BBX 9 7 7 20
BITMAP
0300
0780
1E00
3C00
7800
E000
4000
ENDCHAR
STARTCHAR mu
ENCODING 181
SWIDTH 870 0
DWIDTH 35 0
BBX 15 27 4 -9
BITMAP
C006
C006
C006
C006
C006
C006
C006
C006
C006
C006
C006
C006
C006
C00E
C01E
E0FE
FFFE
DFC6
C000
C000
C000
C000
C000
C000
C000
C000
C000
ENDCHAR
STARTCHAR paragraph
ENCODING 182
SWIDTH 870 0
DWIDTH 34 0
BBX 15 24 4 0
BITMAP
07FE
1FFE
3866
7066
E066
C066
C066
C066
C066
E066
7066
3E66
1FFE
0FFE
0066
0066
0066
0066
0066
0066
0066
0066
0066
0066
ENDCHAR
STARTCHAR periodcentered
ENCODING 183
SWIDTH 870 0
DWIDTH 35 0
BBX 5 5 9 12
BITMAP
70
F8
F8
F8
70
ENDCHAR
STARTCHAR cedilla
ENCODING 184
SWIDTH 870 0
DWIDTH 35 0
BBX 7 8 8 -8
BITMAP
18
18
18
1C
1E
C6
FE
7C
ENDCHAR
STARTCHAR onesuperior
ENCODING 185
SWIDTH 870 0
DWIDTH 34 0
BBX 8 15 7 15
BITMAP
08
08
18
38
78
F8
D8
18
18
18
18
18
18
FF
FF
ENDCHAR
STARTCHAR ordmasculine
ENCODING 186
SWIDTH 870 0
DWIDTH 35 0
BBX 15 17 4 11
BITMAP
07C0
1FF0
3838
701C
E00C
C006
C006
C006
C006
E00E
701C
3838
1FF0
07E0
0000
7FFE
7FFE
ENDCHAR
STARTCHAR guillemotright
ENCODING 187
SWIDTH 870 0
DWIDTH 35 0
BBX 21 18 1 0
BITMAP
603000
F07800
783C00
3C1E00
1E0F00
0F0780
0783C0
03C1E0
01E0F0
01F0F8
03C1E0
0783C0
0F0780
1E0F00
3C1E00
783C00
F07800
603000
ENDCHAR
STARTCHAR onequarter
ENCODING 188
SWIDTH 870 0
DWIDTH 35 0
BBX 17 31 3 0
BITMAP
040000
040000
0C0000
1C0000
3C0000
6C0000
0C0000
0C0000
0C0000
0C0000
0C0000
0C0000
0C0000
7F8180
7F8F80
007E00
03F000
1FC000
7E0E00
F01E00
001E00
003E00
003600
007600
00E600
00C600
00FF00
00FF00
000600
001F00
001F00
ENDCHAR
STARTCHAR onehalf
ENCODING 189
SWIDTH 870 0
DWIDTH 35 0
BBX 18 31 3 0
BITMAP
040000
040000
0C0000
1C0000
3C0000
6C0000
0C0000
0C0000
0C0000
0C0000
0C0000
0C0000
0C0000
7F8100
7F8F80
007E00
03F000
1F8000
FC1F00
F03F80
0071C0
0060C0
0040C0
000180
000380
000700
000E00
001C00
0030C0
007FC0
007FC0
ENDCHAR
STARTCHAR threequarters
ENCODING 190
SWIDTH 870 0
DWIDTH 35 0
BBX 17 31 3 0
BITMAP
1E0000
7F0000
638000
018000
018000
038000
1F0000
1F0000
078000
018000
018000
018000
E30000
FF0180
3C0F80
007E00
03F800
1FC000
7E1E00
F01E00
003E00
003E00
007600
007600
00E600
01C600
01FF00
01FF00
000600
001F00
001F00
ENDCHAR
STARTCHAR questiondown
ENCODING 191
SWIDTH 870 0
DWIDTH 35 0
BBX 14 25 4 -6
BITMAP
01C0
03E0
03E0
03E0
01C0
0000
0000
0000
0180
0180
0180
0380
0F80
3E00
7800
E000
C000
C000
C000
C00C
E00C
601C
7838
3FF0
0FE0
ENDCHAR
STARTCHAR Agrave
ENCODING 192
SWIDTH 870 0
DWIDTH 35 0
BBX 21 32 1 0
BITMAP
0C0000
0E0000
0F0000
078000
03C000
01E000
00F000
007000
007000
00F000
00F800
00D800
01DC00
018C00
038C00
038E00
030600
070700
060300
0E0300
0E0380
0C0180
1FFFC0
1FFFC0
1800C0
3800E0
300060
700070
700070
600030
E00038
C00018
ENDCHAR
STARTCHAR Aacute
ENCODING 193
SWIDTH 870 0
DWIDTH 35 0
BBX 21 32 1 0
BITMAP
000180
000380
000780
000F00
001E00
003C00
007800
007000
007000
007000
00D800
00D800
01DC00
018C00
038C00
038E00
030600
070700
060300
0E0300
0E0380
0C0180
1FFFC0
1FFFC0
3800C0
3800E0
300060
700070
600070
E00030
E00038
C00018
ENDCHAR
STARTCHAR Acircumflex
ENCODING 194
SWIDTH 870 0
DWIDTH 35 0
BBX 21 32 1 0
BITMAP
002000
007800
01FC00
03DE00
078F00
0F0780
060100
000000
007000
007000
00F800
00D800
01DC00
018C00
038C00
038E00
030600
070700
060300
0E0300
0E0380
0FFF80
1FFFC0
1FFFC0
3800C0
3800E0
300060
700070
600030
E00030
E00038
C00018
ENDCHAR
STARTCHAR Atilde
ENCODING 195
SWIDTH 870 0
DWIDTH 35 0
BBX 21 31 1 0
BITMAP
01C000
03C180
07E180
0E7380
0C3300
0C3E00
001C00
007000
007000
00F800
00D800
01DC00
019C00
038C00
038E00
030600
070700
070700
0E0300
0E0380
0C0180
1FFFC0
1FFFC0
3800C0
3800E0
300060
700070
600070
E00030
E00038
C00018
ENDCHAR
STARTCHAR Adieresis
ENCODING 196
SWIDTH 870 0
DWIDTH 35 0
BBX 21 30 1 0
BITMAP
070300
078780
078780
030300
000000
000000
007000
007800
00F800
00D800
01DC00
018C00
038E00
038E00
030600
070700
060700
0E0380
0E0380
1C0180
1FFFC0
1FFFC0
3800E0
300060
700060
700070
600030
E00038
C00038
C00018
ENDCHAR
STARTCHAR Aring
ENCODING 197
SWIDTH 870 0
DWIDTH 35 0
BBX 21 33 1 0
BITMAP
007800
00FC00
01CE00
018600
018600
018600
01CE00
00FC00
007800
007000
007800
00F800
00F800
00CC00
01CC00
01CE00
038600
038600
070300
070300
070380
0E0180
0E0180
1FFFC0
1FFFC0
1800E0
380060
300060
300070
700030
600038
E00038
C00018
ENDCHAR
STARTCHAR AE
ENCODING 198
SWIDTH 870 0
DWIDTH 35 0
BBX 21 24 1 0
BITMAP
03FFF8
03FFF8
033000
033000
073000
073000
063000
063000
0E3000
0E3000
0C3000
1C3FC0
1C3FC0
1C3000
1FF000
3FF000
383000
303000
303000
703000
703000
603000
E03FF8
E03FF8
ENDCHAR
STARTCHAR Ccedilla
ENCODING 199
SWIDTH 870 0
DWIDTH 34 0
BBX 19 33 2 -9
BITMAP
01F8C0
07FEC0
0E0FC0
1803C0
3001C0
3000C0
6000C0
6000C0
C00000
C00000
C00000
C00000
C00000
C00000
C00000
E00000
600000
700000
700060
3800E0
1C01C0
0F0780
07FF00
01FC00
000000
003000
003000
003000
003800
003C00
018C00
01FC00
007800
ENDCHAR
STARTCHAR Egrave
ENCODING 200
SWIDTH 870 0
DWIDTH 35 0
BBX 16 32 3 0
BITMAP
3000
3800
3C00
0F00
0780
03C0
01C0
0000
FFFF
FFFF
C000
C000
C000
C000
C000
C000
C000
C000
C000
FFC0
FFC0
C000
C000
C000
C000
C000
C000
C000
C000
C000
FFFF
FFFF
ENDCHAR
STARTCHAR Eacute
ENCODING 201
SWIDTH 870 0
DWIDTH 35 0
BBX 16 32 3 0
BITMAP
0006
000E
001E
0078
00F0
01E0
01C0
0000
FFFF
FFFF
C000
C000
C000
C000
C000
C000
C000
C000
C000
FFC0
FFC0
C000
C000
C000
C000
C000
C000
C000
C000
C000
FFFF
FFFF
ENDCHAR
STARTCHAR Ecircumflex
ENCODING 202
SWIDTH 870 0
DWIDTH 35 0
BBX 16 32 3 0
BITMAP
0180
03C0
07F0
1E78
3C1C
300C
0000
0000
FFFF
FFFF
C000
C000
C000
C000
C000
C000
C000
C000
FC00
FFC0
FFC0
C000
C000
C000
C000
C000
C000
C000
C000
C000
FFFF
FFFF
ENDCHAR
STARTCHAR Edieresis
ENCODING 203
SWIDTH 870 0
DWIDTH 35 0
BBX 16 30 3 0
BITMAP
180C
3C1E
3C1E
180C
0000
0000
FFFF
FFFF
C000
C000
C000
C000
C000
C000
C000
C000
C000
FFE0
FFE0
C000
C000
C000
C000
C000
C000
C000
C000
C000
FFFF
FFFF
ENDCHAR
STARTCHAR Igrave
ENCODING 204
SWIDTH 870 0
DWIDTH 35 0
BBX 16 32 4 0
BITMAP
6000
7000
3C00
1E00
0F00
0780
0380
0000
FFFF
FFFF
0180
0180
0180
0180
0180
0180
0180
0180
0180
0180
0180
0180
0180
0180
0180
0180
0180
0180
0180
0180
FFFF
FFFF
ENDCHAR
STARTCHAR Iacute
ENCODING 205
SWIDTH 870 0
DWIDTH 35 0
BBX 16 32 4 0
BITMAP
0006
000E
003C
0078
00F0
01E0
01C0
0000
FFFF
FFFF
0180
0180
0180
0180
0180
0180
0180
0180
0180
0180
0180
0180
0180
0180
0180
0180
0180
0180
0180
0180
FFFF
FFFF
ENDCHAR
STARTCHAR Icircumflex
ENCODING 206
SWIDTH 870 0
DWIDTH 35 0
BBX 16 32 4 0
BITMAP
0100
07C0
0EE0
3C70
783C
2018
0000
0000
FFFF
FFFF
0180
0180
0180
0180
0180
0180
0180
0180
0180
0180
0180
0180
0180
0180
0180
0180
0180
0180
0180
0180
FFFF
FFFF
ENDCHAR
STARTCHAR Idieresis
ENCODING 207
SWIDTH 870 0
DWIDTH 34 0
BBX 16 30 4 0
BITMAP
3830
3C78
3C78
1870
0000
0000
FFFF
FFFF
0180
0180
0180
0180
0180
0180
0180
0180
0180
0180
0180
0180
0180
0180
0180
0180
0180
0180
0180
0180
FFFF
FFFF
ENDCHAR
STARTCHAR Eth
ENCODING 208
SWIDTH 870 0
DWIDTH 35 0
BBX 21 24 1 0
BITMAP
1FFC00
1FFF00
180380
1800C0
180060
180070
180030
180018
180018
180018
180018
FFFC18
FFFC18
180018
180018
180018
180038
180030
180070
1800E0
1801C0
180380
1FFF00
1FFC00
ENDCHAR
STARTCHAR Ntilde
ENCODING 209
SWIDTH 870 0
DWIDTH 35 0
BBX 17 31 3 0
BITMAP
070000
0F0600
1F8600
39CE00
30CC00
30F800
007000
E00180
F00180
F00180
F80180
FC0180
DC0180
DE0180
CE0180
C70180
C78180
C38180
C3C180
C1E180
C0E180
C0F180
C07980
C03980
C03D80
C01F80
C00F80
C00F80
C00780
C00380
C00380
ENDCHAR
STARTCHAR Ograve
ENCODING 210
SWIDTH 870 0
DWIDTH 34 0
BBX 20 32 1 0
BITMAP
0C0000
0E0000
0F0000
03C000
01E000
00F000
007000
000000
01F800
07FE00
0F0700
1C0380
3801C0
3000C0
600060
600060
E00030
C00030
C00030
C00030
C00030
C00030
C00030
C00070
600060
600060
3000E0
3801C0
1C03C0
0F0780
07FE00
01FC00
ENDCHAR
STARTCHAR Oacute
ENCODING 211
SWIDTH 870 0
DWIDTH 34 0
BBX 20 32 1 0
BITMAP
000180
000380
000780
001E00
003C00
007800
007000
000000
01F800
07FE00
0E0700
1C0380
3801C0
7000C0
600060
600060
E00030
C00030
C00030
C00030
C00030
C00030
C00030
C00070
600060
600060
3000E0
3801C0
1C03C0
0F0780
07FF00
01F800
ENDCHAR
STARTCHAR Ocircumflex
ENCODING 212
SWIDTH 870 0
DWIDTH 34 0
BBX 20 32 1 0
BITMAP
002000
007800
00FC00
03DE00
078F00
0F0780
060100
000000
01F800
07FE00
0E0700
1C0380
3801C0
7000C0
600060
600060
E00030
C00030
C00030
C00030
C00030
C00030
C00030
C00070
600060
600060
3000E0
3801C0
1C03C0
0F0780
07FF00
01F800
ENDCHAR
STARTCHAR Otilde
ENCODING 213
SWIDTH 870 0
DWIDTH 34 0
BBX 20 31 1 0
BITMAP
01C000
03C180
07E180
0E7380
0C3300
0C3E00
001C00
01F800
07FE00
0E0700
1C0380
3801C0
7000C0
600060
600060
E00030
C00030
C00030
C00030
C00030
C00030
C00030
C00070
600060
600060
3000E0
3801C0
1C03C0
0F0780
07FF00
01F800
ENDCHAR
STARTCHAR Odieresis
ENCODING 214
SWIDTH 870 0
DWIDTH 35 0
BBX 20 30 2 0
BITMAP
0E0600
0F0F00
0F0F00
060E00
000000
000000
01F800
07FE00
0E0700
1C0380
3801C0
7000C0
600060
600060
E00030
C00030
C00030
C00030
C00030
C00030
C00030
C00070
600060
600060
3000E0
3801C0
1C0380
0F0700
07FE00
01F800
ENDCHAR
STARTCHAR multiply
ENCODING 215
SWIDTH 870 0
DWIDTH 35 0
BBX 13 14 5 4
BITMAP
C018
E038
7070
38E0
3DE0
1FC0
0F80
0F80
1F80
1DC0
38E0
7070
E038
C018
ENDCHAR
STARTCHAR Oslash
ENCODING 216
SWIDTH 870 0
DWIDTH 34 0
BBX 21 28 0 -2
BITMAP
000008
000018
00FC38
03FF38
0783F0
0E01E0
1C01E0
1801F0
3803B0
300730
700E38
600C18
601818
603818
607018
606018
60C018
61C038
338030
330070
3E0060
1C00E0
1E01C0
3F0780
73FF00
E0FC00
E00000
C00000
ENDCHAR
STARTCHAR Ugrave
ENCODING 217
SWIDTH 870 0
DWIDTH 35 0
BBX 17 32 3 0
BITMAP
300000
380000
1E0000
0F0000
078000
03C000
01C000
C00180
C00180
C00180
C00180
C00180
C00180
C00180
C00180
C00180
C00180
C00180
C00180
C00180
C00180
C00180
C00180
C00180
C00180
C00180
E00380
600300
700700
3C1E00
1FFC00
07F000
ENDCHAR
STARTCHAR Uacute
ENCODING 218
SWIDTH 870 0
DWIDTH 35 0
BBX 17 32 3 0
BITMAP
000600
000E00
001E00
007800
00F000
01E000
01C000
C00180
C00180
C00180
C00180
C00180
C00180
C00180
C00180
C00180
C00180
C00180
C00180
C00180
C00180
C00180
C00180
C00180
C00180
C00180
E00380
600300
700700
3C1E00
1FFC00
07F000
ENDCHAR
STARTCHAR Ucircumflex
ENCODING 219
SWIDTH 870 0
DWIDTH 35 0
BBX 17 33 3 0
BITMAP
008000
03C000
07E000
0FF800
1E3C00
3C1C00
300C00
000000
000000
C00180
C00180
C00180
C00180
C00180
C00180
C00180
C00180
C00180
C00180
C00180
C00180
C00180
C00180
C00180
C00180
C00180
C00180
E00380
600300
300700
3C1E00
0FFC00
03F000
ENDCHAR
STARTCHAR Udieresis
ENCODING 220
SWIDTH 870 0
DWIDTH 35 0
BBX 17 31 3 0
BITMAP
000C00
381E00
3C1E00
3C1E00
1C0C00
000000
C00180
C00180
C00180
C00180
C00180
C00180
C00180
C00180
C00180
C00180
C00180
C00180
C00180
C00180
C00180
C00180
C00180
C00180
C00180
E00380
600300
700700
3C1E00
1FFC00
07F000
ENDCHAR
STARTCHAR Yacute
ENCODING 221
SWIDTH 870 0
DWIDTH 35 0
BBX 18 32 3 0
BITMAP
000300
000700
001E00
003C00
007800
00F000
00E000
400080
E001C0
E00380
700380
300700
380E00
1C0E00
0C1C00
0E1800
073800
033000
03F000
01E000
00C000
00C000
00C000
00C000
00C000
00C000
00C000
00C000
00C000
00C000
00C000
00C000
ENDCHAR
STARTCHAR Thorn
ENCODING 222
SWIDTH 870 0
DWIDTH 34 0
BBX 16 24 3 0
BITMAP
C000
C000
C000
C000
C000
C000
FFE0
FFF8
C01C
C006
C007
C003
C003
C003
C007
C00E
C03C
FFF8
FFC0
C000
C000
C000
C000
C000
ENDCHAR
STARTCHAR germandbls
ENCODING 223
SWIDTH 870 0
DWIDTH 35 0
BBX 15 25 4 0
BITMAP
1F00
3FC0
70E0
E060
C030
C030
C030
C070
C0E0
C7E0
C7E0
C0F8
C03C
C01C
C00E
C006
C006
C006
C606
C706
C706
C30C
C39C
C1F8
C0F0
ENDCHAR
STARTCHAR agrave
ENCODING 224
SWIDTH 870 0
DWIDTH 34 0
BBX 16 27 3 0
BITMAP
1C00
1E00
0F00
0780
03C0
00E0
0060
0000
0000
07F0
3FFC
3E0E
0007
0003
0003
0003
07FF
1FFF
7C03
7003
C003
C003
C007
E01F
707F
3FF3
1FC3
ENDCHAR
STARTCHAR aacute
ENCODING 225
SWIDTH 870 0
DWIDTH 34 0
BBX 16 27 3 0
BITMAP
0006
001E
003C
0078
00F0
01E0
0080
0000
0000
07F0
3FFC
3E0E
0007
0003
0003
0003
07FF
1FFF
7C03
7003
C003
C003
C007
E01F
707F
3FF3
1FC3
ENDCHAR
STARTCHAR acircumflex
ENCODING 226
SWIDTH 870 0
DWIDTH 34 0
BBX 16 27 3 0
BITMAP
0080
03C0
07E0
0FF0
1E3C
381C
300C
0000
0000
07F0
3FFC
3E0E
3007
0003
0003
0003
07FF
1FFF
7C03
7003
C003
C003
C007
E00F
707F
3FFB
1FC3
ENDCHAR
STARTCHAR atilde
ENCODING 227
SWIDTH 870 0
DWIDTH 34 0
BBX 16 26 3 0
BITMAP
0700
0F06
1F86
39CE
30CC
30F8
0070
0000
07F0
3FFC
3E0E
0007
0003
0003
0003
07FF
1FFF
7C03
7003
C003
C003
C007
E01F
707F
3FFB
1FC3
ENDCHAR
STARTCHAR adieresis
ENCODING 228
SWIDTH 870 0
DWIDTH 35 0
BBX 17 25 3 0
BITMAP
1C0600
1E0F00
1E0F00
0C0600
000000
000000
000000
07F800
3FFE00
3C0700
000380
000180
000180
000180
0FFF80
3FFF80
7C0180
700180
C00180
C00180
C00380
E00F80
703F80
3FF980
0FE180
ENDCHAR
STARTCHAR aring
ENCODING 229
SWIDTH 870 0
DWIDTH 35 0
BBX 17 28 3 0
BITMAP
00F000
01F800
039C00
030C00
030C00
039C00
01F800
00F000
000000
000000
03F800
1FFE00
1F0700
000380
000180
000180
000180
03FF80
1FFF80
7C0380
700180
C00180
C00180
C00380
E00F80
703F80
3FFD80
0FE180
ENDCHAR
STARTCHAR ae
ENCODING 230
SWIDTH 870 0
DWIDTH 35 0
BBX 24 18 0 0
BITMAP
07C0F0
3FF3F8
3C771C
003E1C
001C0E
001C0E
00180E
0FF806
3FFFFF
703FFF
E03800
C03C00
C03C00
C03C02
E07E07
70FF1E
3FFBFE
0F99F8
ENDCHAR
STARTCHAR ccedilla
ENCODING 231
SWIDTH 870 0
DWIDTH 35 0
BBX 18 27 2 -8
BITMAP
03F000
0FFE00
1C0F00
380780
700380
600180
E00180
C00180
C00000
C00000
C00000
C00000
C00000
600000
6000C0
3003C0
3C0F80
0FFF00
03F800
006000
006000
007000
007800
003800
031800
03F800
01F000
ENDCHAR
STARTCHAR egrave
ENCODING 232
SWIDTH 870 0
DWIDTH 35 0
BBX 19 27 2 0
BITMAP
180000
1E0000
0F0000
078000
03C000
01E000
006000
000000
03F000
0FFC00
1E0F00
380700
700380
F00180
E001C0
E001C0
C001C0
FFFFC0
FFFFC0
C00000
E00000
600000
700060
3800E0
1E03C0
0FFF80
01FC00
ENDCHAR
STARTCHAR eacute
ENCODING 233
SWIDTH 870 0
DWIDTH 35 0
BBX 19 27 2 0
BITMAP
000380
000780
000F00
001E00
007800
007000
006000
000000
03F000
0FFC00
1E0F00
380700
700380
F00180
E001C0
E001C0
C001C0
FFFFC0
FFFFC0
C00000
E00000
600000
700060
3800E0
1E03C0
0FFF80
01FC00
ENDCHAR
STARTCHAR ecircumflex
ENCODING 234
SWIDTH 870 0
DWIDTH 35 0
BBX 19 27 2 0
BITMAP
004000
00E000
03F800
07BC00
0F1E00
1E0F00
0C0600
000000
000000
03F800
0FFE00
3C0F00
780780
700380
E00180
E001C0
C001C0
FFFFC0
FFFFC0
C00000
E00000
600000
700060
3800E0
1E03C0
0FFF00
03FC00
ENDCHAR
STARTCHAR edieresis
ENCODING 235
SWIDTH 870 0
DWIDTH 34 0
BBX 20 25 1 0
BITMAP
0E0600
0F0F00
0F0F00
070600
000000
000000
03F800
0FFE00
1F0F00
3C0380
780180
7800C0
F000C0
F000C0
E000C0
FFFFC0
FFFFC0
E00000
600000
600000
300070
3800E0
1E03C0
07FF80
01FC00
ENDCHAR
STARTCHAR igrave
ENCODING 236
SWIDTH 870 0
DWIDTH 35 0
BBX 18 27 3 0
BITMAP
380000
3C0000
1E0000
0F0000
078000
01C000
00C000
000000
000000
7FC000
7FC000
00C000
00C000
00C000
00C000
00C000
00C000
00C000
00C000
00C000
00C000
00C000
00C000
00C000
00C000
FFFFC0
FFFFC0
ENDCHAR
STARTCHAR iacute
ENCODING 237
SWIDTH 870 0
DWIDTH 35 0
BBX 18 27 3 0
BITMAP
000700
000F00
001E00
007800
00F000
00E000
00C000
000000
000000
7FC000
7FC000
00C000
00C000
00C000
00C000
00C000
00C000
00C000
00C000
00C000
00C000
00C000
00C000
00C000
00C000
FFFFC0
FFFFC0
ENDCHAR
STARTCHAR icircumflex
ENCODING 238
SWIDTH 870 0
DWIDTH 35 0
BBX 18 27 3 0
BITMAP
008000
01C000
07E000
0F7800
1E3C00
3C1E00
100C00
000000
000000
7FC000
7FC000
00C000
00C000
00C000
00C000
00C000
00C000
00C000
00C000
00C000
00C000
00C000
00C000
00C000
00C000
FFFFC0
FFFFC0
ENDCHAR
STARTCHAR idieresis
ENCODING 239
SWIDTH 870 0
DWIDTH 34 0
BBX 18 25 3 0
BITMAP
381800
3C3C00
3C3C00
1C1800
000000
000000
000000
7FC000
7FC000
00C000
00C000
00C000
00C000
00C000
00C000
00C000
00C000
00C000
00C000
00C000
00C000
00C000
00C000
FFFFC0
FFFFC0
ENDCHAR
STARTCHAR eth
ENCODING 240
SWIDTH 870 0
DWIDTH 34 0
BBX 18 27 2 0
BITMAP
3C0000
3F0600
03FE00
01F800
07F000
0F3800
0C3C00
001C00
000E00
03FF00
0FFF00
1E0F00
380780
700380
6001C0
C000C0
C000C0
C000C0
C000C0
C000C0
C000C0
600180
700380
380700
1C0E00
0FFC00
03F000
ENDCHAR
STARTCHAR ntilde
ENCODING 241
SWIDTH 870 0
DWIDTH 35 0
BBX 15 26 4 0
BITMAP
0C00
3E0C
3F0C
739C
6198
61F8
00E0
0000
C7E0
CFF8
FC1C
F00C
E006
C006
C006
C006
C006
C006
C006
C006
C006
C006
C006
C006
C006
C006
ENDCHAR
STARTCHAR ograve
ENCODING 242
SWIDTH 870 0
DWIDTH 34 0
BBX 19 27 2 0
BITMAP
0C0000
1E0000
078000
03C000
01E000
00F000
006000
000000
000000
01F800
0FFE00
1E0F00
380380
7001C0
6000C0
E000E0
C00060
C00060
C00060
C00060
E000E0
6000C0
7001C0
380380
1E0F00
0FFE00
03F800
ENDCHAR
STARTCHAR oacute
ENCODING 243
SWIDTH 870 0
DWIDTH 34 0
BBX 19 27 2 0
BITMAP
000380
000780
000F00
001E00
003C00
007000
006000
000000
000000
01F800
0FFE00
1E0F00
380380
7001C0
6000C0
E000E0
C00060
C00060
C00060
C00060
E000E0
6000C0
7001C0
380380
1E0F00
0FFE00
03F800
ENDCHAR
STARTCHAR ocircumflex
ENCODING 244
SWIDTH 870 0
DWIDTH 34 0
BBX 19 27 2 0
BITMAP
006000
00F000
01F800
03FC00
079E00
0E0700
0C0300
000000
000000
03F800
0FFE00
1E0F00
380380
7001C0
6000C0
E000E0
C00060
C00060
C00060
C00060
E000E0
6000C0
7001C0
380380
1E0F00
0FFE00
03F800
ENDCHAR
STARTCHAR otilde
ENCODING 245
SWIDTH 870 0
DWIDTH 34 0
BBX 19 26 2 0
BITMAP
038000
078300
0FC300
1CE700
186600
187C00
003800
000000
03F800
0FFE00
1E0F00
380380
7001C0
6000C0
E000E0
C00060
C00060
C00060
C00060
E000E0
6000C0
7001C0
380380
1E0F00
0FFE00
03F800
ENDCHAR
STARTCHAR odieresis
ENCODING 246
SWIDTH 870 0
DWIDTH 34 0
BBX 19 25 2 0
BITMAP
0E0600
0F0F00
0F0F00
070600
000000
000000
000000
01F800
0FFE00
1E0F00
380380
7001C0
6000C0
E000E0
C00060
C00060
C00060
C00060
E000E0
6000C0
7001C0
380380
1E0F00
0FFE00
03F800
ENDCHAR
STARTCHAR divide
ENCODING 247
SWIDTH 870 0
DWIDTH 35 0
BBX 17 20 3 2
BITMAP
018000
03C000
03C000
018000
000000
000000
000000
000000
000000
FFFF80
FFFF80
000000
000000
000000
000000
000000
018000
03C000
03C000
018000
ENDCHAR
STARTCHAR oslash
ENCODING 248
SWIDTH 870 0
DWIDTH 35 0
BBX 21 21 1 -2
BITMAP
000030
01FC78
07FFF0
0F07E0
1C03C0
380760
300F60
701E30
603C30
607830
60F030
61E030
63C030
338060
3700E0
1E00C0
3F0380
7FFF00
71FC00
E00000
400000
ENDCHAR
STARTCHAR ugrave
ENCODING 249
SWIDTH 870 0
DWIDTH 35 0
BBX 15 27 4 0
BITMAP
3000
3C00
1E00
0F00
0780
03C0
0180
0000
C006
C006
C006
C006
C006
C006
C006
C006
C006
C006
C006
C006
C006
C006
C00E
E03E
70FE
7FE6
1F86
ENDCHAR
STARTCHAR uacute
ENCODING 250
SWIDTH 870 0
DWIDTH 35 0
BBX 15 27 4 0
BITMAP
000E
001E
003C
0078
00F0
01C0
0180
0000
C006
C006
C006
C006
C006
C006
C006
C006
C006
C006
C006
C006
C006
C006
C00E
E03E
70FE
7FE6
1F86
ENDCHAR
STARTCHAR ucircumflex
ENCODING 251
SWIDTH 870 0
DWIDTH 35 0
BBX 15 27 4 0
BITMAP
0080
03C0
07E0
0FF0
1E3C
3C1C
300C
0000
0000
C006
C006
C006
C006
C006
C006
C006
C006
C006
C006
C006
C006
C006
C00E
C01E
60FE
3FE6
1F86
ENDCHAR
STARTCHAR udieresis
ENCODING 252
SWIDTH 870 0
DWIDTH 34 0
BBX 14 25 4 0
BITMAP
3818
3C3C
3C3C
1818
0000
0000
C00C
C00C
C00C
C00C
C00C
C00C
C00C
C00C
C00C
C00C
C00C
C00C
C00C
C00C
C01C
C03C
60FC
7FEC
1F8C
ENDCHAR
STARTCHAR yacute
ENCODING 253
SWIDTH 870 0
DWIDTH 35 0
BBX 19 35 2 -8
BITMAP
000380
000780
000F00
001E00
007800
007000
006000
000000
800020
C00060
E000E0
6000C0
7001C0
300180
380380
1C0300
1C0700
0E0600
0E0E00
070E00
070C00
039C00
039800
01F800
01F000
00F000
00E000
00E000
00C000
01C000
018000
038000
030000
1F0000
1E0000
ENDCHAR
STARTCHAR thorn
ENCODING 254
SWIDTH 870 0
DWIDTH 35 0
BBX 19 35 2 -9
BITMAP
C00000
C00000
C00000
C00000
C00000
C00000
C00000
C00000
C3F000
CFFE00
FE0F00
F80380
F001C0
E000C0
C00060
C00060
C00060
C00060
C00060
E000E0
E000C0
F001C0
F80380
FE0F00
CFFE00
C3F000
C00000
C00000
C00000
C00000
C00000
C00000
C00000
C00000
C00000
ENDCHAR
STARTCHAR ydieresis
ENCODING 255
SWIDTH 870 0
DWIDTH 34 0
BBX 20 33 1 -8
BITMAP
0E0600
0F0F00
0F0F00
060600
000000
000000
000000
E00070
600060
7000E0
3000E0
3801C0
1801C0
1C0180
0C0380
0E0300
060700
070600
030E00
038C00
019C00
01D800
00F800
00F000
007000
007000
00E000
00E000
00C000
01C000
038000
0F8000
0F0000
ENDCHAR
STARTCHAR Amacron
ENCODING 256
SWIDTH 870 0
DWIDTH 35 0
BBX 21 28 1 0
BITMAP
0FFF80
0FFF80
000000
000000
007000
007000
00F800
00D800
01DC00
019C00
038C00
038E00
030600
070700
070700
0E0300
0E0380
0C0180
1FFFC0
1FFFC0
3800C0
3800E0
300060
700070
600070
E00030
E00038
C00018
ENDCHAR
STARTCHAR amacron
ENCODING 257
SWIDTH 870 0
DWIDTH 34 0
BBX 16 24 3 0
BITMAP
3F80
3FFE
3FFE
0000
0000
0000
07F0
3FFC
3C0E
0007
0003
0003
0003
07FF
1FFF
7C03
7003
C003
C003
C007
E01F
707F
3FFB
1FC3
ENDCHAR
STARTCHAR Abreve
ENCODING 258
SWIDTH 870 0
DWIDTH 34 0
BBX 21 31 1 0
BITMAP
060300
060300
060300
030600
038E00
01FC00
00F800
007000
007000
00F800
00D800
01DC00
019C00
038C00
038E00
030600
070700
070700
0E0300
0E0380
0C0380
1FFFC0
1FFFC0
3800C0
3800E0
300060
700070
600070
E00030
E00038
C00018
ENDCHAR
STARTCHAR abreve
ENCODING 259
SWIDTH 870 0
DWIDTH 34 0
BBX 16 28 3 0
BITMAP
0804
1806
1806
1C0E
0E1C
07F8
03F0
0000
0000
0000
07F0
3FFC
3E0E
0007
0003
0003
0003
07FF
1FFF
7C03
7003
C003
C003
C007
E01F
707F
3FF3
1FC3
ENDCHAR
STARTCHAR Aogonek
ENCODING 260
SWIDTH 870 0
DWIDTH 35 0
BBX 21 33 1 -9
BITMAP
007000
00F000
00F800
00F800
01DC00
019C00
039C00
030E00
030E00
070600
060700
0E0700
0C0380
0C0380
1FFF80
1FFFC0
3801C0
3800C0
3000E0
7000E0
600070
E00070
E00030
C000F8
0001C0
000300
000700
000600
000600
000618
000738
0003F0
0001E0
ENDCHAR
STARTCHAR aogonek
ENCODING 261
SWIDTH 870 0
DWIDTH 35 0
BBX 17 27 3 -9
BITMAP
03F800
1FFE00
1F0700
000380
000180
000180
000180
03FF80
1FFF80
7C0380
700180
C00180
C00180
C00380
E00F80
703F80
3FFF80
0FDF80
003F80
007E00
007800
007000
006000
006180
003380
003F00
001E00
ENDCHAR
STARTCHAR Cacute
ENCODING 262
SWIDTH 870 0
DWIDTH 34 0
BBX 19 31 2 0
BITMAP
000600
000E00
003C00
007800
00F000
01E000
008000
01F8C0
07FEC0
0E0FC0
1803C0
3001C0
3000C0
6000C0
6000C0
C00000
C00000
C00000
C00000
C00000
C00000
C00000
E00000
600000
600000
3000E0
3800E0
1C03C0
0F0780
07FF00
01FC00
ENDCHAR
STARTCHAR cacute
ENCODING 263
SWIDTH 870 0
DWIDTH 35 0
BBX 18 27 2 0
BITMAP
000380
000780
000F00
001E00
003C00
007000
006000
000000
03F800
0FFE00
1E0F00
380380
7001C0
6001C0
E000C0
C000C0
C00000
C00000
C00000
C00000
C00000
600080
6000C0
3003C0
3C0F80
0FFF00
03F800
ENDCHAR
STARTCHAR Ccircumflex
ENCODING 264
SWIDTH 870 0
DWIDTH 34 0
BBX 19 32 2 0
BITMAP
004000
00F000
01F800
07BC00
0F1E00
0E0F00
0C0200
000000
01F8C0
07FFC0
0E0FC0
1803C0
3001C0
3000C0
6000C0
6000C0
C00000
C00000
C00000
C00000
C00000
C00000
C00000
E00000
600000
600000
3000E0
3800E0
1C03C0
0F0780
07FF00
01FC00
ENDCHAR
STARTCHAR ccircumflex
ENCODING 265
SWIDTH 870 0
DWIDTH 35 0
BBX 18 27 2 0
BITMAP
006000
00F000
01FC00
079E00
0E0700
0C0300
000000
000000
03F000
0FFC00
1C1F00
380700
700380
600180
E00180
C00180
C00000
C00000
C00000
C00000
C00000
600080
6000C0
3003C0
3C0F80
0FFF00
03F800
ENDCHAR
STARTCHAR Cdotaccent
ENCODING 266
SWIDTH 870 0
DWIDTH 34 0
BBX 19 28 2 0
BITMAP
003000
007800
007800
007000
01F8C0
07FEC0
0E0FC0
1803C0
3001C0
3000C0
6000C0
6000C0
C00000
C00000
C00000
C00000
C00000
C00000
C00000
E00000
600000
700000
700060
3800E0
1C01C0
0F0780
07FF00
01FC00
ENDCHAR
STARTCHAR cdotaccent
ENCODING 267
SWIDTH 870 0
DWIDTH 35 0
BBX 18 25 2 0
BITMAP
006000
00F000
00F000
00E000
000000
000000
03F000
0FFC00
1C1F00
380700
700380
600180
E00180
C00180
C00000
C00000
C00000
C00000
C00000
600080
6000C0
3003C0
3C0F80
0FFF00
03F800
ENDCHAR
STARTCHAR Ccaron
ENCODING 268
SWIDTH 870 0
DWIDTH 34 0
BBX 19 32 2 0
BITMAP
0E0300
0F0780
078F00
03DE00
01FC00
00F800
007000
002000
01F8C0
07FEC0
0E0FC0
1803C0
3001C0
3000C0
6000C0
6000C0
C00000
C00000
C00000
C00000
C00000
C00000
C00000
E00000
600000
600000
3000E0
3800E0
1C03C0
0F0780
07FF00
01FC00
ENDCHAR
STARTCHAR ccaron
ENCODING 269
SWIDTH 870 0
DWIDTH 35 0
BBX 18 27 2 0
BITMAP
0C0300
0F0700
079E00
03FC00
01F800
00F000
004000
000000
03F000
0FFC00
1C1F00
380700
700380
600180
E00180
C00180
C00000
C00000
C00000
C00000
C00000
600080
6000C0
3003C0
3C0F80
0FFF00
03F800
ENDCHAR
STARTCHAR Dcaron
ENCODING 270
SWIDTH 870 0
DWIDTH 34 0
BBX 18 32 2 0
BITMAP
300C00
783C00
3C7800
0FF000
07E000
038000
010000
000000
FFE000
FFF800
C01C00
C00E00
C00300
C00380
C00180
C000C0
C000C0
C000C0
C000C0
C000C0
C000C0
C000C0
C000C0
C000C0
C001C0
C00180
C00380
C00700
C00E00
C01C00
FFF800
FFE000
ENDCHAR
STARTCHAR dcaron
ENCODING 271
SWIDTH 870 0
DWIDTH 35 0
BBX 23 26 0 0
BITMAP
000C00
000C78
000CFC
000CFE
000CFE
000C7E
000C06
078C06
1FEC0C
387C18
303C78
601C20
601C00
C00C00
C00C00
C00C00
C00C00
C00C00
C00C00
C00C00
601C00
601C00
303C00
387C00
1FEC00
078C00
ENDCHAR
STARTCHAR Dcroat
ENCODING 272
SWIDTH 870 0
DWIDTH 35 0
BBX 21 24 1 0
BITMAP
1FFC00
1FFF00
180380
1800C0
180060
180070
180030
180018
180018
180018
180018
FFFC18
FFFC18
180018
180018
180018
180038
180030
180070
1800E0
1801C0
180380
1FFF00
1FFC00
ENDCHAR
STARTCHAR dcroat
ENCODING 273
SWIDTH 870 0
DWIDTH 35 0
BBX 22 26 1 0
BITMAP
000060
000060
000060
000060
007FFC
007FFC
000060
01F860
0FFE60
1E0F60
3803E0
7001E0
6000E0
E000E0
C00060
C00060
C00060
C00060
C00060
E000E0
6000E0
7001E0
3803E0
1E0F60
0FFE60
03F860
ENDCHAR
STARTCHAR Emacron
ENCODING 274
SWIDTH 870 0
DWIDTH 35 0
BBX 16 28 3 0
BITMAP
7FFE
3FFE
0000
0000
FFFF
FFFF
C000
C000
C000
C000
C000
C000
C000
C000
C000
FFC0
FFC0
C000
C000
C000
C000
C000
C000
C000
C000
C000
FFFF
FFFF
ENDCHAR
STARTCHAR emacron
ENCODING 275
SWIDTH 870 0
DWIDTH 35 0
BBX 19 23 2 0
BITMAP
1FFF00
1FFF00
000000
000000
03F000
0FFC00
1E0F00
380700
700380
E00180
E00180
E001C0
C001C0
FFFFC0
FFFFC0
C00000
E00000
600000
700060
3800E0
1E03C0
0FFF80
01FC00
ENDCHAR
STARTCHAR Ebreve
ENCODING 276
SWIDTH 870 0
DWIDTH 34 0
BBX 16 32 3 0
BITMAP
1008
300C
300C
381C
1C38
0FF0
07E0
0000
FFFF
FFFF
C000
C000
C000
C000
C000
C000
C000
C000
C000
FFC0
FFC0
C000
C000
C000
C000
C000
C000
C000
C000
C000
FFFF
FFFF
ENDCHAR
STARTCHAR ebreve
ENCODING 277
SWIDTH 870 0
DWIDTH 35 0
BBX 20 28 2 0
BITMAP
040400
0C0600
0C0600
0E0E00
071C00
03F800
01F000
000000
000000
03F800
0FFE00
1E0F00
380780
700380
6001C0
E001C0
E001C0
C001C0
FFFFC0
FFFFC0
E00000
600000
600000
300070
3800E0
1E03C0
07FF80
01FC00
ENDCHAR
STARTCHAR Edotaccent
ENCODING 278
SWIDTH 870 0
DWIDTH 35 0
BBX 17 29 3 0
BITMAP
00C000
01E000
01E000
01C000
000000
FFFF80
FFFF80
C00000
C00000
C00000
C00000
C00000
C00000
C00000
C00000
C00000
FFE000
FFE000
C00000
C00000
C00000
C00000
C00000
C00000
C00000
C00000
C00000
FFFF80
FFFF80
ENDCHAR
STARTCHAR edotaccent
ENCODING 279
SWIDTH 870 0
DWIDTH 35 0
BBX 19 25 2 0
BITMAP
00C000
01E000
01E000
01C000
000000
000000
03F000
0FFC00
1E0F00
380700
700380
E00180
E00180
E001C0
C001C0
FFFFC0
FFFFC0
C00000
E00000
600000
700060
3800E0
1E03C0
0FFF80
01FC00
ENDCHAR
STARTCHAR Eogonek
ENCODING 280
SWIDTH 870 0
DWIDTH 35 0
BBX 17 33 3 -9
BITMAP
FFFF80
FFFF80
C00000
C00000
C00000
C00000
C00000
C00000
C00000
C00000
C00000
FFC000
FFC000
C00000
C00000
C00000
C00000
C00000
C00000
C00000
C00000
C00000
FFFF80
FFFF80
006000
00C000
00C000
00C000
00C180
00C380
006380
007F00
001E00
ENDCHAR
STARTCHAR eogonek
ENCODING 281
SWIDTH 870 0
DWIDTH 35 0
BBX 19 28 2 -9
BITMAP
03F000
0FFC00
1E0F00
380700
700380
E00180
E001C0
E001C0
C001C0
FFFFC0
FFFFC0
C00000
C00000
600000
600060
3001E0
1C03C0
0FFF80
03FE00
007800
007000
006000
006000
0060C0
0061C0
0031C0
001F80
000F00
ENDCHAR
STARTCHAR Ecaron
ENCODING 282
SWIDTH 870 0
DWIDTH 35 0
BBX 16 32 3 0
BITMAP
300C
3C1C
1E3C
0FF0
07E0
01C0
0100
0000
FFFF
FFFF
C000
C000
C000
C000
C000
C000
C000
C000
C000
FFC0
FFC0
C000
C000
C000
C000
C000
C000
C000
C000
C000
FFFF
FFFF
ENDCHAR
STARTCHAR ecaron
ENCODING 283
SWIDTH 870 0
DWIDTH 35 0
BBX 19 27 2 0
BITMAP
1C0600
1E0F00
0F1E00
07B800
01F000
00E000
004000
000000
03F000
0FFC00
1E0F00
380700
700380
E00180
E00180
E001C0
C001C0
FFFFC0
FFFFC0
C00000
E00000
600000
700060
3800E0
1E03C0
0FFF80
01FC00
ENDCHAR
STARTCHAR Gcircumflex
ENCODING 284
SWIDTH 870 0
DWIDTH 35 0
BBX 21 32 1 0
BITMAP
006000
00F000
01F800
03FC00
070F00
0E0700
040300
000000
01FC60
07FFE0
0E07E0
1C01E0
380060
300060
600060
600000
C00000
C00000
C00000
C00000
C00000
C00FF8
C00FF8
E00018
600038
700030
300070
3800E0
1E01C0
0F83C0
03FF00
00FC00
ENDCHAR
STARTCHAR gcircumflex
ENCODING 285
SWIDTH 870 0
DWIDTH 34 0
BBX 19 33 2 -6
BITMAP
006000
00F000
03FC00
079E00
0E0700
0C0300
000000
000000
000180
01F380
03FF00
071C00
0E0E00
0C0600
0C0600
0C0600
0E0E00
071E00
07FC00
03F800
01F000
03C000
0FF800
3FFF00
7C0780
F000C0
C00060
C00060
C00060
6001C0
3C07C0
1FFF00
03FC00
ENDCHAR
STARTCHAR Gbreve
ENCODING 286
SWIDTH 870 0
DWIDTH 35 0
BBX 21 31 1 0
BITMAP
060180
060180
060180
030300
038700
01FE00
007800
01FC60
07FF60
0E07E0
1C01E0
3800E0
300060
600060
600060
C00000
C00000
C00000
C00000
C00000
C00FF8
C00FF8
E00018
600038
700030
300070
3800E0
1E01C0
0F83C0
03FF00
00FC00
ENDCHAR
STARTCHAR gbreve
ENCODING 287
SWIDTH 870 0
DWIDTH 34 0
BBX 19 34 2 -6
BITMAP
040400
0C0600
0C0E00
0E0E00
071C00
03F800
01F000
000000
000000
000000
01F380
03FF80
071E00
0E0E00
0C0600
0C0600
0C0600
0E0E00
071E00
07FC00
03F800
01F000
03C000
0FF800
3FFF00
7C0780
F000C0
C00060
C00060
C00060
6001C0
3C07C0
1FFF00
03FC00
ENDCHAR
STARTCHAR Gdotaccent
ENCODING 288
SWIDTH 870 0
DWIDTH 34 0
BBX 20 28 1 0
BITMAP
003000
007800
007800
007000
01FC60
07FF60
0E07E0
1C01E0
3800E0
300060
600060
600060
C00000
C00000
C00000
C00000
C00000
C01FF0
C01FF0
E00030
600070
600060
3000E0
3801C0
1C03C0
0F0780
07FF00
01FC00
ENDCHAR
STARTCHAR gdotaccent
ENCODING 289
SWIDTH 870 0
DWIDTH 34 0
BBX 19 31 2 -6
BITMAP
006000
00F000
00F000
00E000
000000
000000
000000
01F380
03FF80
071E00
0E0E00
0C0600
0C0600
0C0600
0E0E00
071E00
07FC00
03F800
01F000
03E000
0FFC00
3FFF00
7C07C0
F000C0
C00060
C00060
C00060
6001C0
3C07C0
1FFF00
03FC00
ENDCHAR
STARTCHAR uni0122
ENCODING 290
SWIDTH 870 0
DWIDTH 34 0
BBX 20 33 1 -9
BITMAP
01FC60
07FF60
0E07E0
1C01E0
3800E0
300060
600060
600060
C00000
C00000
C00000
C00000
C00000
C01FF0
C01FF0
E00030
600070
600060
3000E0
3801C0
1C03C0
0F0780
07FF00
01FC00
000000
00E000
01F000
01F000
00F000
003000
006000
00C000
018000
ENDCHAR
STARTCHAR uni0123
ENCODING 291
SWIDTH 870 0
DWIDTH 34 0
BBX 19 34 2 -6
BITMAP
002000
007000
00C000
018000
01E000
01F000
01F000
00E000
000000
000000
01F380
03FF80
071E00
0E0E00
0C0600
0C0600
0C0600
0E0E00
071E00
07FC00
03F800
01F000
03C000
0FF800
3FFF00
7C0780
F000C0
C00060
C00060
C00060
6001C0
3C07C0
1FFF00
03FC00
ENDCHAR
STARTCHAR Hcircumflex
ENCODING 292
SWIDTH 870 0
DWIDTH 35 0
BBX 15 32 4 0
BITMAP
0100
0780
0FC0
1FF0
3C78
7838
2018
0000
C006
C006
C006
C006
C006
C006
C006
C006
C006
C006
C006
FFFE
FFFE
C006
C006
C006
C006
C006
C006
C006
C006
C006
C006
C006
ENDCHAR
STARTCHAR hcircumflex
ENCODING 293
SWIDTH 870 0
DWIDTH 35 0
BBX 18 32 3 0
BITMAP
060000
0F0000
1F8000
3FC000
F1E000
E07000
D83000
180000
180000
180000
180000
180000
180000
18FC00
1BFF00
1F0780
1E0180
1C00C0
1800C0
1800C0
1800C0
1800C0
1800C0
1800C0
1800C0
1800C0
1800C0
1800C0
1800C0
1800C0
1800C0
1800C0
ENDCHAR
STARTCHAR Hbar
ENCODING 294
SWIDTH 870 0
DWIDTH 35 0
BBX 19 24 2 0
BITMAP
300180
300180
300180
300180
300180
FFFFE0
FFFFE0
300180
300180
300180
300180
3FFF80
3FFF80
300180
300180
300180
300180
300180
300180
300180
300180
300180
300180
300180
ENDCHAR
STARTCHAR hbar
ENCODING 295
SWIDTH 870 0
DWIDTH 35 0
BBX 19 26 2 0
BITMAP
0C0000
0C0000
0C0000
0C0000
FFFC00
FFFC00
0C0000
0C3E00
0CFF80
0F81C0
0F00C0
0E0060
0C0060
0C0060
0C0060
0C0060
0C0060
0C0060
0C0060
0C0060
0C0060
0C0060
0C0060
0C0060
0C0060
0C0060
ENDCHAR
STARTCHAR Itilde
ENCODING 296
SWIDTH 870 0
DWIDTH 35 0
BBX 16 31 4 0
BITMAP
0E0C
1F0C
3F1C
7398
61F0
61E0
0000
FFFF
FFFF
0180
0180
0180
0180
0180
0180
0180
0180
0180
0180
0180
0180
0180
0180
0180
0180
0180
0180
0180
0180
FFFF
FFFF
ENDCHAR
STARTCHAR itilde
ENCODING 297
SWIDTH 870 0
DWIDTH 35 0
BBX 18 26 3 0
BITMAP
1C0000
3E1C00
7F1800
73B800
E3F000
41E000
000000
000000
7FC000
7FC000
00C000
00C000
00C000
00C000
00C000
00C000
00C000
00C000
00C000
00C000
00C000
00C000
00C000
00C000
FFFFC0
FFFFC0
ENDCHAR
STARTCHAR Imacron
ENCODING 298
SWIDTH 870 0
DWIDTH 35 0
BBX 16 28 4 0
BITMAP
7FFC
7FFC
0000
0000
FFFF
FFFF
0180
0180
0180
0180
0180
0180
0180
0180
0180
0180
0180
0180
0180
0180
0180
0180
0180
0180
0180
0180
FFFF
FFFF
ENDCHAR
STARTCHAR imacron
ENCODING 299
SWIDTH 870 0
DWIDTH 35 0
BBX 18 23 3 0
BITMAP
7FFC00
7FFE00
000000
000000
000000
7FC000
7FC000
00C000
00C000
00C000
00C000
00C000
00C000
00C000
00C000
00C000
00C000
00C000
00C000
00C000
00C000
FFFFC0
FFFFC0
ENDCHAR
STARTCHAR Ibreve
ENCODING 300
SWIDTH 870 0
DWIDTH 35 0
BBX 16 32 4 0
BITMAP
1010
3018
3018
3838
1C70
0FE0
07C0
0000
FFFF
FFFF
0180
0180
0180
0180
0180
0180
0180
0180
0180
0180
0180
0180
0180
0180
0180
0180
0180
0180
0180
0180
FFFF
FFFF
ENDCHAR
STARTCHAR ibreve
ENCODING 301
SWIDTH 870 0
DWIDTH 35 0
BBX 18 28 3 0
BITMAP
100800
300C00
300C00
381C00
1C3800
0FF000
07E000
000000
000000
000000
7FC000
7FC000
00C000
00C000
00C000
00C000
00C000
00C000
00C000
00C000
00C000
00C000
00C000
00C000
00C000
00C000
FFFFC0
FFFFC0
ENDCHAR
STARTCHAR Iogonek
ENCODING 302
SWIDTH 870 0
DWIDTH 35 0
BBX 16 33 4 -9
BITMAP
FFFF
FFFF
0180
0180
0180
0180
0180
0180
0180
0180
0180
0180
0180
0180
0180
0180
0180
0180
0180
0180
0180
0180
FFFF
FFFF
01C0
01C0
0180
0180
0183
0187
00C7
00FE
003C
ENDCHAR
STARTCHAR iogonek
ENCODING 303
SWIDTH 870 0
DWIDTH 35 0
BBX 18 34 3 -9
BITMAP
00C000
01E000
01E000
01C000
000000
000000
000000
7FC000
7FC000
00C000
00C000
00C000
00C000
00C000
00C000
00C000
00C000
00C000
00C000
00C000
00C000
00C000
00C000
FFFFC0
FFFFC0
007000
007000
006000
006000
0060C0
0061C0
0031C0
003F80
000F00
ENDCHAR
STARTCHAR Idotaccent
ENCODING 304
SWIDTH 870 0
DWIDTH 35 0
BBX 16 29 4 0
BITMAP
0180
03C0
03C0
0380
0000
FFFF
FFFF
0180
0180
0180
0180
0180
0180
0180
0180
0180
0180
0180
0180
0180
0180
0180
0180
0180
0180
0180
0180
FFFF
FFFF
ENDCHAR
STARTCHAR dotlessi
ENCODING 305
SWIDTH 870 0
DWIDTH 35 0
BBX 18 18 3 0
BITMAP
7FC000
7FC000
00C000
00C000
00C000
00C000
00C000
00C000
00C000
00C000
00C000
00C000
00C000
00C000
00C000
00C000
FFFFC0
FFFFC0
ENDCHAR
STARTCHAR IJ
ENCODING 306
SWIDTH 870 0
DWIDTH 34 0
BBX 16 23 3 0
BITMAP
C0FF
C0FF
C003
C003
C003
C003
C003
C003
C003
C003
0003
0003
0003
C003
C003
C003
C003
C003
C006
E00E
781C
3FF8
0FE0
ENDCHAR
STARTCHAR ij
ENCODING 307
SWIDTH 870 0
DWIDTH 35 0
BBX 19 33 2 -8
BITMAP
0300C0
0781E0
0781E0
0701C0
000000
000000
000000
3F8FE0
3F8FE0
018060
018060
018060
018060
018060
018060
018060
018060
018060
018060
018060
018060
018060
018060
FFFE60
FFFE60
000060
000060
000060
0000E0
0000C0
0003C0
007F80
007E00
ENDCHAR
STARTCHAR Jcircumflex
ENCODING 308
SWIDTH 870 0
DWIDTH 34 0
BBX 17 32 3 0
BITMAP
003000
007800
00FE00
03CF00
078380
060180
000000
000000
03FF00
03FF00
000300
000300
000300
000300
000300
000300
000300
000300
000300
000300
000300
C00300
E00300
C00300
C00300
C00300
C00300
C00600
600E00
781C00
3FF800
0FE000
ENDCHAR
STARTCHAR jcircumflex
ENCODING 309
SWIDTH 870 0
DWIDTH 35 0
BBX 18 35 3 -8
BITMAP
001000
003800
00FE00
01EF00
03C780
0783C0
030180
000000
000000
03F800
03F800
001800
001800
001800
001800
001800
001800
001800
001800
001800
001800
001800
001800
001800
001800
001800
001800
001800
001800
001800
001800
003000
007000
FFE000
FF8000
ENDCHAR
STARTCHAR uni0136
ENCODING 310
SWIDTH 870 0
DWIDTH 35 0
BBX 19 33 2 -9
BITMAP
C00380
C007C0
C00F00
C01E00
C03800
C07000
C0E000
C1C000
C38000
C70000
CF0000
FF8000
F1C000
E0E000
C07000
C03000
C01800
C01800
C01C00
C00C00
C00E00
C00600
C007C0
C007E0
038000
07C000
07C000
03C000
00C000
018000
018000
030000
060000
ENDCHAR
STARTCHAR uni0137
ENCODING 311
SWIDTH 870 0
DWIDTH 35 0
BBX 16 35 4 -9
BITMAP
C000
C000
C000
C000
C000
C000
C000
C000
C078
C0F8
C1E0
C3C0
C780
CF00
DE00
FC00
FC00
EE00
C700
C380
C1C0
C0E0
C070
C038
C01F
C00F
0700
0F80
0F80
0780
0180
0300
0300
0600
0C00
ENDCHAR
STARTCHAR kgreenlandic
ENCODING 312
SWIDTH 870 0
DWIDTH 35 0
BBX 16 18 4 0
BITMAP
C038
C078
C0F0
C3C0
C780
CF00
DE00
FC00
FC00
EE00
C700
C380
C1C0
C0E0
C070
C038
C01F
C00F
ENDCHAR
STARTCHAR Lacute
ENCODING 313
SWIDTH 870 0
DWIDTH 35 0
BBX 16 31 4 0
BITMAP
0100
0780
0F00
1E00
3C00
7000
6000
C000
C000
C000
C000
C000
C000
C000
C000
C000
C000
C000
C000
C000
C000
C000
C000
C000
C000
C000
C000
C000
C000
FFFE
FFFF
ENDCHAR
STARTCHAR lacute
ENCODING 314
SWIDTH 870 0
DWIDTH 35 0
BBX 18 33 3 0
BITMAP
000200
000700
000E00
001C00
003800
007000
00E000
00C000
7FC000
7FC000
00C000
00C000
00C000
00C000
00C000
00C000
00C000
00C000
00C000
00C000
00C000
00C000
00C000
00C000
00C000
00C000
00C000
00C000
00C000
00C000
00C000
FFFFC0
FFFFC0
ENDCHAR
STARTCHAR uni013B
ENCODING 315
SWIDTH 870 0
DWIDTH 35 0
BBX 16 33 4 -9
BITMAP
C000
C000
C000
C000
C000
C000
C000
C000
C000
C000
C000
C000
C000
C000
C000
C000
C000
C000
C000
C000
C000
C000
FFFE
FFFF
0000
0700
0F80
0F80
0780
0180
0300
0600
0C00
ENDCHAR
STARTCHAR uni013C
ENCODING 316
SWIDTH 870 0
DWIDTH 35 0
BBX 18 34 3 -9
BITMAP
7FC000
7FC000
00C000
00C000
00C000
00C000
00C000
00C000
00C000
00C000
00C000
00C000
00C000
00C000
00C000
00C000
00C000
00C000
00C000
00C000
00C000
00C000
00C000
FFFFC0
FFFFC0
000000
038000
07C000
07C000
03C000
00C000
018000
030000
060000
ENDCHAR
STARTCHAR Lcaron
ENCODING 317
SWIDTH 870 0
DWIDTH 35 0
BBX 16 25 4 0
BITMAP
0078
C0FC
C0FE
C0FE
C07E
C006
C006
C00C
C018
C078
C020
C000
C000
C000
C000
C000
C000
C000
C000
C000
C000
C000
C000
FFFE
FFFF
ENDCHAR
STARTCHAR lcaron
ENCODING 318
SWIDTH 870 0
DWIDTH 35 0
BBX 19 25 2 0
BITMAP
7FC780
7FCFC0
00CFE0
00CFE0
00C7E0
00C060
00C060
00C0C0
00C180
00C380
00C200
00C000
00C000
00C000
00C000
00C000
00C000
00C000
00C000
00C000
00C000
00C000
00C000
FFFFC0
FFFFC0
ENDCHAR
STARTCHAR Ldot
ENCODING 319
SWIDTH 870 0
DWIDTH 35 0
BBX 19 24 2 0
BITMAP
C00000
C00000
C00000
C00000
C00000
C00000
C00000
C001C0
C003E0
C003E0
C003E0
C001C0
C00000
C00000
C00000
C00000
C00000
C00000
C00000
C00000
C00000
C00000
FFFE00
FFFF00
ENDCHAR
STARTCHAR ldot
ENCODING 320
SWIDTH 870 0
DWIDTH 35 0
BBX 21 25 1 0
BITMAP
7FC000
7FC000
00C000
00C000
00C000
00C000
00C000
00C000
00C070
00C0F8
00C0F8
00C0F8
00C070
00C000
00C000
00C000
00C000
00C000
00C000
00C000
00C000
00C000
00C000
FFFFC0
FFFFC0
ENDCHAR
STARTCHAR Lslash
ENCODING 321
SWIDTH 870 0
DWIDTH 35 0
BBX 19 24 3 0
BITMAP
0C0000
0C0000
0C0000
0C0000
0C0000
0C0000
0C0800
0C3C00
0CFC00
0FF000
0FC000
1F0000
7C0000
FC0000
6C0000
0C0000
0C0000
0C0000
0C0000
0C0000
0C0000
0C0000
0FFFE0
0FFFE0
ENDCHAR
STARTCHAR lslash
ENCODING 322
SWIDTH 870 0
DWIDTH 35 0
BBX 18 25 3 0
BITMAP
7FC000
7FC000
00C000
00C000
00C000
00C000
00C000
00D800
00FC00
01F800
07E000
0FC000
0EC000
00C000
00C000
00C000
00C000
00C000
00C000
00C000
00C000
00C000
00C000
FFFFC0
FFFFC0
ENDCHAR
STARTCHAR Nacute
ENCODING 323
SWIDTH 870 0
DWIDTH 35 0
BBX 17 31 3 0
BITMAP
001800
003800
007800
00E000
01C000
038000
070000
E00180
F00180
F00180
F80180
FC0180
DC0180
DE0180
CE0180
C70180
C78180
C38180
C1C180
C1E180
C0E180
C0F180
C07980
C03980
C03D80
C01F80
C00F80
C00F80
C00780
C00380
C00380
ENDCHAR
STARTCHAR nacute
ENCODING 324
SWIDTH 870 0
DWIDTH 35 0
BBX 15 27 4 0
BITMAP
000E
001E
003C
0078
00F0
01C0
0180
0000
0000
C7E0
DFF8
FC1C
F00C
E006
C006
C006
C006
C006
C006
C006
C006
C006
C006
C006
C006
C006
C006
ENDCHAR
STARTCHAR uni0145
ENCODING 325
SWIDTH 870 0
DWIDTH 35 0
BBX 17 33 3 -9
BITMAP
E00180
F00180
F00180
F80180
F80180
DC0180
DE0180
CE0180
CF0180
C78180
C38180
C3C180
C1E180
C0E180
C0F180
C07980
C03980
C03D80
C01D80
C00F80
C00F80
C00780
C00380
C00380
038000
07C000
07C000
03C000
00C000
018000
018000
030000
060000
ENDCHAR
STARTCHAR uni0146
ENCODING 326
SWIDTH 870 0
DWIDTH 35 0
BBX 15 27 4 -9
BITMAP
C7E0
CFF8
FC1C
F00C
E006
C006
C006
C006
C006
C006
C006
C006
C006
C006
C006
C006
C006
C006
0380
07C0
07C0
03C0
00C0
0180
0180
0300
0600
ENDCHAR
STARTCHAR Ncaron
ENCODING 327
SWIDTH 870 0
DWIDTH 35 0
BBX 17 32 3 0
BITMAP
300600
3C1E00
1E3C00
0F7800
07E000
01C000
008000
000000
E00180
F00180
F00180
F80180
FC0180
DC0180
CE0180
CF0180
C70180
C78180
C3C180
C1C180
C1E180
C0E180
C07180
C07980
C03980
C03D80
C01F80
C00F80
C00F80
C00780
C00380
C00380
ENDCHAR
STARTCHAR ncaron
ENCODING 328
SWIDTH 870 0
DWIDTH 35 0
BBX 15 27 4 0
BITMAP
6018
783C
3C78
1FE0
0FC0
0380
0100
0000
0000
C7E0
DFF8
FC1C
F00C
E006
C006
C006
C006
C006
C006
C006
C006
C006
C006
C006
C006
C006
C006
ENDCHAR
STARTCHAR napostrophe
ENCODING 329
SWIDTH 870 0
DWIDTH 35 0
BBX 19 25 2 0
BITMAP
780000
FC0000
FE0000
FE0000
7E0000
060000
060000
0D9F00
19FF80
39F1C0
21E0C0
01C060
018060
018060
018060
018060
018060
018060
018060
018060
018060
018060
018060
018060
018060
ENDCHAR
STARTCHAR Eng
ENCODING 330
SWIDTH 870 0
DWIDTH 35 0
BBX 17 32 3 -8
BITMAP
E00180
F00180
F00180
F80180
FC0180
DC0180
DE0180
CE0180
C70180
C78180
C38180
C1C180
C1E180
C0E180
C0F180
C07980
C03980
C03D80
C01F80
C00F80
C00F80
C00780
C00380
C00380
000180
000180
000180
000180
000300
000700
01FE00
01F800
ENDCHAR
STARTCHAR eng
ENCODING 331
SWIDTH 870 0
DWIDTH 35 0
BBX 15 26 4 -8
BITMAP
C7E0
CFF8
FC1C
F00C
E006
C006
C006
C006
C006
C006
C006
C006
C006
C006
C006
C006
C006
C006
0006
0006
0006
0006
000C
001C
07F8
07E0
ENDCHAR
STARTCHAR Omacron
ENCODING 332
SWIDTH 870 0
DWIDTH 34 0
BBX 20 28 1 0
BITMAP
0FFF80
0FFF80
000000
000000
01F800
07FE00
0E0700
1C0380
3801C0
7000C0
600060
600060
E00030
C00030
C00030
C00030
C00030
C00030
C00030
C00070
600060
600060
3000E0
3801C0
1C03C0
0F0780
07FF00
01F800
ENDCHAR
STARTCHAR omacron
ENCODING 333
SWIDTH 870 0
DWIDTH 34 0
BBX 19 23 2 0
BITMAP
1FFF00
1FFF80
000000
000000
000000
03F800
0FFE00
1E0F00
380380
7001C0
6000C0
E000E0
C00060
C00060
C00060
C00060
E000E0
6000C0
7001C0
380380
1E0F00
0FFE00
03F800
ENDCHAR
STARTCHAR Obreve
ENCODING 334
SWIDTH 870 0
DWIDTH 35 0
BBX 20 32 2 0
BITMAP
040200
0C0300
0C0300
0E0700
070E00
03FC00
01F800
000000
01F800
07FE00
0E0700
1C0380
3801C0
7000C0
600060
600060
E00030
C00030
C00030
C00030
C00030
C00030
C00030
C00070
600060
600060
3000E0
3801C0
1C0380
0F0700
07FE00
01F800
ENDCHAR
STARTCHAR obreve
ENCODING 335
SWIDTH 870 0
DWIDTH 34 0
BBX 19 28 2 0
BITMAP
040200
0C0300
0C0300
0E0700
070E00
03FC00
01F800
000000
000000
000000
03F800
0FFE00
1E0F00
380380
7001C0
6000C0
E000E0
C00060
C00060
C00060
C00060
E000E0
6000C0
7001C0
380380
1E0F00
0FFE00
03F800
ENDCHAR
STARTCHAR Ohungarumlaut
ENCODING 336
SWIDTH 870 0
DWIDTH 35 0
BBX 20 31 2 0
BITMAP
001840
0039E0
00F3C0
01E780
03CE00
079C00
021800
01F800
07FE00
0E0700
1C0380
3801C0
7000C0
600060
600060
E00030
C00030
C00030
C00030
C00030
C00030
C00030
C00070
600060
600060
3000E0
3801C0
1C0380
0F0700
07FE00
01F800
ENDCHAR
STARTCHAR ohungarumlaut
ENCODING 337
SWIDTH 870 0
DWIDTH 35 0
BBX 20 27 2 0
BITMAP
001860
0079E0
00F3C0
01E780
03CF00
079E00
061800
000000
000000
01F800
07FE00
1E0780
3801C0
7000E0
600060
E00070
C00030
C00030
C00030
C00030
E00070
600060
7000E0
3801C0
1E0780
07FF00
01F800
ENDCHAR
STARTCHAR OE
ENCODING 338
SWIDTH 870 0
DWIDTH 35 0
BBX 22 24 0 0
BITMAP
01FFFC
07FFFC
0F0C00
1C0C00
380C00
700C00
600C00
600C00
C00C00
C00C00
C00C00
C00FF0
C00FE0
C00C00
C00C00
C00C00
600C00
600C00
700C00
380C00
1C0C00
0F0C00
07FFFC
01FFFC
ENDCHAR
STARTCHAR oe
ENCODING 339
SWIDTH 870 0
DWIDTH 35 0
BBX 22 19 0 0
BITMAP
0F0000
1F83E0
3FCFF0
78FC78
707838
607818
E0381C
C0301C
C0301C
C03FFC
C03FFC
C03000
C03000
403800
607808
607C1C
38CE3C
1F8FF8
0F03E0
ENDCHAR
STARTCHAR Racute
ENCODING 340
SWIDTH 870 0
DWIDTH 34 0
BBX 20 32 1 0
BITMAP
000C00
001C00
003C00
007800
00F000
01E000
03C000
010000
FFE000
FFF800
C01C00
C00E00
C00600
C00300
C00300
C00300
C00300
C00600
C00E00
C03C00
DFF000
DFE000
C0F000
C03800
C01C00
C00E00
C00600
C00700
C00300
C00180
C001F0
C000F0
ENDCHAR
STARTCHAR racute
ENCODING 341
SWIDTH 870 0
DWIDTH 35 0
BBX 14 27 4 0
BITMAP
001C
003C
0078
01E0
03C0
0380
0300
0000
0000
C1F0
C7FC
CF1C
DC0C
F800
F000
E000
C000
C000
C000
C000
C000
C000
C000
C000
C000
C000
C000
ENDCHAR
STARTCHAR uni0156
ENCODING 342
SWIDTH 870 0
DWIDTH 34 0
BBX 19 33 2 -9
BITMAP
FFC000
FFF000
C03800
C01C00
C00C00
C00600
C00600
C00600
C00600
C00E00
C01C00
C07800
FFF000
FFC000
C1E000
C07000
C03800
C01C00
C00E00
C00E00
C00700
C00300
C003E0
C001E0
038000
07C000
07C000
03C000
00C000
018000
018000
030000
060000
ENDCHAR
STARTCHAR uni0157
ENCODING 343
SWIDTH 870 0
DWIDTH 35 0
BBX 15 27 4 -9
BITMAP
60F8
61FE
678E
6E06
7C00
7800
7000
6000
6000
6000
6000
6000
6000
6000
6000
6000
6000
6000
7000
F800
F800
7800
1800
3000
3000
6000
C000
ENDCHAR
STARTCHAR Rcaron
ENCODING 344
SWIDTH 870 0
DWIDTH 34 0
BBX 20 32 1 0
BITMAP
180600
1E0E00
0F3C00
07F800
03F000
01E000
008000
000000
FFE000
FFF800
C01C00
C00E00
C00600
C00300
C00300
C00300
C00300
C00600
C00E00
C03C00
DFF000
DFE000
C0F000
C03800
C01C00
C00E00
C00600
C00700
C00300
C00180
C001F0
C000F0
ENDCHAR
STARTCHAR rcaron
ENCODING 345
SWIDTH 870 0
DWIDTH 35 0
BBX 14 27 4 0
BITMAP
6018
7038
3CF0
1FE0
0FC0
0700
0200
0000
0000
C1F0
C7FC
DF1C
FC0C
F800
F000
E000
C000
C000
C000
C000
C000
C000
C000
C000
C000
C000
C000
ENDCHAR
STARTCHAR Sacute
ENCODING 346
SWIDTH 870 0
DWIDTH 34 0
BBX 17 32 3 0
BITMAP
000800
001C00
007800
007000
00E000
01C000
038000
07E000
1FF800
3C1E00
300E00
700700
600300
600300
600300
700000
380000
3F0000
1FF000
07FC00
00FE00
000F00
000380
C00180
C00180
C00180
E00180
600300
700700
3C0E00
1FFC00
07F000
ENDCHAR
STARTCHAR sacute
ENCODING 347
SWIDTH 870 0
DWIDTH 34 0
BBX 15 27 4 0
BITMAP
000E
001E
003C
0078
00F0
01C0
0180
0000
07E0
1FF8
383C
700E
600E
6006
7006
3F80
1FF8
07FC
007C
000E
C006
C006
C006
C00C
701C
3FF8
0FE0
ENDCHAR
STARTCHAR Scircumflex
ENCODING 348
SWIDTH 870 0
DWIDTH 34 0
BBX 17 32 3 0
BITMAP
008000
01E000
03F000
077800
1E3C00
1C0E00
180600
07E000
1FF800
3C1E00
300E00
700700
600300
600300
600300
700000
380000
3F0000
1FF000
07FC00
00FE00
000F00
000380
000180
C00180
C00180
E00180
E00300
700700
3C0E00
1FFC00
07F000
ENDCHAR
STARTCHAR scircumflex
ENCODING 349
SWIDTH 870 0
DWIDTH 35 0
BBX 16 27 4 0
BITMAP
0100
07C0
0EE0
1C70
783C
301C
0000
0000
07E0
1FF8
381C
700E
6006
6007
7002
3FC0
1FF8
07FC
007E
0007
C003
C003
C003
C006
781E
3FFC
0FF0
ENDCHAR
STARTCHAR Scedilla
ENCODING 350
SWIDTH 870 0
DWIDTH 34 0
BBX 17 33 3 -8
BITMAP
07E000
1FF800
3C1E00
300E00
700700
600300
600300
600300
700000
380000
3F0000
1FF000
07FC00
00FE00
000F00
000380
C00180
C00180
C00180
E00180
600380
700700
3C0E00
1FFC00
03F000
00C000
00C000
00C000
00F000
00F000
063000
07F000
01E000
ENDCHAR
STARTCHAR scedilla
ENCODING 351
SWIDTH 870 0
DWIDTH 35 0
BBX 16 27 4 -8
BITMAP
07E0
1FF8
381C
700E
6006
6007
7002
3FC0
1FF8
07FC
007E
0007
C003
C003
C003
C006
781E
3FFC
0FF0
0180
0180
0180
01C0
01E0
0C60
0FC0
0780
ENDCHAR
STARTCHAR Scaron
ENCODING 352
SWIDTH 870 0
DWIDTH 34 0
BBX 17 32 3 0
BITMAP
180600
1E0F00
0F1E00
07F800
03F000
00E000
008000
07E000
1FF800
3C1E00
300E00
700700
600300
600300
600300
700000
380000
3F0000
1FF000
07FC00
00FE00
000F00
000380
C00180
C00180
C00180
E00180
600300
700700
3C0E00
1FFC00
07F000
ENDCHAR
STARTCHAR scaron
ENCODING 353
SWIDTH 870 0
DWIDTH 35 0
BBX 16 27 4 0
BITMAP
300C
381C
1E78
0FF0
07E0
0380
0100
0000
07E0
1FF8
381C
700E
6006
6007
7002
3FC0
1FF8
07FC
007E
0007
C003
C003
C003
C006
781E
3FFC
0FF0
ENDCHAR
STARTCHAR uni0162
ENCODING 354
SWIDTH 870 0
DWIDTH 35 0
BBX 20 32 2 -8
BITMAP
FFFFF0
FFFFF0
006000
006000
006000
006000
006000
006000
006000
006000
006000
006000
006000
006000
006000
006000
006000
006000
006000
006000
006000
006000
006000
006000
006000
006000
006000
007000
007800
031800
03F800
00F000
ENDCHAR
STARTCHAR uni0163
ENCODING 355
SWIDTH 870 0
DWIDTH 36 0
BBX 14 33 5 -8
BITMAP
0600
0600
0600
0600
0600
0600
0600
FFFC
FFFC
0600
0600
0600
0600
0600
0600
0600
0600
0600
0600
0600
0600
0600
0380
01FC
03FC
0300
0300
0380
03C0
01C0
18C0
1FC0
0780
ENDCHAR
STARTCHAR Tcaron
ENCODING 356
SWIDTH 870 0
DWIDTH 35 0
BBX 20 32 2 0
BITMAP
0C0300
0F0700
079E00
03FC00
01F800
00F000
004000
000000
FFFFF0
FFFFF0
006000
006000
006000
006000
006000
006000
006000
006000
006000
006000
006000
006000
006000
006000
006000
006000
006000
006000
006000
006000
006000
006000
ENDCHAR
STARTCHAR tcaron
ENCODING 357
SWIDTH 870 0
DWIDTH 35 0
BBX 20 25 2 0
BITMAP
060000
0603C0
0607E0
0607F0
0607F0
0603F0
060030
FFF830
FFF860
0600C0
0601C0
060100
060000
060000
060000
060000
060000
060000
060000
060000
060000
060000
038000
01F800
00F800
ENDCHAR
STARTCHAR Tbar
ENCODING 358
SWIDTH 870 0
DWIDTH 35 0
BBX 20 24 1 0
BITMAP
FFFFF0
FFFFF0
006000
006000
006000
006000
006000
006000
006000
006000
006000
006000
0FFF80
0FFF80
006000
006000
006000
006000
006000
006000
006000
006000
006000
006000
ENDCHAR
STARTCHAR tbar
ENCODING 359
SWIDTH 870 0
DWIDTH 35 0
BBX 14 25 5 0
BITMAP
0600
0600
0600
0600
0600
0600
0600
FFFC
FFFC
0600
0600
0600
0600
FFFC
FFFC
0600
0600
0600
0600
0600
0600
0600
0380
01FC
00FC
ENDCHAR
STARTCHAR Utilde
ENCODING 360
SWIDTH 870 0
DWIDTH 35 0
BBX 17 31 3 0
BITMAP
070600
0F8600
1F8E00
39CC00
30F800
30F000
C00180
C00180
C00180
C00180
C00180
C00180
C00180
C00180
C00180
C00180
C00180
C00180
C00180
C00180
C00180
C00180
C00180
C00180
C00180
600380
600300
300700
3C1E00
0FFC00
03F000
ENDCHAR
STARTCHAR utilde
ENCODING 361
SWIDTH 870 0
DWIDTH 35 0
BBX 15 26 4 0
BITMAP
0C00
3E0C
3F0C
739C
6198
61F8
00E0
C006
C006
C006
C006
C006
C006
C006
C006
C006
C006
C006
C006
C006
C006
C00E
C03E
70FE
7FF6
1FC6
ENDCHAR
STARTCHAR Umacron
ENCODING 362
SWIDTH 870 0
DWIDTH 35 0
BBX 17 28 3 0
BITMAP
3FFE00
3FFE00
000000
C00180
C00180
C00180
C00180
C00180
C00180
C00180
C00180
C00180
C00180
C00180
C00180
C00180
C00180
C00180
C00180
C00180
C00180
C00180
E00380
600300
700700
3C1E00
1FFC00
07F000
ENDCHAR
STARTCHAR umacron
ENCODING 363
SWIDTH 870 0
DWIDTH 35 0
BBX 15 23 4 0
BITMAP
3FFE
7FFE
0000
0000
C006
C006
C006
C006
C006
C006
C006
C006
C006
C006
C006
C006
C006
C006
C00E
C03E
70FE
7FF6
1FC6
ENDCHAR
STARTCHAR Ubreve
ENCODING 364
SWIDTH 870 0
DWIDTH 34 0
BBX 16 32 3 0
BITMAP
1008
300C
300C
381C
1C38
0FF0
07E0
C003
C003
C003
C003
C003
C003
C003
C003
C003
C003
C003
C003
C003
C003
C003
C003
C003
C003
C003
E007
6006
700E
3C3C
1FF8
07E0
ENDCHAR
STARTCHAR ubreve
ENCODING 365
SWIDTH 870 0
DWIDTH 35 0
BBX 15 28 4 0
BITMAP
1008
300C
300C
381C
1C38
0FF0
07E0
0000
0000
C006
C006
C006
C006
C006
C006
C006
C006
C006
C006
C006
C006
C006
C006
C00E
C03E
70FE
7FE6
1F86
ENDCHAR
STARTCHAR Uring
ENCODING 366
SWIDTH 870 0
DWIDTH 35 0
BBX 17 33 3 0
BITMAP
01E000
03F000
073800
061800
061800
063800
03F000
01E000
C00180
C00180
C00180
C00180
C00180
C00180
C00180
C00180
C00180
C00180
C00180
C00180
C00180
C00180
C00180
C00180
C00180
C00180
C00180
E00380
600300
700700
3C1E00
1FFC00
07F000
ENDCHAR
STARTCHAR uring
ENCODING 367
SWIDTH 870 0
DWIDTH 35 0
BBX 15 28 4 0
BITMAP
0780
0FC0
1CE0
1860
1860
1CE0
0FC0
0780
0000
C006
C006
C006
C006
C006
C006
C006
C006
C006
C006
C006
C006
C006
C006
C00E
C03E
70FE
7FF6
1FC6
ENDCHAR
STARTCHAR Uhungarumlaut
ENCODING 368
SWIDTH 870 0
DWIDTH 34 0
BBX 16 31 3 0
BITMAP
0063
00E7
01EF
03DC
0738
0E70
0C60
C003
C003
C003
C003
C003
C003
C003
C003
C003
C003
C003
C003
C003
C003
C003
C003
C003
C003
E007
6006
700E
3C3C
1FF8
07E0
ENDCHAR
STARTCHAR uhungarumlaut
ENCODING 369
SWIDTH 870 0
DWIDTH 35 0
BBX 17 27 3 0
BITMAP
006180
00F380
01EF00
07DE00
0F3C00
1E7800
0C7000
000000
C00600
C00E00
C00E00
C00E00
C00E00
C00E00
C00E00
C00E00
C00E00
C00E00
C00E00
C00E00
C00E00
C00E00
C01E00
C03E00
60FE00
7FEE00
1F8600
ENDCHAR
STARTCHAR Uogonek
ENCODING 370
SWIDTH 870 0
DWIDTH 35 0
BBX 17 33 3 -9
BITMAP
C00180
C00180
C00180
C00180
C00180
C00180
C00180
C00180
C00180
C00180
C00180
C00180
C00180
C00180
C00180
C00180
C00180
C00180
C00180
E00380
600300
700700
3C1E00
1FFC00
0FF800
00E000
01C000
018000
018300
018700
00C700
00FE00
003C00
ENDCHAR
STARTCHAR uogonek
ENCODING 371
SWIDTH 870 0
DWIDTH 35 0
BBX 15 27 4 -9
BITMAP
C006
C006
C006
C006
C006
C006
C006
C006
C006
C006
C006
C006
C006
C00E
C01E
60FE
3FFE
1FFE
00FE
01F8
01E0
01C0
0180
0186
00CE
00FC
0078
ENDCHAR
STARTCHAR Wcircumflex
ENCODING 372
SWIDTH 870 0
DWIDTH 35 0
BBX 23 32 0 0
BITMAP
001000
003800
00FE00
01EF00
03C780
0783C0
020080
000000
C00006
E0380E
E03C0E
E03C0E
607C0C
606C0C
606E0C
60EE0C
70E60C
70C71C
70C71C
31C31C
31C31C
318398
338398
3B8198
3B01D8
3B01F8
1F00F8
1F00F8
1E00F8
1E0070
1E0070
1C0070
ENDCHAR
STARTCHAR wcircumflex
ENCODING 373
SWIDTH 870 0
DWIDTH 35 0
BBX 19 27 2 0
BITMAP
004000
00E000
03F800
07BC00
0F1E00
1E0F00
080200
000000
C00060
C00060
E00060
E0E0E0
60F0C0
61F0C0
61F0C0
71B1C0
71B9C0
33B980
339980
3B1980
3B1F80
1F1F80
1E0F00
1E0F00
1E0F00
1E0700
0C0600
ENDCHAR
STARTCHAR Ycircumflex
ENCODING 374
SWIDTH 870 0
DWIDTH 35 0
BBX 18 32 3 0
BITMAP
008000
01E000
03F000
0F7800
1E3C00
1C1E00
180400
000000
C00180
E001C0
700380
700700
380700
1C0E00
1C0C00
0E1C00
073800
073000
03F000
01E000
01C000
00C000
00C000
00C000
00C000
00C000
00C000
00C000
00C000
00C000
00C000
00C000
ENDCHAR
STARTCHAR ycircumflex
ENCODING 375
SWIDTH 870 0
DWIDTH 35 0
BBX 19 35 2 -8
BITMAP
004000
00E000
03F800
07BC00
0F1E00
1E0F00
080200
000000
800020
C00060
E000E0
6000C0
7001C0
300180
380380
180300
1C0700
0E0600
0E0E00
070C00
071C00
039C00
03B800
01F800
01F000
00F000
00E000
00E000
00C000
01C000
018000
038000
130000
1F0000
1E0000
ENDCHAR
STARTCHAR Ydieresis
ENCODING 376
SWIDTH 870 0
DWIDTH 35 0
BBX 18 31 3 0
BITMAP
1C0C00
1E1E00
1E1E00
0C0C00
000000
000000
C00180
E001C0
E00380
700700
380700
380E00
1C0E00
0E1C00
0E1800
073800
037000
03E000
01E000
00C000
00C000
00C000
00C000
00C000
00C000
00C000
00C000
00C000
00C000
00C000
00C000
ENDCHAR
STARTCHAR Zacute
ENCODING 377
SWIDTH 870 0
DWIDTH 35 0
BBX 19 32 2 0
BITMAP
000800
001C00
007800
00F000
00E000
01C000
038000
030000
7FFF80
FFFF80
000780
000700
000E00
001E00
001C00
003800
007800
007000
00E000
01E000
01C000
038000
078000
070000
0E0000
1E0000
1C0000
380000
780000
700000
FFFFC0
FFFFE0
ENDCHAR
STARTCHAR zacute
ENCODING 378
SWIDTH 870 0
DWIDTH 35 0
BBX 17 27 3 0
BITMAP
000700
000F00
001E00
003C00
00F000
00E000
00C000
000000
000000
FFFF00
FFFF00
000E00
001C00
003C00
007800
00F000
00E000
01C000
038000
078000
0F0000
1E0000
3C0000
380000
700000
FFFF80
FFFF80
ENDCHAR
STARTCHAR Zdotaccent
ENCODING 379
SWIDTH 870 0
DWIDTH 35 0
BBX 19 29 3 0
BITMAP
00C000
01E000
01E000
01C000
000000
FFFF80
FFFF80
000780
000700
000E00
001E00
003C00
003800
007800
00F000
00E000
01E000
03C000
038000
078000
0F0000
0E0000
1E0000
3C0000
380000
780000
F00000
FFFFC0
FFFFE0
ENDCHAR
STARTCHAR zdotaccent
ENCODING 380
SWIDTH 870 0
DWIDTH 35 0
BBX 17 25 3 0
BITMAP
038000
03C000
03C000
038000
000000
000000
000000
FFFF00
FFFF00
000E00
001C00
003C00
007800
00F000
00E000
01C000
038000
078000
0F0000
1E0000
3C0000
380000
700000
FFFF80
FFFF80
ENDCHAR
STARTCHAR Zcaron
ENCODING 381
SWIDTH 870 0
DWIDTH 35 0
BBX 19 32 2 0
BITMAP
180600
1E0E00
0F3C00
07F800
03F000
01E000
008000
000000
7FFF80
FFFF80
000780
000700
000E00
001E00
001C00
003800
007800
007000
00E000
01E000
01C000
038000
078000
070000
0E0000
1E0000
1C0000
380000
780000
700000
FFFFC0
FFFFE0
ENDCHAR
STARTCHAR zcaron
ENCODING 382
SWIDTH 870 0
DWIDTH 35 0
BBX 17 27 3 0
BITMAP
300C00
3C1C00
1E3800
0FF000
07E000
03C000
010000
000000
000000
FFFF00
FFFF00
000E00
001C00
003C00
007800
00F000
00E000
01C000
038000
078000
0F0000
1E0000
3C0000
380000
700000
FFFF80
FFFF80
ENDCHAR
STARTCHAR longs
ENCODING 383
SWIDTH 870 0
DWIDTH 35 0
BBX 15 25 4 0
BITMAP
00FC
01FE
0380
0700
0600
0600
0600
FE00
FE00
0600
0600
0600
0600
0600
0600
0600
0600
0600
0600
0600
0600
0600
0600
0600
0600
ENDCHAR
STARTCHAR uni0180
ENCODING 384
SWIDTH 870 0
DWIDTH 35 0
BBX 21 26 1 0
BITMAP
180000
180000
180000
180000
FFF800
FFFC00
180000
180000
187E00
19FF80
1BC1C0
1F00E0
1E0070
1C0030
1C0038
180018
180018
180018
180018
180018
1C0030
1E0070
1F00E0
1F81C0
1BFF80
18FE00
ENDCHAR
STARTCHAR uni0181
ENCODING 385
SWIDTH 870 0
DWIDTH 35 0
BBX 23 24 0 0
BITMAP
1FFF80
3FFFE0
730070
630018
C3001C
C3000C
C3000C
C3000C
C3000C
C30018
C30070
033FE0
037FF0
030038
03000C
030006
030006
030006
030006
030006
03000C
03001C
03FFF8
03FFE0
ENDCHAR
STARTCHAR uni0182
ENCODING 386
SWIDTH 870 0
DWIDTH 34 0
BBX 18 24 2 0
BITMAP
FFFF80
FFFF80
C00000
C00000
C00000
C00000
C00000
C00000
C00000
C00000
C00000
CFF000
CFFE00
C00F00
C00380
C001C0
C000C0
C000C0
C000C0
C001C0
C00180
C00700
FFFE00
FFFC00
ENDCHAR
STARTCHAR uni0183
ENCODING 387
SWIDTH 870 0
DWIDTH 34 0
BBX 18 26 2 0
BITMAP
FFFF80
FFFF80
C00000
C00000
C00000
C00000
C00000
C00000
C3F000
CFFC00
DE0E00
F80700
F00380
E00180
E001C0
C000C0
C000C0
C000C0
C000C0
C000C0
E00180
F00380
F80780
FC0F00
CFFC00
C3F000
ENDCHAR
STARTCHAR uni0184
ENCODING 388
SWIDTH 870 0
DWIDTH 34 0
BBX 18 24 2 0
BITMAP
C00000
C00000
C00000
C00000
C00000
C00000
C00000
C00000
C00000
C00000
C00000
CFF800
CFFE00
C00F00
C00380
C001C0
C000C0
C000C0
C000C0
C001C0
C00180
C00780
FFFE00
FFFC00
ENDCHAR
STARTCHAR uni0185
ENCODING 389
SWIDTH 870 0
DWIDTH 34 0
BBX 14 18 4 0
BITMAP
C000
C000
C000
C000
C000
C000
C000
C000
FFC0
FFF0
C038
C00C
C00C
C00C
C00C
C038
FFF0
FFE0
ENDCHAR
STARTCHAR uni0186
ENCODING 390
SWIDTH 870 0
DWIDTH 35 0
BBX 20 24 1 0
BITMAP
03F000
1FFC00
3C0F00
780380
F001C0
E000C0
0000E0
000060
000070
000030
000030
000030
000030
000030
000030
000070
600060
600060
6000E0
7001C0
780380
7E0700
6FFE00
63F800
ENDCHAR
STARTCHAR uni0187
ENCODING 391
SWIDTH 870 0
DWIDTH 35 0
BBX 22 26 0 0
BITMAP
00007C
0000FC
07E1C4
1FFB80
3C3F00
380F00
700700
600700
600300
C00300
C00000
C00000
C00000
C00000
C00000
C00000
C00000
C00000
600000
600000
700380
300780
380F00
1E1E00
0FFC00
03F000
ENDCHAR
STARTCHAR uni0188
ENCODING 392
SWIDTH 870 0
DWIDTH 35 0
BBX 23 24 0 0
BITMAP
00007E
0001FE
000380
000300
000300
03F300
0FFF00
1C3F00
300F00
600700
600700
C00200
C00000
C00000
C00000
C00000
C00000
E00000
600100
700380
380F00
3C3F00
1FFC00
07E000
ENDCHAR
STARTCHAR uni0189
ENCODING 393
SWIDTH 870 0
DWIDTH 35 0
BBX 21 24 1 0
BITMAP
1FFC00
1FFF00
180380
1801C0
1800E0
180070
180030
180038
180018
180018
180018
FFFC18
FFFC18
180018
180018
180018
180038
180030
180070
1800E0
1801C0
180380
1FFF00
1FFC00
ENDCHAR
STARTCHAR uni018A
ENCODING 394
SWIDTH 870 0
DWIDTH 35 0
BBX 22 24 1 0
BITMAP
1FFF80
3FFFC0
6600E0
E60070
C60038
C60018
C60018
C6000C
C6000C
C6000C
06000C
06000C
06000C
06000C
06000C
06000C
06000C
060018
060018
060038
060070
0600E0
07FFC0
07FF00
ENDCHAR
STARTCHAR uni018B
ENCODING 395
SWIDTH 870 0
DWIDTH 34 0
BBX 18 24 2 0
BITMAP
7FFFC0
7FFFC0
0000C0
0000C0
0000C0
0000C0
0000C0
0000C0
0000C0
0000C0
0000C0
07FCC0
1FFCC0
3C00C0
6000C0
E000C0
C000C0
C000C0
C000C0
C000C0
6000C0
3800C0
1FFFC0
0FFFC0
ENDCHAR
STARTCHAR uni018C
ENCODING 396
SWIDTH 870 0
DWIDTH 34 0
BBX 18 26 2 0
BITMAP
7FFFC0
7FFFC0
0000C0
0000C0
0000C0
0000C0
0000C0
03F0C0
0FFCC0
1E0EC0
3807C0
7003C0
6001C0
E001C0
C000C0
C000C0
C000C0
C000C0
C000C0
E001C0
6001C0
7003C0
3807C0
1C1EC0
0FFCC0
03F0C0
ENDCHAR
STARTCHAR uni018D
ENCODING 397
SWIDTH 870 0
DWIDTH 34 0
BBX 18 28 2 -10
BITMAP
03F000
0FFC00
1C0E00
380700
700380
600180
C000C0
C000C0
C000C0
C000C0
C000C0
C001C0
E00180
700380
780780
7C1F00
3FFE00
3FF000
1C0000
1E0000
0E0000
0F0000
078000
03C000
01E000
00F800
1FFF00
3FFF00
ENDCHAR
STARTCHAR uni018E
ENCODING 398
SWIDTH 870 0
DWIDTH 35 0
BBX 16 24 4 0
BITMAP
FFFF
FFFF
0003
0003
0003
0003
0003
0003
0003
0003
0003
03FF
03FF
0003
0003
0003
0003
0003
0003
0003
0003
0003
FFFF
FFFF
ENDCHAR
STARTCHAR uni018F
ENCODING 399
SWIDTH 870 0
DWIDTH 35 0
BBX 20 24 1 0
BITMAP
03F000
1FFC00
3C0F00
780380
F001C0
E000C0
0000E0
000060
000070
000030
000030
7FFFF0
7FFFF0
600030
600030
600070
600060
700060
3000E0
3001C0
380380
1E0700
0FFE00
03F800
ENDCHAR
STARTCHAR uni0190
ENCODING 400
SWIDTH 870 0
DWIDTH 35 0
BBX 18 24 2 0
BITMAP
0FE000
3FFC00
781E00
600700
C00200
C00000
C00000
C00000
E00000
780000
3FC000
1FC000
380000
600000
C00000
C00000
C00000
C00000
C00000
E00180
7003C0
3C0F80
1FFF00
07F800
ENDCHAR
STARTCHAR uni0191
ENCODING 401
SWIDTH 870 0
DWIDTH 35 0
BBX 24 32 0 -8
BITMAP
00FFFE
00FFFF
00C000
00C000
00C000
00C000
00C000
00C000
00C000
00C000
00C000
00FFC0
00FFC0
00C000
00C000
00C000
00C000
00C000
00C000
00C000
00C000
00C000
00C000
00C000
00C000
00C000
00C000
00C000
018000
078000
FF0000
FC0000
ENDCHAR
STARTCHAR florin
ENCODING 402
SWIDTH 870 0
DWIDTH 35 0
BBX 18 33 1 -8
BITMAP
001F80
003FC0
007000
00C000
00C000
00C000
00C000
1FFFC0
1FFF80
00C000
00C000
00C000
00C000
00C000
00C000
00C000
00C000
00C000
00C000
00C000
00C000
00C000
00C000
00C000
00C000
00C000
00C000
00C000
01C000
018000
070000
FF0000
FC0000
ENDCHAR
STARTCHAR uni0193
ENCODING 403
SWIDTH 870 0
DWIDTH 35 0
BBX 23 26 0 0
BITMAP
00003E
00007E
03E0E0
0FF8C0
1C1F80
380780
300380
600380
600180
C00180
C00180
C00000
C00000
C00000
C00000
C03FE0
C03FE0
C00060
6000E0
6000C0
7001C0
300180
180700
1E0F00
0FFC00
03F000
ENDCHAR
STARTCHAR uni0194
ENCODING 404
SWIDTH 870 0
DWIDTH 35 0
BBX 19 24 2 0
BITMAP
C000C0
E000E0
7001C0
700380
380380
1C0700
0C0E00
0E0E00
071C00
03B800
03B800
01F000
00E000
00E000
01F000
01B000
013000
031800
031800
031800
031800
039800
01F800
01F000
ENDCHAR
STARTCHAR uni0195
ENCODING 405
SWIDTH 870 0
DWIDTH 35 0
BBX 23 27 0 -1
BITMAP
C00000
C00000
C00000
C00000
C00000
C00000
C00000
C00000
CF800C
FFC00C
F8E00C
F0700E
E03006
C03006
C03006
C03006
C03006
C03006
C03006
C03006
C0300E
C0300C
C0301C
C01818
C01C38
C00FF0
0003C0
ENDCHAR
STARTCHAR uni0196
ENCODING 406
SWIDTH 870 0
DWIDTH 35 0
BBX 17 24 3 0
BITMAP
FF8000
FF8000
018000
018000
018000
018000
018000
018000
018000
018000
018000
018000
018000
018000
018000
018000
018000
018000
018000
018000
00C000
00E000
007F80
001F80
ENDCHAR
STARTCHAR uni0197
ENCODING 407
SWIDTH 870 0
DWIDTH 35 0
BBX 16 24 4 0
BITMAP
FFFF
FFFF
0380
0380
0380
0180
0180
0180
0180
0180
0180
7FFE
7FFE
0180
0180
0180
0180
0180
0180
0180
0180
0180
FFFF
FFFF
ENDCHAR
STARTCHAR uni0198
ENCODING 408
SWIDTH 870 0
DWIDTH 35 0
BBX 22 24 1 0
BITMAP
C003E0
C00FF8
C01E3C
C0381C
C07008
C0E000
C1C000
C38000
C70000
CF0000
DF0000
FF8000
F1C000
E0E000
C07000
C03000
C03800
C01800
C01C00
C00C00
C00C00
C00E00
C007C0
C007C0
ENDCHAR
STARTCHAR uni0199
ENCODING 409
SWIDTH 870 0
DWIDTH 35 0
BBX 16 26 4 0
BITMAP
1FC0
3FC0
7000
E000
C000
C000
C000
C000
C078
C0F8
C1E0
C3C0
C780
CF00
DE00
F800
FC00
EE00
C700
C380
C1C0
C0E0
C070
C038
C01F
C00E
ENDCHAR
STARTCHAR uni019A
ENCODING 410
SWIDTH 870 0
DWIDTH 35 0
BBX 18 25 3 0
BITMAP
7FC000
7FC000
01C000
01C000
01C000
00C000
00C000
00C000
00C000
00C000
00C000
00C000
3FFF00
3FFF00
00C000
00C000
00C000
00C000
00C000
00C000
00C000
00C000
00C000
FFFFC0
FFFFC0
ENDCHAR
STARTCHAR uni019B
ENCODING 411
SWIDTH 870 0
DWIDTH 35 0
BBX 19 26 2 0
BITMAP
1E1800
1F3800
137000
03E000
03C000
07C000
0FC000
1EE000
1CE000
18F000
01F000
01F800
039800
039C00
070C00
060E00
0E0600
0C0700
1C0700
180300
380380
300180
7001C0
6000C0
E000E0
C00060
ENDCHAR
STARTCHAR uni019C
ENCODING 412
SWIDTH 870 0
DWIDTH 35 0
BBX 21 24 1 0
BITMAP
C06018
C06018
C06018
C06018
C06018
C06018
C06018
C06018
C06018
C06018
C06018
C06018
C06018
C06018
C06018
C06018
C06018
C06018
C06018
C06018
C0E078
63F0F8
7FBFF8
1E1F98
ENDCHAR
STARTCHAR uni019D
ENCODING 413
SWIDTH 870 0
DWIDTH 35 0
BBX 23 32 0 -8
BITMAP
00E006
00E006
00F006
00F806
00F806
00FC06
00DC06
00DE06
00CE06
00CF06
00C706
00C786
00C3C6
00C1C6
00C1E6
00C0E6
00C0F6
00C076
00C07E
00C03E
00C03E
00C01E
00C00E
00C00E
00C000
00C000
00C000
00C000
018000
078000
FF0000
FC0000
ENDCHAR
STARTCHAR uni019E
ENCODING 414
SWIDTH 870 0
DWIDTH 35 0
BBX 15 27 4 -9
BITMAP
C7E0
CFF8
FC1C
F00C
E006
C006
C006
C006
C006
C006
C006
C006
C006
C006
C006
C006
C006
C006
0006
0006
0006
0006
0006
0006
0006
0006
0006
ENDCHAR
STARTCHAR uni019F
ENCODING 415
SWIDTH 870 0
DWIDTH 34 0
BBX 20 24 1 0
BITMAP
01F800
07FE00
0F0700
1C0380
3801C0
7000C0
600060
600060
E00070
C00030
C00030
FFFFF0
FFFFF0
C00030
C00030
C00030
600060
600060
3000E0
3801C0
1C03C0
0F0780
07FF00
01F800
ENDCHAR
STARTCHAR Ohorn
ENCODING 416
SWIDTH 870 0
DWIDTH 34 0
BBX 22 24 0 0
BITMAP
01F80C
07FE0C
0F070C
1C039C
3801D8
3000F0
600060
600060
E00030
C00030
C00030
C00030
C00030
C00030
C00030
C00070
600060
600060
3000C0
3801C0
1C0380
0F0F00
07FE00
01F800
ENDCHAR
STARTCHAR ohorn
ENCODING 417
SWIDTH 870 0
DWIDTH 35 0
BBX 21 19 1 0
BITMAP
000018
03F018
0FFE18
1E0F18
3803B0
7001E0
6000C0
E000E0
C00060
C00060
C00060
C00060
E000E0
6000C0
7001C0
380380
1E0F00
0FFE00
03F800
ENDCHAR
STARTCHAR uni01A2
ENCODING 418
SWIDTH 870 0
DWIDTH 35 0
BBX 21 33 1 -9
BITMAP
07C018
0FE038
1C7078
3818F8
301FF8
600FD8
600F18
600C18
C00618
C00618
C00618
C00618
C00618
C00618
C00618
C00618
600E18
600C18
600C18
301818
383818
1C7018
0FE018
07C018
000018
000018
000018
000018
000018
000018
000018
000018
000018
ENDCHAR
STARTCHAR uni01A3
ENCODING 419
SWIDTH 870 0
DWIDTH 35 0
BBX 21 27 1 -9
BITMAP
07C018
0FF038
3C7878
301DF8
700FD8
600F18
E00E18
C00618
C00618
C00618
C00618
C00618
C00618
600C18
600C18
301818
383818
1FF018
07C018
000018
000018
000018
000018
000018
000018
000018
000018
ENDCHAR
STARTCHAR uni01A4
ENCODING 420
SWIDTH 870 0
DWIDTH 34 0
BBX 21 24 1 0
BITMAP
1FFF00
3FFFC0
7300E0
E30070
C30030
C30018
C30018
C30018
C30018
C30018
030030
030070
0301E0
03FFC0
03FF00
030000
030000
030000
030000
030000
030000
030000
030000
030000
ENDCHAR
STARTCHAR uni01A5
ENCODING 421
SWIDTH 870 0
DWIDTH 34 0
BBX 18 35 2 -9
BITMAP
0FC000
3FC000
700000
E00000
C00000
C00000
C00000
C00000
C3F000
CFFC00
DE0E00
F80700
F00380
E00180
C000C0
C000C0
C000C0
C000C0
C000C0
C001C0
E00180
F00380
F80780
FC1F00
DFFE00
C3F000
C00000
C00000
C00000
C00000
C00000
C00000
C00000
C00000
C00000
ENDCHAR
STARTCHAR uni01A6
ENCODING 422
SWIDTH 870 0
DWIDTH 35 0
BBX 24 29 0 -5
BITMAP
FFC000
FFC000
0C0000
0C0000
0C0000
0FFE00
0FFF80
0C01C0
0C00E0
0C0070
0C0030
0C0030
0C0030
0C0070
0C00E0
0C03C0
0DFF80
0DFE00
0C0F00
0C0780
0C03C0
0C01C0
FFC0E0
FFC060
000070
000038
000018
00001F
00000F
ENDCHAR
STARTCHAR uni01A7
ENCODING 423
SWIDTH 870 0
DWIDTH 34 0
BBX 17 25 3 0
BITMAP
03F000
0FFC00
3C1E00
300600
700700
600300
600300
600300
000700
000E00
007E00
07FC00
1FF000
7F0000
700000
E00000
C00180
C00180
C00180
C00380
E00380
700700
381E00
1FFC00
07F000
ENDCHAR
STARTCHAR uni01A8
ENCODING 424
SWIDTH 870 0
DWIDTH 35 0
BBX 16 19 3 0
BITMAP
07F0
1FFC
3C1E
7007
7003
6007
600F
01FE
1FFC
3FF0
7E00
E000
C003
C003
C003
6003
781E
3FFC
07E0
ENDCHAR
STARTCHAR uni01A9
ENCODING 425
SWIDTH 870 0
DWIDTH 35 0
BBX 19 24 2 0
BITMAP
7FFF80
FFFF80
700000
780000
380000
1C0000
1E0000
0E0000
070000
038000
038000
01C000
01C000
038000
038000
070000
0E0000
0E0000
1C0000
380000
780000
700000
FFFFC0
7FFFE0
ENDCHAR
STARTCHAR uni01AA
ENCODING 426
SWIDTH 870 0
DWIDTH 35 0
BBX 18 30 3 -4
BITMAP
3C0000
7F0000
E78000
C38000
C3C000
E7C000
7FC000
3EC000
00C000
00C000
00C000
00C000
00C000
00C000
00C000
00C000
00C000
00C000
00C000
00C000
00C000
00C000
00C000
00C000
00C000
00C000
006000
007000
003FC0
000F80
ENDCHAR
STARTCHAR uni01AB
ENCODING 427
SWIDTH 870 0
DWIDTH 35 0
BBX 13 33 5 -8
BITMAP
0600
0600
0600
0600
0600
0600
0600
FFF8
FFF8
0600
0600
0600
0600
0600
0600
0600
0600
0600
0600
0600
0600
0600
0380
01F8
00F8
0018
0018
0018
0030
0030
0070
07E0
0780
ENDCHAR
STARTCHAR uni01AC
ENCODING 428
SWIDTH 870 0
DWIDTH 35 0
BBX 22 24 0 0
BITMAP
1FFFFC
3FFFFC
701800
E01800
C01800
C01800
C01800
C01800
C01800
801800
001800
001800
001800
001800
001800
001800
001800
001800
001800
001800
001800
001800
001800
001800
ENDCHAR
STARTCHAR uni01AD
ENCODING 429
SWIDTH 870 0
DWIDTH 35 0
BBX 15 26 4 0
BITMAP
00FC
01FE
0380
0600
0600
0600
0600
0600
FFFC
FFFC
0600
0600
0600
0600
0600
0600
0600
0600
0600
0600
0600
0600
0600
0380
01FC
00FC
ENDCHAR
STARTCHAR uni01AE
ENCODING 430
SWIDTH 870 0
DWIDTH 35 0
BBX 20 33 1 -9
BITMAP
FFFFF0
FFFFF0
006000
006000
006000
006000
006000
006000
006000
006000
006000
006000
006000
006000
006000
006000
006000
006000
006000
006000
006000
006000
006000
006000
006000
006000
006000
006000
006000
003000
003800
001FE0
0007E0
ENDCHAR
STARTCHAR Uhorn
ENCODING 431
SWIDTH 870 0
DWIDTH 35 0
BBX 22 24 1 0
BITMAP
C0018C
C0019C
C0019C
C0019C
C001B8
C001F0
C00180
C00180
C00180
C00180
C00180
C00180
C00180
C00180
C00180
C00180
C00180
C00180
E00300
600300
700600
3C1E00
1FF800
03F000
ENDCHAR
STARTCHAR uhorn
ENCODING 432
SWIDTH 870 0
DWIDTH 35 0
BBX 20 19 2 0
BITMAP
C00030
C00670
C00670
C00670
C006E0
C007E0
C00700
C00600
C00600
C00600
C00600
C00600
C00600
C00600
C00E00
C01E00
70FE00
7FE600
1F8600
ENDCHAR
STARTCHAR uni01B1
ENCODING 433
SWIDTH 870 0
DWIDTH 34 0
BBX 17 24 3 0
BITMAP
C00180
C00380
600300
600300
600300
600300
600300
600300
600300
600180
C00180
C00180
C00180
C00180
C00180
C00180
C00180
C00180
C00380
E00300
700700
781E00
3FFC00
07F000
ENDCHAR
STARTCHAR uni01B2
ENCODING 434
SWIDTH 870 0
DWIDTH 34 0
BBX 18 24 2 0
BITMAP
C00180
C00180
C00180
C00180
C001C0
C000C0
C000C0
C000C0
C000C0
C000C0
C000C0
C000C0
C000C0
C000C0
C00180
C00180
C00380
C00300
E00700
600600
700C00
3C3C00
1FF800
03E000
ENDCHAR
STARTCHAR uni01B3
ENCODING 435
SWIDTH 870 0
DWIDTH 35 0
BBX 21 24 1 0
BITMAP
0F0018
3F8018
798038
71C030
E0E070
406060
0070E0
0030C0
0039C0
001980
001F80
000F00
000600
000600
000600
000600
000600
000600
000600
000600
000600
000600
000600
000600
ENDCHAR
STARTCHAR uni01B4
ENCODING 436
SWIDTH 870 0
DWIDTH 35 0
BBX 23 31 0 -8
BITMAP
000078
0000FE
00018E
000384
000300
E00300
600700
600600
700600
300C00
380C00
181C00
181800
1C1800
0C3800
0E3000
067000
066000
076000
03E000
03C000
01C000
01C000
018000
038000
030000
030000
070000
1E0000
1E0000
1C0000
ENDCHAR
STARTCHAR uni01B5
ENCODING 437
SWIDTH 870 0
DWIDTH 35 0
BBX 19 24 2 0
BITMAP
7FFF80
7FFF80
000380
000700
000E00
000E00
001C00
003800
003800
007000
006000
3FFF00
3FFF00
038000
070000
070000
0E0000
1E0000
1C0000
380000
780000
700000
FFFFC0
7FFFE0
ENDCHAR
STARTCHAR uni01B6
ENCODING 438
SWIDTH 870 0
DWIDTH 35 0
BBX 17 18 3 0
BITMAP
FFFF00
FFFF00
000E00
001E00
003C00
003800
007000
00E000
7FFE00
7FFE00
070000
0F0000
0E0000
1C0000
380000
700000
FFFF80
FFFF80
ENDCHAR
STARTCHAR uni01B7
ENCODING 439
SWIDTH 870 0
DWIDTH 35 0
BBX 16 24 4 0
BITMAP
FFFF
FFFF
000F
001E
003C
0078
00F0
01E0
03C0
03E0
01F8
001C
000E
0006
0003
0003
0003
0003
0003
8006
E00E
F83C
3FF8
0FE0
ENDCHAR
STARTCHAR uni01B8
ENCODING 440
SWIDTH 870 0
DWIDTH 35 0
BBX 16 24 3 0
BITMAP
FFFF
FFFF
F000
7800
3C00
1E00
0F00
0700
03C0
07C0
1F80
3800
7000
E000
C000
C000
C000
C000
C000
6002
7007
3C1F
1FFC
07F0
ENDCHAR
STARTCHAR uni01B9
ENCODING 441
SWIDTH 870 0
DWIDTH 35 0
BBX 16 25 3 -7
BITMAP
FFFF
FFFF
F000
7800
3800
1C00
0E00
0700
0380
03C0
0FC0
3C00
7000
6000
E000
C000
C000
C000
C000
C000
6002
7007
3C1F
1FFC
07F0
ENDCHAR
STARTCHAR uni01BA
ENCODING 442
SWIDTH 870 0
DWIDTH 35 0
BBX 17 25 3 -7
BITMAP
FFFF00
FFFF00
000F00
000E00
001C00
003800
007000
00E000
01C000
03F800
03FC00
000E00
000600
000600
000E00
1FFC00
3FF800
7F8000
700180
600180
600180
300180
3C0F00
1FFE00
03F000
ENDCHAR
STARTCHAR uni01BB
ENCODING 443
SWIDTH 870 0
DWIDTH 34 0
BBX 17 24 3 0
BITMAP
03E000
0FF800
1C1C00
380E00
700600
700300
600300
000300
000300
000700
000600
001E00
003C00
1FFF00
1FFF80
03C000
078000
0F0000
1E0000
7C0000
F80300
F00300
FFFF00
FFFF00
ENDCHAR
STARTCHAR uni01BC
ENCODING 444
SWIDTH 870 0
DWIDTH 35 0
BBX 21 24 1 0
BITMAP
FFFFE0
FFFFF0
0C0000
0C0000
0C0000
0C0000
0C0000
0C0000
0C0000
0CFE00
0FFF80
0F81E0
040070
000030
000018
000018
000018
000018
000018
380038
3C0070
1F01E0
07FFC0
00FF00
ENDCHAR
STARTCHAR uni01BD
ENCODING 445
SWIDTH 870 0
DWIDTH 35 0
BBX 19 25 2 0
BITMAP
FFFF80
FFFFC0
060000
060000
060000
060000
060000
060000
060000
060000
06FC00
07FF00
07C380
0401C0
0000C0
000060
000060
000060
000060
000060
1800E0
1C00C0
0F03C0
07FF80
01FE00
ENDCHAR
STARTCHAR uni01BE
ENCODING 446
SWIDTH 870 0
DWIDTH 35 0
BBX 19 25 2 0
BITMAP
060000
060000
060000
060000
060000
060000
060000
FFFC00
FFFC00
060000
060000
060000
060000
070000
03FC00
03FF80
00FFC0
0000E0
180060
180060
180060
1800C0
0F03C0
07FF80
00FE00
ENDCHAR
STARTCHAR uni01BF
ENCODING 447
SWIDTH 870 0
DWIDTH 34 0
BBX 14 27 4 -9
BITMAP
C3E0
CFF8
DE18
F80C
F00C
E00C
C00C
C00C
C01C
C018
C030
C070
C0E0
C1C0
C380
C700
DE00
FC00
F800
F000
C000
C000
C000
C000
C000
C000
C000
ENDCHAR
STARTCHAR uni01C0
ENCODING 448
SWIDTH 870 0
DWIDTH 35 0
BBX 2 32 10 -6
BITMAP
C0
C0
C0
C0
C0
C0
C0
C0
C0
C0
C0
C0
C0
C0
C0
C0
C0
C0
C0
C0
C0
C0
C0
C0
C0
C0
C0
C0
C0
C0
C0
C0
ENDCHAR
STARTCHAR uni01C1
ENCODING 449
SWIDTH 870 0
DWIDTH 35 0
BBX 9 32 7 -6
BITMAP
C180
C180
C180
C180
C180
C180
C180
C180
C180
C180
C180
C180
C180
C180
C180
C180
C180
C180
C180
C180
C180
C180
C180
C180
C180
C180
C180
C180
C180
C180
C180
C180
ENDCHAR
STARTCHAR uni01C2
ENCODING 450
SWIDTH 870 0
DWIDTH 35 0
BBX 18 23 3 0
BITMAP
00C000
00C000
00C000
00C000
00C000
00C000
00C000
FFFFC0
FFFFC0
00C000
00C000
00C000
00C000
FFFFC0
FFFFC0
00C000
00C000
00C000
00C000
00C000
00C000
00C000
00C000
ENDCHAR
STARTCHAR uni01C3
ENCODING 451
SWIDTH 870 0
DWIDTH 35 0
BBX 5 26 9 0
BITMAP
70
F0
F0
F0
70
70
70
70
70
70
70
70
70
70
70
70
70
20
00
00
00
70
F8
F8
F8
70
ENDCHAR
STARTCHAR uni01C4
ENCODING 452
SWIDTH 870 0
DWIDTH 35 0
BBX 21 32 1 0
BITMAP
006018
007838
003CF0
001FE0
000FC0
000780
000200
000000
FE3FE0
FF3FF0
C380E0
C1C0E0
C0C0C0
C0C1C0
C061C0
C061C0
C06380
C06380
C06380
C06700
C06700
C06700
C06600
C06E00
C06E00
C0CC00
C0DC00
C0DC00
C19C00
C3B800
FF3FF8
FE3FF8
ENDCHAR
STARTCHAR uni01C5
ENCODING 453
SWIDTH 870 0
DWIDTH 35 0
BBX 23 27 0 0
BITMAP
001806
001C1E
001E3C
FE07F8
FF03F0
C381C0
C1C080
C0C000
C0C000
C07FF0
C07FF0
C06070
C060E0
C060E0
C061C0
C061C0
C063C0
C06380
C06380
C06700
C0C700
C0CF00
C0CE00
C1DE00
C39C00
FF1FF8
FE3FFC
ENDCHAR
STARTCHAR uni01C6
ENCODING 454
SWIDTH 870 0
DWIDTH 35 0
BBX 22 27 0 0
BITMAP
00300C
00FC1C
00DE38
00CFF0
00C7E0
00C1C0
00C080
00C000
1EC000
3FFFF0
3FFFF0
73C070
61C0E0
E1C0E0
C0C1C0
C0C1C0
C0C3C0
C0C380
C0C380
C0C700
C0C700
C0CF00
61CE00
61DE00
33DC00
3FDFF8
1EFFFC
ENDCHAR
STARTCHAR uni01C7
ENCODING 455
SWIDTH 870 0
DWIDTH 34 0
BBX 21 25 1 0
BITMAP
0001F0
C003F8
C003F8
C00018
C00018
C00018
C00018
C00018
C00018
C00018
C00018
C00018
C00018
C00018
C06018
C06018
C06018
C06018
C06018
C06018
C06038
C07030
C03870
FFFFE0
FFCF80
ENDCHAR
STARTCHAR uni01C8
ENCODING 456
SWIDTH 870 0
DWIDTH 34 0
BBX 17 33 3 -8
BITMAP
000300
C00780
C00780
C00700
C00000
C00000
C00000
C03F80
C03F80
C00180
C00180
C00180
C00180
C00180
C00180
C00180
C00180
C00180
C00180
C00180
C00180
C00180
C00180
FFF980
FFF980
000180
000180
000180
000380
000300
000F00
01FE00
01F800
ENDCHAR
STARTCHAR uni01C9
ENCODING 457
SWIDTH 870 0
DWIDTH 35 0
BBX 19 33 2 -8
BITMAP
FF80C0
FF81E0
0181E0
0181C0
018000
018000
018000
018FE0
018FE0
018060
018060
018060
018060
018060
018060
018060
018060
018060
018060
018060
018060
018060
018060
FFFE60
FFFE60
000060
000060
000060
0000E0
0000C0
0003C0
007F80
007E00
ENDCHAR
STARTCHAR uni01CA
ENCODING 458
SWIDTH 870 0
DWIDTH 35 0
BBX 22 25 1 0
BITMAP
0000F8
E181FC
E181FC
E1800C
E1800C
F1800C
F1800C
F1800C
F9800C
F9800C
D9800C
D9800C
DD800C
DD800C
CDE00C
CFE00C
CFE00C
C7E00C
C7E00C
C7E00C
C7E01C
C3F018
C3B830
C3BFF0
C18FC0
ENDCHAR
STARTCHAR uni01CB
ENCODING 459
SWIDTH 870 0
DWIDTH 35 0
BBX 20 33 2 -8
BITMAP
000060
E180F0
E180F0
E180E0
E18000
F18000
F18000
F18FE0
F98FE0
F98060
D98060
D98060
DD8060
DD8060
CD8060
CD8060
CF8060
C78060
C78060
C78060
C78060
C38060
C38060
C38060
C18060
000060
000060
000060
0000E0
0000C0
0003C0
007F80
007E00
ENDCHAR
STARTCHAR uni01CC
ENCODING 460
SWIDTH 870 0
DWIDTH 34 0
BBX 20 33 1 -8
BITMAP
000060
0000F0
0000F0
0000E0
000000
000000
000000
CFCFF0
DFEFF0
F83030
F01830
E01830
C01830
C01830
C01830
C01830
C01830
C01830
C01830
C01830
C01830
C01830
C01830
C01830
C01830
000030
000030
000030
000070
000060
0001E0
003FC0
003F00
ENDCHAR
STARTCHAR uni01CD
ENCODING 461
SWIDTH 870 0
DWIDTH 35 0
BBX 21 32 1 0
BITMAP
060180
0F0780
078F00
03DE00
00F800
007000
002000
000000
007000
007000
00D800
00D800
01DC00
018C00
038C00
030E00
030600
070700
060300
0E0300
0E0380
0C0180
1FFFC0
1FFFC0
3800C0
3800E0
300060
700070
600070
E00030
E00038
C00018
ENDCHAR
STARTCHAR uni01CE
ENCODING 462
SWIDTH 870 0
DWIDTH 34 0
BBX 16 27 3 0
BITMAP
1806
1E0E
0F1C
07F8
03F0
00E0
0080
0000
0000
07F0
3FFC
3E0E
0007
0003
0003
0003
07FF
1FFF
7C03
7003
C003
C003
C007
E01F
707F
3FF3
1FC3
ENDCHAR
STARTCHAR uni01CF
ENCODING 463
SWIDTH 870 0
DWIDTH 35 0
BBX 16 32 4 0
BITMAP
7018
783C
3C78
1FE0
0FC0
0380
0100
0000
FFFF
FFFF
0180
0180
0180
0180
0180
0180
0180
0180
0180
0180
0180
0180
0180
0180
0180
0180
0180
0180
0180
0180
FFFF
FFFF
ENDCHAR
STARTCHAR uni01D0
ENCODING 464
SWIDTH 870 0
DWIDTH 35 0
BBX 18 27 3 0
BITMAP
380C00
3C1C00
1E3C00
0F7000
07E000
01C000
008000
000000
000000
7FC000
7FC000
00C000
00C000
00C000
00C000
00C000
00C000
00C000
00C000
00C000
00C000
00C000
00C000
00C000
00C000
FFFFC0
FFFFC0
ENDCHAR
STARTCHAR uni01D1
ENCODING 465
SWIDTH 870 0
DWIDTH 34 0
BBX 20 32 1 0
BITMAP
060180
078380
03C780
01FE00
00FC00
003800
001000
000000
01F800
07FE00
0E0700
1C0380
3801C0
7000C0
600060
600060
E00030
C00030
C00030
C00030
C00030
C00030
C00030
C00070
600060
600060
3000E0
3801C0
1C03C0
0F0780
07FF00
01F800
ENDCHAR
STARTCHAR uni01D2
ENCODING 466
SWIDTH 870 0
DWIDTH 34 0
BBX 19 27 2 0
BITMAP
0C0300
0E0700
079E00
03FC00
01F800
00E000
004000
000000
000000
03F800
0FFE00
1E0F00
380380
7001C0
6000C0
E000E0
C00060
C00060
C00060
C00060
E000E0
6000C0
7001C0
380380
1E0F00
0FFE00
03F800
ENDCHAR
STARTCHAR uni01D3
ENCODING 467
SWIDTH 870 0
DWIDTH 35 0
BBX 17 32 3 0
BITMAP
300C00
3C1C00
1E3C00
0FF000
07E000
01C000
010000
C00180
C00180
C00180
C00180
C00180
C00180
C00180
C00180
C00180
C00180
C00180
C00180
C00180
C00180
C00180
C00180
C00180
C00180
C00180
E00380
600300
700700
3C1E00
1FFC00
07F000
ENDCHAR
STARTCHAR uni01D4
ENCODING 468
SWIDTH 870 0
DWIDTH 35 0
BBX 15 27 4 0
BITMAP
300C
3C1C
1E38
0FF0
07E0
01C0
0080
0000
C006
C006
C006
C006
C006
C006
C006
C006
C006
C006
C006
C006
C006
C006
C00E
C03E
70FE
7FE6
1F86
ENDCHAR
STARTCHAR uni01D5
ENCODING 469
SWIDTH 870 0
DWIDTH 35 0
BBX 17 33 3 0
BITMAP
3FFF00
3FFF00
1C0C00
3E1E00
3E1E00
1C0C00
000000
000000
C00180
C00180
C00180
C00180
C00180
C00180
C00180
C00180
C00180
C00180
C00180
C00180
C00180
C00180
C00180
C00180
C00180
C00180
C00180
E00380
600300
700700
3C1E00
1FFC00
07F000
ENDCHAR
STARTCHAR uni01D6
ENCODING 470
SWIDTH 870 0
DWIDTH 34 0
BBX 14 29 4 0
BITMAP
7FFC
7FFC
0000
0000
3818
3C3C
3C3C
1818
0000
0000
C00C
C00C
C00C
C00C
C00C
C00C
C00C
C00C
C00C
C00C
C00C
C00C
C00C
C00C
C01C
C03C
60FC
7FE4
1F8C
ENDCHAR
STARTCHAR uni01D7
ENCODING 471
SWIDTH 870 0
DWIDTH 35 0
BBX 17 36 3 0
BITMAP
000600
001E00
003C00
007800
00F000
01E000
398C00
3C1E00
3C1E00
1C0C00
000000
C00180
C00180
C00180
C00180
C00180
C00180
C00180
C00180
C00180
C00180
C00180
C00180
C00180
C00180
C00180
C00180
C00180
C00180
C00180
E00380
600300
700700
3C1E00
1FFC00
07F000
ENDCHAR
STARTCHAR uni01D8
ENCODING 472
SWIDTH 870 0
DWIDTH 35 0
BBX 15 32 4 0
BITMAP
0006
000E
003C
0078
00F0
01E0
0180
7018
783C
783C
3818
0000
0000
C006
C006
C006
C006
C006
C006
C006
C006
C006
C006
C006
C006
C006
C006
C00E
E03E
70FE
7FF6
1F86
ENDCHAR
STARTCHAR uni01D9
ENCODING 473
SWIDTH 870 0
DWIDTH 35 0
BBX 17 35 3 0
BITMAP
300600
3C1E00
1E3C00
0F7800
07E000
39CC00
3C9E00
3C1E00
1C0C00
000000
C00180
C00180
C00180
C00180
C00180
C00180
C00180
C00180
C00180
C00180
C00180
C00180
C00180
C00180
C00180
C00180
C00180
C00180
C00180
E00380
600300
700700
3C1E00
1FFC00
07F000
ENDCHAR
STARTCHAR uni01DA
ENCODING 474
SWIDTH 870 0
DWIDTH 34 0
BBX 14 31 4 0
BITMAP
300C
3C1C
1E78
0FF0
07E0
03C0
3918
3C3C
3C3C
1818
0000
0000
C00C
C00C
C00C
C00C
C00C
C00C
C00C
C00C
C00C
C00C
C00C
C00C
C00C
C00C
C01C
C03C
60FC
7FE4
1F0C
ENDCHAR
STARTCHAR uni01DB
ENCODING 475
SWIDTH 870 0
DWIDTH 35 0
BBX 17 37 3 0
BITMAP
200000
300000
3C0000
1E0000
0F0000
078000
03C000
388C00
3C1E00
3C1E00
1C0C00
000000
C00180
C00180
C00180
C00180
C00180
C00180
C00180
C00180
C00180
C00180
C00180
C00180
C00180
C00180
C00180
C00180
C00180
C00180
C00180
E00380
600300
700700
3C1E00
1FFC00
07F000
ENDCHAR
STARTCHAR uni01DC
ENCODING 476
SWIDTH 870 0
DWIDTH 34 0
BBX 14 31 4 0
BITMAP
3000
3C00
1E00
0F00
0780
03C0
3898
3C3C
3C3C
1818
0000
0000
C00C
C00C
C00C
C00C
C00C
C00C
C00C
C00C
C00C
C00C
C00C
C00C
C00C
C00C
C01C
C03C
60FC
7FE4
1F0C
ENDCHAR
STARTCHAR uni01DD
ENCODING 477
SWIDTH 870 0
DWIDTH 35 0
BBX 19 19 2 0
BITMAP
03F000
1FFE00
7C0F00
F00380
E001C0
C001C0
0000E0
0000E0
000060
000060
7FFFE0
7FFFE0
700060
7000E0
3000C0
380180
1E0700
0FFE00
03F800
ENDCHAR
STARTCHAR uni01DE
ENCODING 478
SWIDTH 870 0
DWIDTH 35 0
BBX 21 33 1 0
BITMAP
0FFFC0
0FFFC0
000000
070300
078780
078780
030300
000000
000000
007000
007000
00F800
00D800
01DC00
01CC00
038C00
038E00
030600
070700
070700
0E0300
0E0380
0C0180
1FFFC0
1FFFC0
3800C0
3800E0
300060
700070
600070
E00030
E00038
C00018
ENDCHAR
STARTCHAR uni01DF
ENCODING 479
SWIDTH 870 0
DWIDTH 35 0
BBX 17 29 3 0
BITMAP
3FFE00
3FFF00
000000
000000
1C0600
1E0F00
1E0F00
0C0600
000000
000000
000000
07F800
3FFE00
3E0700
000380
000180
000180
000180
03FF80
1FFF80
7C0380
700180
C00180
C00180
C00380
E00F80
703F80
3FFD80
0FE180
ENDCHAR
STARTCHAR uni01E0
ENCODING 480
SWIDTH 870 0
DWIDTH 35 0
BBX 21 33 1 0
BITMAP
0FFFC0
0FFFC0
000000
003000
007800
007800
007000
000000
000000
007000
007000
00F800
00D800
01DC00
01CC00
038C00
038E00
030600
070700
070300
0E0300
0E0180
0C0180
1FFFC0
1FFFC0
3800C0
3800E0
300060
700070
600070
E00030
E00038
C00018
ENDCHAR
STARTCHAR uni01E1
ENCODING 481
SWIDTH 870 0
DWIDTH 35 0
BBX 17 29 3 0
BITMAP
3FFE00
3FFF00
000000
000000
006000
00F000
00F000
006000
000000
000000
000000
03F800
1FFE00
1F0700
000380
000180
000180
000180
03FF80
1FFF80
7C0380
700180
C00180
C00180
C00380
E00F80
703F80
3FFD80
0FE180
ENDCHAR
STARTCHAR uni01E2
ENCODING 482
SWIDTH 870 0
DWIDTH 35 0
BBX 21 28 1 0
BITMAP
01FFF0
03FFF0
000000
000000
03FFF8
03FFF8
033000
033000
073000
073000
063000
063000
0E3000
0E3000
0C3000
1C3FC0
1C3FC0
1C3000
1FF000
3FF000
383000
303000
303000
703000
703000
603000
E03FF8
E03FF8
ENDCHAR
STARTCHAR uni01E3
ENCODING 483
SWIDTH 870 0
DWIDTH 35 0
BBX 24 23 0 0
BITMAP
07FFE0
07FFE0
000000
000000
000000
07C0F0
3FF3F8
3C771C
003E1C
001C0E
001C0E
00180E
0FF806
3FFFFF
703FFF
E03800
C03C00
C03C00
C03C02
E07E07
70FF1E
3FFBFE
0F99F8
ENDCHAR
STARTCHAR uni01E4
ENCODING 484
SWIDTH 870 0
DWIDTH 35 0
BBX 23 24 0 0
BITMAP
01FC60
07FF60
0E07E0
1C01E0
3800E0
3000E0
600060
600060
C00000
C00000
C00000
C00000
C00000
C00FF8
C00FF8
E00018
600038
703FFE
303FFE
3800E0
1C01C0
0F07C0
03FF00
00FC00
ENDCHAR
STARTCHAR uni01E5
ENCODING 485
SWIDTH 870 0
DWIDTH 34 0
BBX 22 25 0 -6
BITMAP
0000C0
007DC0
01FF80
038700
070380
060180
060180
060180
070380
038700
03FF00
00FE00
007C00
01F000
03FE00
0FFF80
1F03E0
3C0070
780030
FFFFFC
FFFFFC
7C0070
3F01F0
0FFFC0
01FE00
ENDCHAR
STARTCHAR Gcaron
ENCODING 486
SWIDTH 870 0
DWIDTH 35 0
BBX 21 32 1 0
BITMAP
060180
070780
07CF80
03FF00
01FE00
00F800
007000
002000
01FC60
07FF60
0E07E0
1C01E0
3800E0
300060
600060
600060
E00000
C00000
C00000
C00000
C00000
C00FF8
C00FF8
E00038
600038
700030
300070
3800E0
1C01C0
0F07C0
03FF00
00FC00
ENDCHAR
STARTCHAR gcaron
ENCODING 487
SWIDTH 870 0
DWIDTH 34 0
BBX 19 33 2 -6
BITMAP
0C0300
0F0700
078E00
03FC00
01F800
007000
002000
000000
000000
01F380
03FF80
071E00
0E0E00
0C0600
0C0600
0C0600
0E0E00
071E00
07FC00
03F800
01F000
03C000
0FF800
3FFF00
7C0780
F000C0
C00060
C00060
C00060
6001C0
3C07C0
1FFF00
03FC00
ENDCHAR
STARTCHAR uni01E8
ENCODING 488
SWIDTH 870 0
DWIDTH 35 0
BBX 18 32 2 0
BITMAP
300C00
3C1C00
1E3C00
0FF000
07E000
01C000
010000
000000
C00380
C00780
C00E00
C01C00
C07800
C0F000
C1E000
C3C000
C70000
CE0000
FF0000
FFC000
F1C000
E0E000
C07000
C03000
C03800
C01800
C01C00
C00C00
C00C00
C00E00
C007C0
C007C0
ENDCHAR
STARTCHAR uni01E9
ENCODING 489
SWIDTH 870 0
DWIDTH 35 0
BBX 16 27 6 0
BITMAP
9C06
DE0E
CF1E
C7F8
C3F0
C0E0
C040
C000
C038
C078
C0F8
C1E0
C3C0
C700
DE00
FC00
FC00
FE00
EE00
C700
C380
C1C0
C0E0
C070
C03E
C01F
C00E
ENDCHAR
STARTCHAR uni01EA
ENCODING 490
SWIDTH 870 0
DWIDTH 35 0
BBX 20 33 2 -9
BITMAP
01F800
07FE00
0F0700
1C0380
3801C0
3000C0
600060
600060
E00060
C00030
C00030
C00030
C00030
C00030
C00030
C00030
E00070
600060
6000E0
7000C0
3801C0
1C0380
1F0F80
0FFF00
03FC00
00F000
00E000
00C000
00C180
00C380
006380
007F00
001E00
ENDCHAR
STARTCHAR uni01EB
ENCODING 491
SWIDTH 870 0
DWIDTH 34 0
BBX 19 27 2 -9
BITMAP
01F000
0FFC00
1E0F00
380380
700180
6000C0
6000C0
C00060
C00060
C00060
C00060
C00060
E000E0
6000C0
7001C0
380380
1E0F80
0FFF00
07FE00
00F000
00E000
00C000
00C180
00C380
006380
007F00
001E00
ENDCHAR
STARTCHAR uni01EC
ENCODING 492
SWIDTH 870 0
DWIDTH 35 0
BBX 20 37 2 -9
BITMAP
1FFF00
1FFF00
000000
000000
01F800
07FE00
0F0700
1C0380
3801C0
3000C0
600060
600060
E00060
C00030
C00030
C00030
C00030
C00030
C00030
C00030
E00070
600060
6000E0
7000C0
3801C0
1C0380
1F0F80
0FFF00
03FC00
00F000
00E000
00C000
00C180
00C380
006380
007F00
001E00
ENDCHAR
STARTCHAR uni01ED
ENCODING 493
SWIDTH 870 0
DWIDTH 34 0
BBX 19 32 2 -9
BITMAP
1FFF00
1FFF00
000000
000000
000000
01F000
0FFC00
1E0F00
380380
700180
6000C0
6000C0
C00060
C00060
C00060
C00060
C00060
E000E0
6000C0
7001C0
380380
1E0F80
0FFF00
07FE00
00F000
00E000
00C000
00C180
00C380
006380
007F00
001E00
ENDCHAR
STARTCHAR uni01EE
ENCODING 494
SWIDTH 870 0
DWIDTH 35 0
BBX 16 32 4 0
BITMAP
300C
783C
3C78
1FF0
07C0
0380
0100
0000
FFFF
FFFF
000F
001E
003C
0070
00E0
01C0
0380
03F0
01F8
001C
000E
0007
0003
0003
0003
0003
0003
8006
E00E
F83C
3FF8
0FE0
ENDCHAR
STARTCHAR uni01EF
ENCODING 495
SWIDTH 870 0
DWIDTH 35 0
BBX 16 34 4 -7
BITMAP
300C
783C
3C78
1EF0
07C0
0380
0100
0000
0000
FFFF
FFFF
000F
001E
001C
0038
0070
00E0
01C0
03C0
03F0
003C
000E
0006
0007
0003
0003
0003
0003
0003
8006
E00E
F83C
3FF8
0FE0
ENDCHAR
STARTCHAR uni01F0
ENCODING 496
SWIDTH 870 0
DWIDTH 35 0
BBX 15 35 4 -8
BITMAP
3804
3C1E
1E3C
0F70
03E0
01C0
0080
0000
0000
1FC0
1FC0
00C0
00C0
00C0
00C0
00C0
00C0
00C0
00C0
00C0
00C0
00C0
00C0
00C0
00C0
00C0
00C0
00C0
00C0
00C0
01C0
0180
0780
FF00
FC00
ENDCHAR
STARTCHAR uni01F1
ENCODING 497
SWIDTH 870 0
DWIDTH 35 0
BBX 21 24 1 0
BITMAP
FE3FE0
FF3FF0
C380E0
C1C0E0
C0C0C0
C0C1C0
C061C0
C061C0
C06380
C06380
C06380
C06700
C06700
C06700
C06600
C06E00
C06E00
C0CC00
C0DC00
C0DC00
C19C00
C3B800
FF3FF8
FE3FF8
ENDCHAR
STARTCHAR uni01F2
ENCODING 498
SWIDTH 870 0
DWIDTH 35 0
BBX 22 24 1 0
BITMAP
FE0000
FF0000
C38000
C1C000
C0C000
C0C000
C07FF0
C07FF0
C06070
C060E0
C060E0
C061C0
C061C0
C063C0
C06380
C06380
C06700
C0E700
C0CF00
C0CE00
C1DE00
C39C00
FF1FF8
FE3FFC
ENDCHAR
STARTCHAR uni01F3
ENCODING 499
SWIDTH 870 0
DWIDTH 35 0
BBX 23 26 0 0
BITMAP
006000
006000
006000
006000
006000
006000
006000
0F6000
1FFFF8
3FFFF8
71E038
60E070
60E070
E0E0E0
C060E0
C061E0
C061C0
C061C0
C06380
C06380
40E780
60E700
60EF00
31EE00
1FEFFC
0F7FFE
ENDCHAR
STARTCHAR uni01F4
ENCODING 500
SWIDTH 870 0
DWIDTH 35 0
BBX 21 31 1 0
BITMAP
000600
000E00
001E00
003800
007000
00E000
00C000
01FC60
07FF60
0E07E0
1C01E0
3800E0
300060
600060
600060
E00000
C00000
C00000
C00000
C00000
C00FF8
C00FF8
E00038
600038
700030
300070
3800E0
1C01C0
0F07C0
03FF00
00FC00
ENDCHAR
STARTCHAR uni01F5
ENCODING 501
SWIDTH 870 0
DWIDTH 34 0
BBX 19 33 2 -6
BITMAP
000380
000780
000F00
001E00
003C00
007000
006000
000000
000000
01F380
03FF80
071E00
0E0E00
0C0600
0C0600
0C0600
0E0E00
071E00
07FC00
03F800
01F000
03C000
0FF800
3FFF00
7C0780
F000C0
C00060
C00060
C00060
6001C0
3C07C0
1FFF00
03FC00
ENDCHAR
STARTCHAR uni01F6
ENCODING 502
SWIDTH 870 0
DWIDTH 35 0
BBX 21 24 1 0
BITMAP
C06000
C06000
C06000
C06000
C06000
C06018
C06018
C06018
C06018
C06018
C06018
FFE018
FFE018
C06018
C06018
C06018
C06018
C06018
C06018
C03018
C03038
C03870
C01FE0
C007C0
ENDCHAR
STARTCHAR uni01F7
ENCODING 503
SWIDTH 870 0
DWIDTH 34 0
BBX 14 24 4 0
BITMAP
C3F0
CFF8
DE18
F80C
F00C
E00C
C00C
C01C
C018
C038
C070
C0E0
C1C0
C380
C700
CF00
DC00
F800
F000
E000
C000
C000
C000
C000
ENDCHAR
STARTCHAR uni01F8
ENCODING 504
SWIDTH 870 0
DWIDTH 35 0
BBX 17 32 3 0
BITMAP
100000
380000
3C0000
1E0000
0F0000
078000
01C000
00C000
E00180
F00180
F00180
F80180
FC0180
DC0180
DE0180
CE0180
C70180
C78180
C38180
C1C180
C1E180
C0E180
C07180
C07980
C03980
C03D80
C01F80
C00F80
C00F80
C00780
C00380
C00380
ENDCHAR
STARTCHAR uni01F9
ENCODING 505
SWIDTH 870 0
DWIDTH 35 0
BBX 15 27 4 0
BITMAP
3000
3C00
1E00
0F00
0780
03C0
0180
0000
0000
C7E0
DFF8
FC1C
F00C
E006
C006
C006
C006
C006
C006
C006
C006
C006
C006
C006
C006
C006
C006
ENDCHAR
STARTCHAR Aringacute
ENCODING 506
SWIDTH 870 0
DWIDTH 35 0
BBX 21 38 1 0
BITMAP
001000
007800
00F000
01E000
03C000
03F000
01F800
039C00
030C00
030C00
030C00
039C00
01F800
00F000
007000
00F000
00F800
01D800
01D800
01CC00
038C00
038E00
070600
070600
060300
0E0300
0E0380
1C0180
1FFF80
1FFFC0
3800C0
3000E0
7000E0
700060
600070
E00030
C00038
C00038
ENDCHAR
STARTCHAR aringacute
ENCODING 507
SWIDTH 870 0
DWIDTH 35 0
BBX 17 34 3 0
BITMAP
001000
007800
00F000
01E000
03C000
070000
06F000
01F800
039C00
030C00
030C00
039C00
01F800
00F000
000000
000000
03F800
1FFE00
1F0700
000380
000180
000180
000180
03FF80
1FFF80
7C0380
700180
C00180
C00180
C00380
E00F80
703F80
3FF980
0FE180
ENDCHAR
STARTCHAR AEacute
ENCODING 508
SWIDTH 870 0
DWIDTH 35 0
BBX 21 32 1 0
BITMAP
0000C0
0001C0
0003C0
000780
000F00
001E00
003C00
001000
03FFF8
03FFF8
033000
033000
073000
073000
063000
063000
0E3000
0E3000
0C3000
1C3FC0
1C3FC0
1C3000
1FF000
3FF000
383000
303000
303000
703000
703000
603000
E03FF8
E03FF8
ENDCHAR
STARTCHAR aeacute
ENCODING 509
SWIDTH 870 0
DWIDTH 35 0
BBX 24 27 0 0
BITMAP
0000E0
0001E0
0003C0
000780
001E00
001C00
001800
000000
000000
07C1F0
3FF3F8
3C7F1C
003E1C
001C0E
001C0E
00180E
0FF806
3FFFFF
703FFF
E03800
C03C00
C03C00
C03C02
607E07
70FF1E
3FFBFE
0F99F8
ENDCHAR
STARTCHAR Oslashacute
ENCODING 510
SWIDTH 870 0
DWIDTH 34 0
BBX 22 33 0 -2
BITMAP
000300
000700
000E00
003C00
007800
00F000
00400C
00FC1C
03FF38
0783F0
0E01E0
1C01E0
1801F0
3803F0
300730
700E38
600C18
601C18
603818
607018
606018
60C018
61C038
338030
330070
3E0060
1E00E0
1E01C0
3F0780
73FF00
E0FC00
E00000
C00000
ENDCHAR
STARTCHAR oslashacute
ENCODING 511
SWIDTH 870 0
DWIDTH 35 0
BBX 21 29 1 -2
BITMAP
000C00
001E00
007800
00F000
01E000
03C000
018000
000000
000030
01FC78
07FFF0
0F07E0
1C03C0
380760
300F60
701E30
603C30
607830
60F030
61E030
63C030
378060
3700E0
1E01C0
3F0380
7FFF00
71FC00
E00000
400000
ENDCHAR
STARTCHAR uni0200
ENCODING 512
SWIDTH 870 0
DWIDTH 35 0
BBX 21 31 1 0
BITMAP
618000
71C000
79E000
1EF000
0F3800
079C00
010C00
007000
007000
00F800
00D800
01DC00
019C00
038C00
038E00
030600
070700
070700
0E0300
0E0380
0C0180
1FFFC0
1FFFC0
3800C0
3800E0
300060
700070
600070
E00030
E00038
C00018
ENDCHAR
STARTCHAR uni0201
ENCODING 513
SWIDTH 870 0
DWIDTH 34 0
BBX 16 27 3 0
BITMAP
C300
E380
F3C0
3CF0
1E78
0F3C
0618
0000
0000
07F0
3FFC
3E0E
0007
0003
0003
0003
07FF
1FFF
7C03
7003
C003
C003
C007
E01F
707F
3FFB
1FC3
ENDCHAR
STARTCHAR uni0202
ENCODING 514
SWIDTH 870 0
DWIDTH 35 0
BBX 21 31 1 0
BITMAP
007800
01FE00
038700
030300
060180
060180
060180
007000
007000
00F800
00D800
01DC00
01CC00
038C00
038E00
030600
070700
060300
0E0300
0E0380
0C0180
1FFFC0
1FFFC0
3800C0
3800E0
300060
700070
600070
E00030
E00038
C00018
ENDCHAR
STARTCHAR uni0203
ENCODING 515
SWIDTH 870 0
DWIDTH 34 0
BBX 16 26 3 0
BITMAP
01E0
07F8
0E1C
0C0C
1806
1806
1806
0000
07F0
3FFC
3E0E
0007
0003
0003
0003
07FF
1FFF
7C03
7003
C003
C003
C007
E01F
707F
3FFB
1FC3
ENDCHAR
STARTCHAR uni0204
ENCODING 516
SWIDTH 870 0
DWIDTH 35 0
BBX 18 31 2 0
BITMAP
430000
F38000
79E000
3CF000
1E7800
073C00
030800
3FFFC0
3FFFC0
300000
300000
300000
300000
300000
300000
300000
300000
300000
3FF000
3FF000
300000
300000
300000
300000
300000
300000
300000
300000
300000
3FFFC0
3FFFC0
ENDCHAR
STARTCHAR uni0205
ENCODING 517
SWIDTH 870 0
DWIDTH 35 0
BBX 20 27 2 0
BITMAP
618000
79C000
3DE000
1E7800
0F3C00
079E00
018C00
000000
03F800
0FFE00
1E0F00
380780
700380
6001C0
E001C0
E001C0
C001C0
FFFFC0
FFFFC0
E00000
600000
600000
300070
3800E0
1E03C0
07FF80
01FC00
ENDCHAR
STARTCHAR uni0206
ENCODING 518
SWIDTH 870 0
DWIDTH 34 0
BBX 16 31 3 0
BITMAP
03C0
0FF0
1C38
1818
300C
300C
300C
FFFF
FFFF
C000
C000
C000
C000
C000
C000
C000
C000
C000
FFC0
FFC0
C000
C000
C000
C000
C000
C000
C000
C000
C000
FFFF
FFFF
ENDCHAR
STARTCHAR uni0207
ENCODING 519
SWIDTH 870 0
DWIDTH 35 0
BBX 20 26 2 0
BITMAP
01F000
03F800
071C00
060C00
0C0600
0C0600
0C0600
03F800
0FFE00
1E0F00
380780
700380
6001C0
E001C0
E001C0
C001C0
FFFFC0
FFFFC0
E00000
600000
600000
300070
3800E0
1E03C0
07FF80
01FC00
ENDCHAR
STARTCHAR uni0208
ENCODING 520
SWIDTH 870 0
DWIDTH 35 0
BBX 19 31 2 0
BITMAP
610000
F3C000
79E000
3CF000
0E7800
073C00
030C00
1FFFE0
1FFFE0
003000
003000
003000
003000
003000
003000
003000
003000
003000
003000
003000
003000
003000
003000
003000
003000
003000
003000
003000
003000
1FFFE0
1FFFE0
ENDCHAR
STARTCHAR uni0209
ENCODING 521
SWIDTH 870 0
DWIDTH 35 0
BBX 18 27 3 0
BITMAP
C30000
F38000
7BC000
3CF000
1E7800
0F3C00
031800
000000
000000
7FC000
7FC000
00C000
00C000
00C000
00C000
00C000
00C000
00C000
00C000
00C000
00C000
00C000
00C000
00C000
00C000
FFFFC0
FFFFC0
ENDCHAR
STARTCHAR uni020A
ENCODING 522
SWIDTH 870 0
DWIDTH 35 0
BBX 16 31 4 0
BITMAP
07C0
0FE0
1C70
1830
3018
3018
3018
FFFF
FFFF
0180
0180
0180
0180
0180
0180
0180
0180
0180
0180
0180
0180
0180
0180
0180
0180
0180
0180
0180
0180
FFFF
FFFF
ENDCHAR
STARTCHAR uni020B
ENCODING 523
SWIDTH 870 0
DWIDTH 35 0
BBX 18 26 3 0
BITMAP
03C000
0FF000
1C3800
181800
300C00
300C00
300C00
000000
7FC000
7FC000
00C000
00C000
00C000
00C000
00C000
00C000
00C000
00C000
00C000
00C000
00C000
00C000
00C000
00C000
FFFFC0
FFFFC0
ENDCHAR
STARTCHAR uni020C
ENCODING 524
SWIDTH 870 0
DWIDTH 34 0
BBX 20 31 1 0
BITMAP
618000
71C000
3DE000
1E7800
0F3C00
079E00
010C00
01F800
07FE00
0E0700
1C0380
3801C0
7000C0
600060
600060
E00030
C00030
C00030
C00030
C00030
C00030
C00030
C00070
600060
600060
3000E0
3801C0
1C03C0
0F0780
07FF00
01F800
ENDCHAR
STARTCHAR uni020D
ENCODING 525
SWIDTH 870 0
DWIDTH 34 0
BBX 19 27 2 0
BITMAP
618000
79C000
3DE000
1E7800
0F3C00
079E00
018C00
000000
000000
03F800
0FFE00
1E0F00
380380
7001C0
6000C0
E000E0
C00060
C00060
C00060
C00060
E000E0
6000C0
7001C0
380380
1E0F00
0FFE00
03F800
ENDCHAR
STARTCHAR uni020E
ENCODING 526
SWIDTH 870 0
DWIDTH 35 0
BBX 20 31 2 0
BITMAP
00F000
03FC00
070E00
060600
0C0300
0C0300
0C0300
01F800
07FE00
0E0700
1C0380
3801C0
7000C0
600060
600060
E00030
C00030
C00030
C00030
C00030
C00030
C00030
C00070
600060
600060
3000E0
3801C0
1C0380
0F0700
07FE00
01F800
ENDCHAR
STARTCHAR uni020F
ENCODING 527
SWIDTH 870 0
DWIDTH 34 0
BBX 19 26 2 0
BITMAP
00F000
03FC00
070E00
060600
0C0300
0C0300
0C0300
000000
03F800
0FFE00
1E0F00
380380
7001C0
6000C0
E000E0
C00060
C00060
C00060
C00060
E000E0
6000C0
7001C0
380380
1E0F00
0FFE00
03F800
ENDCHAR
STARTCHAR uni0210
ENCODING 528
SWIDTH 870 0
DWIDTH 34 0
BBX 21 31 1 0
BITMAP
C30000
E38000
F3C000
39E000
1C7800
0E3800
061800
7FF000
7FFC00
600E00
600700
600300
600180
600180
600180
600180
600300
600700
601E00
6FF800
6FF000
607800
601C00
600E00
600700
600300
600380
600180
6000C0
6000F8
600078
ENDCHAR
STARTCHAR uni0211
ENCODING 529
SWIDTH 870 0
DWIDTH 35 0
BBX 17 27 3 0
BITMAP
C30000
F38000
7BC000
3CF000
1E7800
0F3C00
031800
000000
000000
183E00
18FF80
19E380
1B8180
1F0000
1E0000
1C0000
180000
180000
180000
180000
180000
180000
180000
180000
180000
180000
180000
ENDCHAR
STARTCHAR uni0212
ENCODING 530
SWIDTH 870 0
DWIDTH 34 0
BBX 19 31 2 0
BITMAP
03E000
07F000
0E3800
0C1800
180C00
180C00
180C00
FFC000
FFF000
C03800
C01C00
C00C00
C00600
C00600
C00600
C00600
C00E00
C01C00
C07800
DFF000
DFC000
C0E000
C07000
C03800
C01C00
C00E00
C00E00
C00700
C00300
C003E0
C001E0
ENDCHAR
STARTCHAR uni0213
ENCODING 531
SWIDTH 870 0
DWIDTH 35 0
BBX 14 26 4 0
BITMAP
0F80
3FE0
7870
7030
E018
E018
E018
0000
C1F0
C7FC
CF1C
DC0C
F800
F000
E000
C000
C000
C000
C000
C000
C000
C000
C000
C000
C000
C000
ENDCHAR
STARTCHAR uni0214
ENCODING 532
SWIDTH 870 0
DWIDTH 34 0
BBX 17 31 3 0
BITMAP
C60000
E70000
F3C000
39E000
1CF000
0E7800
061000
600180
600180
600180
600180
600180
600180
600180
600180
600180
600180
600180
600180
600180
600180
600180
600180
600180
600180
700380
300300
380700
1E1E00
0FFC00
03F000
ENDCHAR
STARTCHAR uni0215
ENCODING 533
SWIDTH 870 0
DWIDTH 34 0
BBX 16 27 3 0
BITMAP
C300
F380
7BC0
3CF0
1E78
0F3C
0318
0000
6003
7003
7003
7003
7003
7003
7003
7003
7003
7003
7003
7003
7003
7003
7007
700F
383F
3FFB
0FE3
ENDCHAR
STARTCHAR uni0216
ENCODING 534
SWIDTH 870 0
DWIDTH 34 0
BBX 16 31 3 0
BITMAP
03C0
0FF0
1C38
1818
300C
300C
300C
C003
C003
C003
C003
C003
C003
C003
C003
C003
C003
C003
C003
C003
C003
C003
C003
C003
C003
E007
6006
700E
3C3C
1FF8
07E0
ENDCHAR
STARTCHAR uni0217
ENCODING 535
SWIDTH 870 0
DWIDTH 35 0
BBX 15 26 4 0
BITMAP
0780
1FE0
3870
3030
6018
6018
6018
C006
C006
C006
C006
C006
C006
C006
C006
C006
C006
C006
C006
C006
C006
C00E
C03E
70FE
7FF6
1FC6
ENDCHAR
STARTCHAR uni0218
ENCODING 536
SWIDTH 870 0
DWIDTH 34 0
BBX 17 34 3 -9
BITMAP
07E000
1FF800
3C1E00
300E00
700700
600300
600300
600300
700000
380000
3F0000
1FF000
07FC00
007E00
000F00
000380
000180
C00180
C00180
C00180
E00380
700700
7C1E00
1FFC00
07F000
000000
01C000
03E000
03E000
01E000
006000
00C000
018000
030000
ENDCHAR
STARTCHAR uni0219
ENCODING 537
SWIDTH 870 0
DWIDTH 35 0
BBX 16 28 4 -9
BITMAP
0FC0
3FF0
7038
E01C
C00C
C00C
E00C
7F80
3FF8
0FFC
007E
0007
C003
C003
E003
E007
780E
3FFC
0FF0
0000
0380
07C0
07C0
03C0
00C0
0180
0300
0600
ENDCHAR
STARTCHAR uni021A
ENCODING 538
SWIDTH 870 0
DWIDTH 35 0
BBX 20 33 1 -9
BITMAP
FFFFF0
FFFFF0
006000
006000
006000
006000
006000
006000
006000
006000
006000
006000
006000
006000
006000
006000
006000
006000
006000
006000
006000
006000
006000
006000
007000
00F800
00F800
00F800
001800
003000
003000
006000
00C000
ENDCHAR
STARTCHAR uni021B
ENCODING 539
SWIDTH 870 0
DWIDTH 35 0
BBX 14 34 5 -9
BITMAP
0600
0600
0600
0600
0600
0600
0600
FFFC
FFFC
0600
0600
0600
0600
0600
0600
0600
0600
0600
0600
0600
0600
0600
0380
01FC
00FC
0000
0380
07C0
07C0
03C0
00C0
0180
0300
0600
ENDCHAR
STARTCHAR uni021C
ENCODING 540
SWIDTH 870 0
DWIDTH 35 0
BBX 17 32 3 -6
BITMAP
C7E000
DFF800
FC1C00
F00600
E00700
C00300
C00300
C00300
000700
000E00
003E00
007C00
00FC00
01FE00
018700
000300
000380
000180
000180
000180
000180
000300
000700
001E00
03FC00
07F000
1E0000
3C0000
380000
700000
600000
600000
ENDCHAR
STARTCHAR uni021D
ENCODING 541
SWIDTH 870 0
DWIDTH 35 0
BBX 17 32 3 -12
BITMAP
C7E000
DFF800
FC1C00
F00600
E00700
C00300
C00300
C00300
000300
000700
001E00
007C00
00F800
01FE00
01CF00
008700
000380
000180
000180
000180
000180
000180
000300
000700
001E00
03FC00
0FF000
1E0000
380000
700000
700000
600000
ENDCHAR
STARTCHAR uni021E
ENCODING 542
SWIDTH 870 0
DWIDTH 35 0
BBX 15 32 4 0
BITMAP
300C
3C1C
1E78
0FF0
07E0
03C0
0100
0000
C006
C006
C006
C006
C006
C006
C006
C006
C006
C006
C006
FFFE
FFFE
C006
C006
C006
C006
C006
C006
C006
C006
C006
C006
C006
ENDCHAR
STARTCHAR uni021F
ENCODING 543
SWIDTH 870 0
DWIDTH 35 0
BBX 15 27 4 0
BITMAP
F806
FC1E
DE3C
CF78
C7E0
C1C0
C080
C000
C7E0
DFF8
F81C
F00C
E006
C006
C006
C006
C006
C006
C006
C006
C006
C006
C006
C006
C006
C006
C006
ENDCHAR
STARTCHAR uni0220
ENCODING 544
SWIDTH 870 0
DWIDTH 35 0
BBX 17 33 3 -9
BITMAP
C3F000
CFFC00
F80E00
F00300
E00180
C00180
C00180
C00180
C00180
C00180
C00180
C00180
C00180
C00180
C00180
C00180
C00180
C00180
C00180
C00180
C00180
C00180
C00180
C00180
000180
000180
000180
000180
000180
000180
000180
000180
000180
ENDCHAR
STARTCHAR uni0221
ENCODING 545
SWIDTH 870 0
DWIDTH 35 0
BBX 23 32 0 -6
BITMAP
003000
003000
003000
003000
003000
003000
003000
0FB000
3FF000
30F000
607000
607000
C03000
C03000
C03000
C03000
C03000
C03000
C03000
C03000
C03000
607000
60707C
30F1FE
3FF386
0FBF1C
001FF8
001FE0
001800
003000
003000
006000
ENDCHAR
STARTCHAR uni0222
ENCODING 546
SWIDTH 870 0
DWIDTH 35 0
BBX 19 26 2 0
BITMAP
071C00
0F1F00
1E0F80
380380
7001C0
6000C0
6000C0
6000C0
6000C0
7001C0
380380
3E0F80
1FFE00
1FFE00
3E0780
7801C0
7000C0
600060
E00060
E00060
600060
7000E0
3801C0
3E0780
0FFF00
03F800
ENDCHAR
STARTCHAR uni0223
ENCODING 547
SWIDTH 870 0
DWIDTH 35 0
BBX 15 26 4 0
BITMAP
0FC0
3FF0
3CF8
7038
601C
C01C
C00C
C00C
C00C
E01C
603C
3878
1FF0
3FF0
7838
F01C
E00C
C006
C006
C006
C006
E00C
701C
7838
1FF0
07C0
ENDCHAR
STARTCHAR uni0224
ENCODING 548
SWIDTH 870 0
DWIDTH 34 0
BBX 18 30 2 -6
BITMAP
FFFF80
FFFF80
000700
000700
000E00
001E00
001C00
003800
007800
00F000
00E000
01E000
03C000
038000
078000
0F0000
0E0000
1E0000
3C0000
380000
780000
700000
FFFFC0
FFFFC0
0000C0
0000C0
000180
000380
000700
000400
ENDCHAR
STARTCHAR uni0225
ENCODING 549
SWIDTH 870 0
DWIDTH 34 0
BBX 18 24 2 -6
BITMAP
7FFF80
FFFF80
000700
000E00
001C00
003C00
007800
00F000
01E000
01C000
038000
078000
0F0000
1E0000
3C0000
380000
7FFFC0
7FFFC0
0000C0
0000C0
000180
000380
000700
000400
ENDCHAR
STARTCHAR uni0226
ENCODING 550
SWIDTH 870 0
DWIDTH 35 0
BBX 21 31 1 0
BITMAP
007000
007800
007800
003000
000000
000000
000000
007000
007000
00F800
00F800
01CC00
01CC00
03CC00
038600
038600
070300
070300
0F0300
0E0180
0E0180
1FFFC0
1FFFC0
3800C0
3800E0
300060
700070
600070
E00030
E00038
C00018
ENDCHAR
STARTCHAR uni0227
ENCODING 551
SWIDTH 870 0
DWIDTH 35 0
BBX 17 25 3 0
BITMAP
018000
03C000
03C000
038000
000000
000000
000000
03F800
1FFE00
1F0700
000380
000180
000180
000180
03FF80
1FFF80
7C0380
700180
C00180
C00180
C00380
E00F80
703F80
3FFD80
0FE180
ENDCHAR
STARTCHAR uni0228
ENCODING 552
SWIDTH 870 0
DWIDTH 35 0
BBX 16 32 3 -8
BITMAP
FFFF
FFFF
C000
C000
C000
C000
C000
C000
C000
C000
C000
FFC0
FFC0
C000
C000
C000
C000
C000
C000
C000
C000
C000
FFFF
FFFF
00C0
00C0
00C0
00E0
00F0
0630
07F0
03E0
ENDCHAR
STARTCHAR uni0229
ENCODING 553
SWIDTH 870 0
DWIDTH 35 0
BBX 19 27 2 -8
BITMAP
03F000
0FFC00
1E0F00
380700
700380
E00180
E00180
E001C0
C001C0
FFFFC0
FFFFC0
C00000
E00000
600000
700060
3800E0
1E03C0
0FFF80
03FC00
006000
006000
006000
007800
007800
031800
03F800
01F000
ENDCHAR
STARTCHAR uni022A
ENCODING 554
SWIDTH 870 0
DWIDTH 35 0
BBX 20 33 2 0
BITMAP
0FFF80
1FFF80
0E0600
0F0F00
0F0F00
060600
000000
000000
000000
01F800
07FE00
0E0700
1C0380
3801C0
7000C0
600060
600060
E00030
C00030
C00030
C00030
C00030
C00030
C00030
C00070
600060
600060
3000E0
3801C0
1C0380
0F0700
07FE00
01F800
ENDCHAR
STARTCHAR uni022B
ENCODING 555
SWIDTH 870 0
DWIDTH 34 0
BBX 19 29 2 0
BITMAP
1FFF00
1FFF80
000000
000000
0E0600
0F0F00
0F0F00
070600
000000
000000
000000
03F800
0FFE00
1E0F00
380380
7001C0
6000C0
E000E0
C00060
C00060
C00060
C00060
E000E0
6000C0
7001C0
380380
1E0F00
0FFE00
03F800
ENDCHAR
STARTCHAR uni022C
ENCODING 556
SWIDTH 870 0
DWIDTH 34 0
BBX 20 33 1 0
BITMAP
0FFF80
0FFF80
000000
01C180
07E380
07FF80
0E3F00
0C1C00
000000
01F800
07FE00
0E0700
1C0380
3801C0
7000C0
600060
600060
E00030
C00030
C00030
C00030
C00030
C00030
C00030
C00070
600060
600060
3000E0
3801C0
1C03C0
0F0780
07FF00
01F800
ENDCHAR
STARTCHAR uni022D
ENCODING 557
SWIDTH 870 0
DWIDTH 34 0
BBX 19 29 2 0
BITMAP
1FFF00
1FFF00
000000
000000
038300
0FC700
1FFF00
1C7E00
183800
000000
000000
03F800
0FFE00
1E0F00
380380
7001C0
6000C0
E000E0
C00060
C00060
C00060
C00060
E000E0
6000C0
7001C0
380380
1E0F00
0FFE00
03F800
ENDCHAR
STARTCHAR uni022E
ENCODING 558
SWIDTH 870 0
DWIDTH 35 0
BBX 20 31 2 0
BITMAP
00E000
00F000
00F000
006000
000000
000000
000000
01F800
07FE00
0E0700
1C0380
3801C0
7000C0
600060
600060
E00030
C00030
C00030
C00030
C00030
C00030
C00030
C00070
600060
600060
3000E0
3801C0
1C0380
0F0700
07FE00
01F800
ENDCHAR
STARTCHAR uni022F
ENCODING 559
SWIDTH 870 0
DWIDTH 34 0
BBX 19 25 2 0
BITMAP
00C000
01E000
01E000
01C000
000000
000000
000000
03F800
0FFE00
1E0F00
380380
7001C0
6000C0
E000E0
C00060
C00060
C00060
C00060
E000E0
6000C0
7001C0
380380
1E0F00
0FFE00
03F800
ENDCHAR
STARTCHAR uni0230
ENCODING 560
SWIDTH 870 0
DWIDTH 35 0
BBX 20 33 2 0
BITMAP
0FFF80
1FFF80
00E000
00F000
00F000
006000
000000
000000
000000
01F800
07FE00
0E0700
1C0380
3801C0
7000C0
600060
600060
E00030
C00030
C00030
C00030
C00030
C00030
C00030
C00070
600060
600060
3000E0
3801C0
1C0380
0F0700
07FE00
01F800
ENDCHAR
STARTCHAR uni0231
ENCODING 561
SWIDTH 870 0
DWIDTH 34 0
BBX 19 29 2 0
BITMAP
1FFF00
1FFF00
000000
000000
00C000
01E000
01E000
01C000
000000
000000
000000
03F800
0FFE00
1E0F00
380380
7001C0
6000C0
E000E0
C00060
C00060
C00060
C00060
E000E0
6000C0
7001C0
380380
1E0F00
0FFE00
03F800
ENDCHAR
STARTCHAR uni0232
ENCODING 562
SWIDTH 870 0
DWIDTH 35 0
BBX 18 28 3 0
BITMAP
3FFE00
3FFE00
000000
000000
C00180
E001C0
700380
700700
380700
1C0E00
1C0C00
0E1C00
073800
073000
03F000
01E000
01C000
00C000
00C000
00C000
00C000
00C000
00C000
00C000
00C000
00C000
00C000
00C000
ENDCHAR
STARTCHAR uni0233
ENCODING 563
SWIDTH 870 0
DWIDTH 35 0
BBX 19 31 2 -8
BITMAP
1FFF00
1FFF00
000000
000000
000000
C00060
E000E0
6000C0
7001C0
300180
380380
180300
1C0700
0C0700
0E0600
060E00
070C00
031C00
039800
01B800
01F000
00F000
00E000
00E000
00C000
01C000
018000
038000
038000
1F0000
1E0000
ENDCHAR
STARTCHAR uni0234
ENCODING 564
SWIDTH 870 0
DWIDTH 35 0
BBX 23 29 0 -4
BITMAP
FE0000
FE0000
060000
060000
060000
060000
060000
060000
060000
060000
060000
060000
060000
060000
060000
060000
060000
060000
060000
0600FC
0603FE
070F06
039C3C
01FFF0
007FC0
00C000
018000
030000
020000
ENDCHAR
STARTCHAR uni0235
ENCODING 565
SWIDTH 870 0
DWIDTH 34 0
BBX 23 27 0 -9
BITMAP
CF0000
FF8000
F1C000
E0E000
E06000
C06000
C06000
C06000
C06000
C06000
C06000
C06000
C06000
C06000
C06000
C06000
C0607C
C063FE
0067C6
007F8C
003F38
003FF0
001FC0
001800
003000
006000
004000
ENDCHAR
STARTCHAR uni0236
ENCODING 566
SWIDTH 870 0
DWIDTH 34 0
BBX 22 30 0 -5
BITMAP
060000
060000
060000
060000
060000
060000
060000
FFFC00
FFFC00
060000
060000
060000
060000
060000
060000
060000
060000
060000
060000
0600F8
0607FC
060F0C
031E1C
03FC78
01FFE0
00FF80
00C000
018000
030000
020000
ENDCHAR
STARTCHAR uni0237
ENCODING 567
SWIDTH 870 0
DWIDTH 35 0
BBX 10 26 6 -8
BITMAP
1FC0
1FC0
00C0
00C0
00C0
00C0
00C0
00C0
00C0
00C0
00C0
00C0
00C0
00C0
00C0
00C0
00C0
00C0
00C0
00C0
00C0
0180
0180
0700
FE00
FC00
ENDCHAR
STARTCHAR uni0238
ENCODING 568
SWIDTH 870 0
DWIDTH 35 0
BBX 21 26 1 0
BITMAP
006000
006000
006000
006000
006000
006000
006000
007000
0F7780
3FFFC0
31FCE0
60F870
60F030
E0E038
C06018
C06018
C06018
C06018
C06018
C06018
C0E038
60F030
60F070
31FCE0
3FFFC0
0F7F80
ENDCHAR
STARTCHAR uni0239
ENCODING 569
SWIDTH 870 0
DWIDTH 35 0
BBX 21 27 1 -9
BITMAP
0F6780
3FFFE0
31FCE0
60F870
60F030
C07038
C06018
C06018
C06018
C06018
C06018
C06018
C0F038
60F030
60F870
31FCE0
3FFFC0
0F6F80
006000
006000
006000
006000
006000
006000
006000
006000
006000
ENDCHAR
STARTCHAR uni023A
ENCODING 570
SWIDTH 870 0
DWIDTH 35 0
BBX 21 28 1 -2
BITMAP
000018
000038
007070
007870
00D8E0
00D9C0
01DF80
018F80
038F00
038E00
030F00
071F00
063B00
0E7B80
0E7380
0CE180
1FFFC0
1FFFC0
3B00E0
3F00E0
3E0060
7C0070
7C0070
780030
F00038
F00018
E00000
C00000
ENDCHAR
STARTCHAR uni023B
ENCODING 571
SWIDTH 870 0
DWIDTH 35 0
BBX 21 27 1 -2
BITMAP
000018
00FC18
03FF38
0707F0
0C01F0
1801F0
1803F0
3007B0
300730
700E00
601E00
603C00
603800
607000
60E000
61E000
61C000
338000
370000
1E0038
1E0070
1E00F0
3F83E0
71FF80
E07E00
E00000
400000
ENDCHAR
STARTCHAR uni023C
ENCODING 572
SWIDTH 870 0
DWIDTH 35 0
BBX 21 21 1 -2
BITMAP
01FC30
07FF78
0E07F0
1C03E0
3807C0
300FE0
701FE0
603E60
607C00
60F800
61F000
63E000
77C000
378000
3F0070
1E00F0
3F03E0
77FF80
F1FC00
E00000
400000
ENDCHAR
STARTCHAR uni023D
ENCODING 573
SWIDTH 870 0
DWIDTH 35 0
BBX 21 24 1 0
BITMAP
030000
070000
070000
030000
030000
030000
030000
030000
030000
030000
030000
FFFC00
FFFC00
030000
030000
030000
030000
030000
030000
030000
030000
030000
03FFF8
03FFF8
ENDCHAR
STARTCHAR uni023E
ENCODING 574
SWIDTH 870 0
DWIDTH 35 0
BBX 20 28 2 -2
BITMAP
000030
000070
FFFFF0
FFFFF0
C061C0
006180
006300
006700
006E00
007C00
007C00
007800
007000
006000
00E000
01E000
01E000
03E000
076000
0F6000
0E6000
1C6000
386000
786000
706000
E06000
E00000
C00000
ENDCHAR
STARTCHAR uni023F
ENCODING 575
SWIDTH 870 0
DWIDTH 34 0
BBX 16 28 3 -9
BITMAP
0FE0
1FF8
381C
700E
6006
6006
7806
3F00
1FF8
07FC
003E
0007
4003
E003
E003
E006
780E
3FFC
3FF0
3800
1800
1C00
0E00
0E00
070C
039C
01FC
00F0
ENDCHAR
STARTCHAR uni0240
ENCODING 576
SWIDTH 870 0
DWIDTH 35 0
BBX 16 27 3 -9
BITMAP
FFFF
FFFF
000E
001C
003C
0078
00F0
00E0
01C0
0380
0780
0F00
1E00
3C00
3800
7000
F000
F000
3000
3800
1800
1C00
0C00
0618
0718
03F8
00F0
ENDCHAR
STARTCHAR uni0241
ENCODING 577
SWIDTH 870 0
DWIDTH 34 0
BBX 18 24 2 0
BITMAP
07F000
3FFC00
780F00
600380
E00180
E001C0
0000C0
0000C0
0000C0
0001C0
000180
000780
001F00
00FE00
00F800
00C000
00C000
00C000
00C000
00C000
00C000
00C000
00C000
00C000
ENDCHAR
STARTCHAR uni0242
ENCODING 578
SWIDTH 870 0
DWIDTH 34 0
BBX 14 18 4 0
BITMAP
0FC0
3FF0
7078
E018
C01C
C00C
000C
000C
001C
0038
0078
03E0
03C0
0300
0300
0300
0300
0300
ENDCHAR
STARTCHAR uni0243
ENCODING 579
SWIDTH 870 0
DWIDTH 33 0
BBX 20 24 -1 0
BITMAP
0FFE00
0FFF00
0C0380
0C00C0
0C0060
0C0060
0C0060
0C0060
0C0060
0C00C0
0C0380
0DFF00
0FFF80
0C01C0
0C0060
0C0030
0C0030
FFFC30
FFFC30
0C0030
0C0060
0C00E0
0FFFC0
0FFF00
ENDCHAR
STARTCHAR uni0244
ENCODING 580
SWIDTH 870 0
DWIDTH 35 0
BBX 23 24 0 0
BITMAP
180030
180030
180030
180030
180030
180030
180030
180030
180030
180030
180030
180030
FFFFFE
FFFFFE
180030
180030
180030
180030
1C0070
0C0060
0E00E0
0783C0
03FF80
00FE00
ENDCHAR
STARTCHAR uni0245
ENCODING 581
SWIDTH 870 0
DWIDTH 35 0
BBX 21 24 1 0
BITMAP
007000
007000
00F800
00F800
00D800
01DC00
018C00
038E00
038E00
030600
070700
060300
0E0380
0E0380
0C0180
1C01C0
1C00C0
3800E0
3800E0
300060
700070
700030
600038
E00030
ENDCHAR
STARTCHAR uni0246
ENCODING 582
SWIDTH 870 0
DWIDTH 35 0
BBX 21 27 1 -2
BITMAP
000018
3FFFF8
3FFFF0
3001E0
3001E0
3003C0
300780
300700
300F00
301E00
301C00
303800
3FF800
3FF800
30E000
31C000
33C000
378000
370000
3E0000
3E0000
3C0000
380000
7FFFE0
7FFFE0
E00000
C00000
ENDCHAR
STARTCHAR uni0247
ENCODING 583
SWIDTH 870 0
DWIDTH 35 0
BBX 21 21 1 -2
BITMAP
01F830
07FE78
0F07F0
1C03E0
3803C0
7007C0
700FC0
700EE0
601CE0
7FFFE0
7FFFE0
60E000
61C000
338030
370070
1E00F0
3F01E0
7FFF80
F0FC00
E00000
400000
ENDCHAR
STARTCHAR uni0248
ENCODING 584
SWIDTH 870 0
DWIDTH 35 0
BBX 22 24 3 0
BITMAP
01FF80
01FF80
000180
000180
000180
000180
000180
000180
000180
000180
000180
007FFC
007FFC
400180
C00180
C00180
C00180
C00180
C00180
C00300
600700
781E00
1FFC00
07F000
ENDCHAR
STARTCHAR uni0249
ENCODING 585
SWIDTH 870 0
DWIDTH 35 0
BBX 16 33 6 -8
BITMAP
0180
03C0
03C0
0380
0000
0000
0000
1FC0
1FC0
00C0
00C0
00C0
00C0
00C0
3FFF
3FFF
00C0
00C0
00C0
00C0
00C0
00C0
00C0
00C0
00C0
00C0
00C0
00C0
0180
0180
0300
FE00
FC00
ENDCHAR
STARTCHAR uni024A
ENCODING 586
SWIDTH 870 0
DWIDTH 35 0
BBX 23 32 0 -8
BITMAP
07C600
0FFE00
183E00
301E00
600E00
600600
600600
C00600
C00600
C00600
C00600
C00600
C00600
C00600
C00600
C00600
600600
600600
600600
300600
380E00
1C3E00
0FFE00
03E600
000600
000600
000600
000300
000380
0001C0
0000FE
00003E
ENDCHAR
STARTCHAR uni024B
ENCODING 587
SWIDTH 870 0
DWIDTH 35 0
BBX 23 27 0 -8
BITMAP
07C600
1FF600
383E00
301E00
600E00
600E00
C00600
C00600
C00600
C00600
C00600
C00600
C00600
600E00
600E00
301E00
387E00
1FF600
07C600
000600
000600
000600
000300
000380
0001C0
0000FE
00007E
ENDCHAR
STARTCHAR uni024C
ENCODING 588
SWIDTH 870 0
DWIDTH 35 0
BBX 23 24 0 0
BITMAP
1FFC00
1FFF00
180380
1801C0
1800C0
180060
180060
180060
180060
1800C0
1801C0
180780
FFFF00
FFFC00
181E00
180F00
180380
180180
1801C0
1800E0
180060
180070
18003E
18001E
ENDCHAR
STARTCHAR uni024D
ENCODING 589
SWIDTH 870 0
DWIDTH 35 0
BBX 21 18 0 0
BITMAP
0303C0
030FF0
031C78
037810
03E000
03C000
038000
FFFC00
FFFC00
030000
030000
030000
030000
030000
030000
030000
030000
030000
ENDCHAR
STARTCHAR uni024E
ENCODING 590
SWIDTH 870 0
DWIDTH 35 0
BBX 18 24 3 0
BITMAP
C00180
E001C0
600380
700700
380700
180E00
1C1C00
0E1C00
063800
033000
03F000
01E000
00C000
00C000
3FF000
3FFF00
3FFF00
00C000
00C000
00C000
00C000
00C000
00C000
00C000
ENDCHAR
STARTCHAR uni024F
ENCODING 591
SWIDTH 870 0
DWIDTH 35 0
BBX 19 26 2 -8
BITMAP
C00060
E000E0
6000C0
7001C0
300180
380380
180300
FFFFE0
FFFFE0
061E00
070C00
030C00
039800
039800
01B000
01F000
00F000
00E000
00E000
00C000
01C000
018000
038000
0F0000
1F0000
1E0000
ENDCHAR
STARTCHAR uni0250
ENCODING 592
SWIDTH 870 0
DWIDTH 34 0
BBX 16 18 3 0
BITMAP
03F0
CFFC
FE0E
F807
E003
C003
C003
C007
C00E
E03E
FFF8
FFE0
C000
C000
C000
707C
3FFC
1FE0
ENDCHAR
STARTCHAR uni0251
ENCODING 593
SWIDTH 870 0
DWIDTH 34 0
BBX 21 18 2 0
BITMAP
03F0C0
0FFCC0
1E0EC0
3807C0
7003C0
6001C0
C001C0
C000C0
C000C0
C000C0
C000C0
C000C0
6001C0
7003C0
3807C0
1C0FC0
0FFEF8
03F0F8
ENDCHAR
STARTCHAR uni0252
ENCODING 594
SWIDTH 870 0
DWIDTH 34 0
BBX 20 18 2 0
BITMAP
F8FC00
FBFF00
1F8380
1E00C0
1C0060
1C0060
180030
180030
180030
180030
180030
180030
1C0060
1E00E0
1F01C0
1F8380
19FF00
18FC00
ENDCHAR
STARTCHAR uni0253
ENCODING 595
SWIDTH 870 0
DWIDTH 34 0
BBX 18 26 2 0
BITMAP
0FC000
3FC000
700000
E00000
C00000
C00000
C00000
C00000
C3F000
CFFC00
DE0E00
F80700
F00380
E00180
E001C0
C000C0
C000C0
C000C0
C000C0
C000C0
E00180
F00380
F80780
FC0F00
CFFC00
C3F000
ENDCHAR
STARTCHAR uni0254
ENCODING 596
SWIDTH 870 0
DWIDTH 35 0
BBX 18 19 3 0
BITMAP
07F000
3FFC00
7C0E00
F00700
C00380
000180
0000C0
0000C0
0000C0
0000C0
0000C0
6000C0
6001C0
600180
700380
780700
3C0F00
1FFC00
03F000
ENDCHAR
STARTCHAR uni0255
ENCODING 597
SWIDTH 870 0
DWIDTH 34 0
BBX 18 23 2 -4
BITMAP
03F000
0FFE00
1C0F00
380700
700380
600180
600180
C00180
C00000
C00000
C00000
C00000
C00000
C01F80
607FC0
60F0C0
318780
1FFE00
0FF800
180000
380000
700000
600000
ENDCHAR
STARTCHAR uni0256
ENCODING 598
SWIDTH 870 0
DWIDTH 35 0
BBX 23 34 0 -8
BITMAP
000300
000300
000300
000300
000300
000300
000300
07C300
0FF300
3C3B00
300F00
600F00
600700
C00700
C00300
C00300
C00300
C00300
C00300
C00700
600700
600F00
300F00
3C3B00
1FF300
07E300
000300
000300
000300
000180
000180
0000E0
00007E
00003E
ENDCHAR
STARTCHAR uni0257
ENCODING 599
SWIDTH 870 0
DWIDTH 35 0
BBX 23 26 0 0
BITMAP
00003E
0000FE
0001C0
000380
000300
000300
000300
07E300
0FFB00
1C3F00
300F00
700F00
600700
E00700
C00300
C00300
C00300
C00300
C00300
C00700
600700
600F00
300F00
3C3F00
0FFB00
07E300
ENDCHAR
STARTCHAR uni0258
ENCODING 600
SWIDTH 870 0
DWIDTH 35 0
BBX 19 19 2 0
BITMAP
03F800
07FE00
1E0F00
1C0380
3801C0
3000E0
7000E0
7000E0
700060
7FFFE0
7FFFE0
000060
0000E0
C000C0
E001C0
F00380
7C0F00
1FFE00
03F000
ENDCHAR
STARTCHAR uni0259
ENCODING 601
SWIDTH 870 0
DWIDTH 35 0
BBX 19 19 2 0
BITMAP
03F000
1FFE00
7C0F00
F00380
E001C0
C001C0
0000E0
0000E0
000060
000060
7FFFE0
7FFFE0
700060
7000E0
3000C0
380180
1E0700
0FFE00
03F800
ENDCHAR
STARTCHAR uni025A
ENCODING 602
SWIDTH 870 0
DWIDTH 34 0
BBX 24 19 -1 0
BITMAP
07F000
1FFC00
7C1E00
F00600
E00362
8007E3
001FF7
007EFE
01F8DC
07E0C0
1F80C0
7E00C0
7801C0
600180
600380
300700
1C1E00
0FFC00
03F000
ENDCHAR
STARTCHAR uni025B
ENCODING 603
SWIDTH 870 0
DWIDTH 35 0
BBX 14 18 5 0
BITMAP
1F80
7FE0
E0F0
C070
C030
C000
F000
7F80
7F80
7800
E000
C000
C000
C000
E008
707C
3FF8
0FC0
ENDCHAR
STARTCHAR uni025C
ENCODING 604
SWIDTH 870 0
DWIDTH 35 0
BBX 14 18 4 0
BITMAP
07E0
3FF8
3C1C
300C
000C
000C
003C
07F8
07F0
0078
001C
000C
000C
000C
C01C
F838
7FF0
0FC0
ENDCHAR
STARTCHAR uni025D
ENCODING 605
SWIDTH 870 0
DWIDTH 35 0
BBX 21 18 2 0
BITMAP
1FC000
7FE000
F07210
C03E18
003F38
003BF0
0079C0
0FF000
0FF000
007800
001C00
000C00
000C00
000C00
401C00
F83800
7FF000
0FC000
ENDCHAR
STARTCHAR uni025E
ENCODING 606
SWIDTH 870 0
DWIDTH 34 0
BBX 16 18 3 0
BITMAP
01F0
0FFC
1E0E
3807
6003
6003
C007
C00E
C1FE
C1FC
C01E
E007
6003
7003
3807
3E0E
0FFC
03F0
ENDCHAR
STARTCHAR uni025F
ENCODING 607
SWIDTH 870 0
DWIDTH 35 0
BBX 15 26 4 -8
BITMAP
00C0
00C0
00C0
00C0
00C0
00C0
00C0
00C0
00C0
00C0
00C0
00C0
00C0
00C0
00C0
00C0
7FFE
FFFE
00C0
00C0
00C0
00C0
01C0
0380
FF00
FC00
ENDCHAR
STARTCHAR uni0260
ENCODING 608
SWIDTH 870 0
DWIDTH 35 0
BBX 23 34 0 -8
BITMAP
00003E
0000FE
0001C0
000380
000300
000300
000300
000300
07E300
0FFB00
3C3F00
300F00
600700
600700
C00300
C00300
C00300
C00300
C00300
C00300
600700
600700
300F00
3C3F00
0FFB00
07E300
000300
000300
000300
000300
000600
001E00
1FFC00
1FF000
ENDCHAR
STARTCHAR uni0261
ENCODING 609
SWIDTH 870 0
DWIDTH 34 0
BBX 18 26 2 -8
BITMAP
03F0C0
0FFCC0
1C0FC0
3807C0
7003C0
6001C0
C000C0
C000C0
C000C0
C000C0
C000C0
C000C0
6001C0
7003C0
3807C0
1C0EC0
0FFCC0
03F0C0
0000C0
0000C0
0000C0
0001C0
000180
000380
07FF00
07FC00
ENDCHAR
STARTCHAR uni0262
ENCODING 610
SWIDTH 870 0
DWIDTH 35 0
BBX 16 19 4 0
BITMAP
07EC
1FFC
383C
701C
600C
600C
C00C
C000
C000
C000
C000
C0FF
E0FF
6007
7006
380E
3C3C
0FF8
07E0
ENDCHAR
STARTCHAR uni0263
ENCODING 611
SWIDTH 870 0
DWIDTH 35 0
BBX 19 25 2 -6
BITMAP
000040
C000E0
E000C0
700180
700380
380300
1C0600
0C0E00
0E0C00
071C00
033800
03B000
01F000
00E000
00E000
01F000
01B000
013800
031800
031800
031800
031800
039800
01F000
01E000
ENDCHAR
STARTCHAR uni0264
ENCODING 612
SWIDTH 870 0
DWIDTH 35 0
BBX 18 19 2 0
BITMAP
6000C0
F001C0
700180
380300
1C0700
0E0E00
061C00
071800
03B000
01F000
00E000
01F000
01B000
031800
031800
031800
031800
03F800
01F000
ENDCHAR
STARTCHAR uni0265
ENCODING 613
SWIDTH 870 0
DWIDTH 35 0
BBX 15 26 4 -8
BITMAP
C006
C006
C006
C006
C006
C006
C006
C006
C006
C006
C006
C006
C006
C00E
E01E
703E
3FF6
0FC6
0006
0006
0006
0006
0006
0006
0006
0006
ENDCHAR
STARTCHAR uni0266
ENCODING 614
SWIDTH 870 0
DWIDTH 35 0
BBX 15 26 4 0
BITMAP
0FC0
3FC0
7000
E000
C000
C000
C000
C7E0
DFF8
F81C
F00C
E006
C006
C006
C006
C006
C006
C006
C006
C006
C006
C006
C006
C006
C006
C006
ENDCHAR
STARTCHAR uni0267
ENCODING 615
SWIDTH 870 0
DWIDTH 35 0
BBX 15 34 4 -8
BITMAP
0FC0
3FC0
7000
E000
C000
C000
C000
C7E0
DFF8
F83C
F00C
E006
C006
C006
C006
C006
C006
C006
C006
C006
C006
C006
C006
C006
C006
C006
0006
0006
0006
000E
000C
003C
07F8
07E0
ENDCHAR
STARTCHAR uni0268
ENCODING 616
SWIDTH 870 0
DWIDTH 35 0
BBX 18 25 3 0
BITMAP
00C000
01E000
01E000
01C000
000000
000000
000000
7FC000
7FC000
01C000
01C000
00C000
00C000
00C000
3FFF00
3FFF00
00C000
00C000
00C000
00C000
00C000
00C000
00C000
FFFFC0
FFFFC0
ENDCHAR
STARTCHAR uni0269
ENCODING 617
SWIDTH 870 0
DWIDTH 35 0
BBX 14 18 5 0
BITMAP
FE00
FE00
0600
0600
0600
0600
0600
0600
0600
0600
0600
0600
0600
0600
0600
0380
01FC
00FC
ENDCHAR
STARTCHAR uni026A
ENCODING 618
SWIDTH 870 0
DWIDTH 35 0
BBX 16 18 4 0
BITMAP
FFFF
FFFF
0180
0180
0180
0180
0180
0180
0180
0180
0180
0180
0180
0180
0180
0180
FFFF
FFFF
ENDCHAR
STARTCHAR uni026B
ENCODING 619
SWIDTH 870 0
DWIDTH 35 0
BBX 18 25 3 0
BITMAP
7FC000
7FC000
00C000
00C000
00C000
00C000
00C000
00C000
00C000
00C000
0EC000
3FC080
7FC1C0
71C3C0
E0FF80
C0FF00
00FC00
00C000
00C000
00C000
00C000
00C000
00C000
FFFFC0
FFFFC0
ENDCHAR
STARTCHAR uni026C
ENCODING 620
SWIDTH 870 0
DWIDTH 35 0
BBX 18 25 3 0
BITMAP
7FC000
7FC000
00C000
00C000
00C000
00C000
00C000
00C000
00C000
3CC000
7FC000
FFC000
63C000
61C000
78C380
3FFF80
0FFE00
00C000
00C000
00C000
00C000
00C000
00C000
7FFFC0
7FFFC0
ENDCHAR
STARTCHAR uni026D
ENCODING 621
SWIDTH 870 0
DWIDTH 35 0
BBX 17 33 3 -8
BITMAP
FF8000
FF8000
018000
018000
018000
018000
018000
018000
018000
018000
018000
018000
018000
018000
018000
018000
018000
018000
018000
018000
018000
018000
018000
018000
018000
018000
018000
018000
018000
00C000
00E000
007F80
001F80
ENDCHAR
STARTCHAR uni026E
ENCODING 622
SWIDTH 870 0
DWIDTH 35 0
BBX 22 32 1 -7
BITMAP
7F8000
7F8000
018000
018000
018000
018000
018000
018000
01FFFC
01FFFC
01803C
018078
0180F0
0181E0
0183C0
018780
018F00
018FC0
0187E0
018070
018038
018018
01800C
FFFF0C
FFFF0C
00000C
00000C
010018
01C038
01F070
00FFE0
001F80
ENDCHAR
STARTCHAR uni026F
ENCODING 623
SWIDTH 870 0
DWIDTH 35 0
BBX 21 18 1 0
BITMAP
C06018
C06018
C06018
C06018
C06018
C06018
C06018
C06018
C06018
C06018
C06018
C06018
C06018
C06038
C0E078
63F0F8
7FBFF8
1E1F98
ENDCHAR
STARTCHAR uni0270
ENCODING 624
SWIDTH 870 0
DWIDTH 35 0
BBX 21 27 1 -9
BITMAP
C06018
C06018
C06018
C06018
C06018
C06018
C06018
C06018
C06018
C06018
C06018
C06018
C06018
C06038
C0E078
63F0F8
7FBFF8
1E1F98
000018
000018
000018
000018
000018
000018
000018
000018
000018
ENDCHAR
STARTCHAR uni0271
ENCODING 625
SWIDTH 870 0
DWIDTH 36 0
BBX 22 26 1 -8
BITMAP
CFC3E0
FFEFF0
F87E18
F0380C
C0300C
C0300C
C0300C
C0300C
C0300C
C0300C
C0300C
C0300C
C0300C
C0300C
C0300C
C0300C
C0300C
C0300C
00000C
00000C
00000C
00001C
000018
000078
000FF0
000FC0
ENDCHAR
STARTCHAR uni0272
ENCODING 626
SWIDTH 870 0
DWIDTH 35 0
BBX 23 26 0 -8
BITMAP
00C7E0
00DFF8
00FC1C
00F00C
00E006
00C006
00C006
00C006
00C006
00C006
00C006
00C006
00C006
00C006
00C006
00C006
00C006
00C006
00C000
00C000
00C000
00C000
018000
038000
FF0000
FC0000
ENDCHAR
STARTCHAR uni0273
ENCODING 627
SWIDTH 870 0
DWIDTH 35 0
BBX 23 26 0 -8
BITMAP
C7E000
CFF800
FC1C00
F00C00
E00600
C00600
C00600
C00600
C00600
C00600
C00600
C00600
C00600
C00600
C00600
C00600
C00600
C00600
000600
000600
000600
000700
000300
000380
0001FE
00007E
ENDCHAR
STARTCHAR uni0274
ENCODING 628
SWIDTH 870 0
DWIDTH 35 0
BBX 13 18 5 0
BITMAP
C018
E018
E018
F018
F818
D818
DC18
CE18
C618
C318
C398
C1D8
C0D8
C0F8
C078
C038
C038
C018
ENDCHAR
STARTCHAR uni0275
ENCODING 629
SWIDTH 870 0
DWIDTH 35 0
BBX 19 18 2 0
BITMAP
03F800
0FFE00
1E0F00
380380
7001C0
E000E0
E000E0
C00060
FFFFE0
FFFFE0
C00060
E000E0
E000E0
7001C0
380380
1E0F00
0FFE00
03F800
ENDCHAR
STARTCHAR uni0276
ENCODING 630
SWIDTH 870 0
DWIDTH 35 0
BBX 18 18 3 0
BITMAP
07FFC0
1FFFC0
3C6000
306000
606000
606000
C06000
C06000
C07F00
C07F00
C06000
C06000
606000
606000
306000
3C6000
1FFFC0
03FFC0
ENDCHAR
STARTCHAR uni0277
ENCODING 631
SWIDTH 870 0
DWIDTH 34 0
BBX 19 19 2 0
BITMAP
07F800
1FFF00
3C0780
7001C0
6000C0
E000C0
C00060
C00060
C06060
C06060
C06060
C06060
C06060
406060
60E0C0
60F0C0
31F980
3FDF80
0F0F00
ENDCHAR
STARTCHAR uni0278
ENCODING 632
SWIDTH 870 0
DWIDTH 34 0
BBX 19 31 2 -7
BITMAP
7FFF80
7FFF80
00C000
00C000
00C000
01E000
07FC00
1FFE00
3EDF00
38C780
70C1C0
60C0C0
E0C0E0
C0C060
C0C060
C0C060
C0C060
C0C060
60C0C0
60C0C0
70C1C0
38C780
1FFF00
0FFE00
03F800
00C000
00C000
00C000
00C000
7FFF80
7FFF80
ENDCHAR
STARTCHAR uni0279
ENCODING 633
SWIDTH 870 0
DWIDTH 35 0
BBX 14 18 5 0
BITMAP
000C
000C
000C
000C
000C
000C
000C
000C
000C
000C
000C
000C
003C
007C
C0EC
E3CC
FF8C
3E0C
ENDCHAR
STARTCHAR uni027A
ENCODING 634
SWIDTH 870 0
DWIDTH 35 0
BBX 14 26 5 0
BITMAP
000C
000C
000C
000C
000C
000C
000C
000C
000C
000C
000C
000C
000C
000C
000C
000C
000C
000C
000C
000C
003C
007C
C0EC
E3CC
FF8C
3E0C
ENDCHAR
STARTCHAR uni027B
ENCODING 635
SWIDTH 870 0
DWIDTH 35 0
BBX 22 26 1 -8
BITMAP
000C00
000C00
000C00
000C00
000C00
000C00
000C00
000C00
000C00
000C00
000C00
000C00
003C00
007C00
C0EC00
E3CC00
7F8C00
3E0C00
000C00
000C00
000C00
000600
000700
000380
0001FC
0000FC
ENDCHAR
STARTCHAR uni027C
ENCODING 636
SWIDTH 870 0
DWIDTH 35 0
BBX 14 27 4 -9
BITMAP
C1F0
C7FC
CF1C
DC0C
F800
F000
E000
C000
C000
C000
C000
C000
C000
C000
C000
C000
C000
C000
C000
C000
C000
C000
C000
C000
C000
C000
C000
ENDCHAR
STARTCHAR uni027D
ENCODING 637
SWIDTH 870 0
DWIDTH 35 0
BBX 14 26 4 -8
BITMAP
C1F0
C7FC
CF1C
DC0C
F800
F000
E000
C000
C000
C000
C000
C000
C000
C000
C000
C000
C000
C000
C000
C000
C000
E000
6000
7800
3FC0
0FC0
ENDCHAR
STARTCHAR uni027E
ENCODING 638
SWIDTH 870 0
DWIDTH 35 0
BBX 10 18 7 0
BITMAP
1F80
3FC0
7000
E000
C000
C000
C000
C000
C000
C000
C000
C000
C000
C000
C000
C000
C000
C000
ENDCHAR
STARTCHAR uni027F
ENCODING 639
SWIDTH 870 0
DWIDTH 35 0
BBX 10 27 6 -9
BITMAP
FE00
FF00
0380
01C0
00C0
00C0
00C0
00C0
00C0
00C0
00C0
00C0
00C0
00C0
00C0
00C0
00C0
00C0
00C0
00C0
00C0
00C0
00C0
00C0
00C0
00C0
00C0
ENDCHAR
STARTCHAR uni0280
ENCODING 640
SWIDTH 870 0
DWIDTH 35 0
BBX 15 18 4 0
BITMAP
FF00
FFC0
C0E0
C070
C030
C030
C070
C0E0
FFC0
FF80
C380
C1C0
C0E0
C070
C030
C038
C01E
C01E
ENDCHAR
STARTCHAR uni0281
ENCODING 641
SWIDTH 870 0
DWIDTH 35 0
BBX 15 18 4 0
BITMAP
C01E
C01E
C038
C030
C070
C0E0
C1C0
C3C0
FF80
FFC0
C0E0
C070
C030
C030
C070
C0E0
FFC0
FF80
ENDCHAR
STARTCHAR uni0282
ENCODING 642
SWIDTH 870 0
DWIDTH 35 0
BBX 17 27 3 -8
BITMAP
07E000
1FF800
381C00
700E00
600600
600600
700600
3FC000
1FFC00
07FE00
003F00
000380
C00180
E00180
E00180
F00300
FC0F00
FFFC00
CFF000
C00000
C00000
C00000
600000
700000
380000
1FC000
0FC000
ENDCHAR
STARTCHAR uni0283
ENCODING 643
SWIDTH 870 0
DWIDTH 35 0
BBX 18 30 2 -4
BITMAP
000F80
003FC0
007000
006000
00C000
00C000
00C000
00C000
00C000
00C000
00C000
00C000
00C000
00C000
00C000
00C000
00C000
00C000
00C000
00C000
00C000
00C000
00C000
00C000
00C000
00C000
018000
038000
FF0000
7C0000
ENDCHAR
STARTCHAR uni0284
ENCODING 644
SWIDTH 870 0
DWIDTH 35 0
BBX 18 33 3 -8
BITMAP
001F80
003FC0
007000
00E000
00C000
00C000
00C000
00C000
00C000
00C000
00C000
00C000
00C000
00C000
00C000
00C000
00C000
00C000
00C000
00C000
00C000
00C000
00C000
3FFE00
3FFE00
01C000
00C000
00C000
00C000
01C000
038000
FF0000
FE0000
ENDCHAR
STARTCHAR uni0285
ENCODING 645
SWIDTH 870 0
DWIDTH 35 0
BBX 18 23 3 -4
BITMAP
7C0000
FF0000
038000
018000
00C000
00C000
00C000
00C000
00C000
00C000
00C000
00C000
00C000
00C000
00C000
00C000
00C000
00C000
00C000
006000
007000
003FC0
000F80
ENDCHAR
STARTCHAR uni0286
ENCODING 646
SWIDTH 870 0
DWIDTH 35 0
BBX 19 34 2 -8
BITMAP
0007C0
001FE0
003800
003000
006000
006000
006000
006000
006000
006000
006000
006000
006000
006000
006000
006000
006000
006000
006000
006000
006000
006000
006000
0FE000
3FE000
70F000
E0F800
C1D800
7F8C00
3E0600
000300
000180
0000C0
000040
ENDCHAR
STARTCHAR uni0287
ENCODING 647
SWIDTH 870 0
DWIDTH 35 0
BBX 14 24 5 0
BITMAP
F800
FE00
0700
0180
0180
0180
0180
0180
0180
0180
0180
0180
0180
0180
0180
FFFC
FFFC
0180
0180
0180
0180
0180
0180
0180
ENDCHAR
STARTCHAR uni0288
ENCODING 648
SWIDTH 870 0
DWIDTH 35 0
BBX 14 34 5 -9
BITMAP
0600
0600
0600
0600
0600
0600
0600
FFFC
FFFC
0600
0600
0600
0600
0600
0600
0600
0600
0600
0600
0600
0600
0600
0600
0600
0600
0600
0600
0600
0600
0600
0700
0380
01FC
007C
ENDCHAR
STARTCHAR uni0289
ENCODING 649
SWIDTH 870 0
DWIDTH 35 0
BBX 19 19 2 0
BITMAP
300180
300180
300180
300180
300180
300180
300180
300180
FFFFE0
FFFFE0
300180
300180
300180
300180
300380
300F80
1C3F80
0FFD80
07F180
ENDCHAR
STARTCHAR uni028A
ENCODING 650
SWIDTH 870 0
DWIDTH 35 0
BBX 15 18 4 0
BITMAP
C006
C006
600C
600C
600C
600C
C006
C006
C006
C006
C006
E006
E00E
701C
783C
3FF8
1FF0
07C0
ENDCHAR
STARTCHAR uni028B
ENCODING 651
SWIDTH 870 0
DWIDTH 34 0
BBX 16 18 3 0
BITMAP
C006
C006
C006
C007
C003
C003
C003
C003
C003
C003
C003
C007
C006
C00C
601C
7878
3FE0
0FC0
ENDCHAR
STARTCHAR uni028C
ENCODING 652
SWIDTH 870 0
DWIDTH 35 0
BBX 19 19 2 0
BITMAP
00E000
01E000
01F000
01B000
03B800
033800
071C00
071C00
060C00
0E0E00
0C0600
1C0700
180700
380380
380380
300180
7001C0
6000C0
E000E0
ENDCHAR
STARTCHAR uni028D
ENCODING 653
SWIDTH 870 0
DWIDTH 35 0
BBX 19 18 2 0
BITMAP
0C0600
1E0F00
1E0F00
1E0F00
1E0F00
3F1F80
3B1F80
331980
339980
33B980
71B9C0
71F0C0
61F0C0
60F0C0
E0E0E0
E0E0E0
E00060
C00060
ENDCHAR
STARTCHAR uni028E
ENCODING 654
SWIDTH 870 0
DWIDTH 35 0
BBX 19 26 2 0
BITMAP
000F00
001F00
001A00
003800
003000
007000
006000
00E000
00E000
01E000
01F000
03B000
033800
071800
061C00
0E0C00
0C0E00
1C0600
1C0700
380300
380380
300180
7001C0
6000C0
E000E0
C00060
ENDCHAR
STARTCHAR uni028F
ENCODING 655
SWIDTH 870 0
DWIDTH 35 0
BBX 14 18 5 0
BITMAP
C018
E01C
7038
7030
3870
1CE0
1CC0
0FC0
0780
0300
0300
0300
0300
0300
0300
0300
0300
0300
ENDCHAR
STARTCHAR uni0290
ENCODING 656
SWIDTH 870 0
DWIDTH 35 0
BBX 24 26 0 -8
BITMAP
FFFE00
FFFE00
001C00
003800
007800
007000
00E000
01C000
03C000
038000
070000
0E0000
1E0000
1C0000
380000
700000
FFFF00
FFFF00
000300
000300
000300
000300
000180
0000E0
00007F
00003F
ENDCHAR
STARTCHAR uni0291
ENCODING 657
SWIDTH 870 0
DWIDTH 35 0
BBX 17 22 3 -4
BITMAP
FFFF00
FFFF00
000F00
001E00
003C00
003800
007000
00E000
01E000
03C000
078000
070000
0E3E00
1CFF80
3FC380
7F8780
7FFE00
7FF000
300000
700000
E00000
C00000
ENDCHAR
STARTCHAR uni0292
ENCODING 658
SWIDTH 870 0
DWIDTH 35 0
BBX 16 25 4 -7
BITMAP
FFFF
FFFF
000F
001E
001C
0038
0070
00E0
01C0
03C0
03F0
003C
000E
0006
0007
0003
0003
0003
0003
0003
8006
E00E
F83C
3FF8
0FE0
ENDCHAR
STARTCHAR uni0293
ENCODING 659
SWIDTH 870 0
DWIDTH 34 0
BBX 16 29 3 -11
BITMAP
FFFF
FFFF
000F
001E
003C
0038
0070
00E0
01C0
03C0
03F0
003C
000E
0006
0007
0003
0003
0003
3E03
FF87
FFC6
F1FE
7F7C
3FF8
07FC
000E
0006
0003
0001
ENDCHAR
STARTCHAR uni0294
ENCODING 660
SWIDTH 870 0
DWIDTH 34 0
BBX 14 24 4 0
BITMAP
0FC0
3FF0
7078
E018
C01C
C00C
000C
000C
000C
001C
0078
01F0
03E0
0380
0300
0300
0300
0300
0300
0300
0300
0300
0300
0300
ENDCHAR
STARTCHAR uni0295
ENCODING 661
SWIDTH 870 0
DWIDTH 35 0
BBX 14 24 4 0
BITMAP
0FC0
3FF0
7838
601C
E00C
C00C
C000
C000
C000
E000
7800
3E00
0F80
0380
0180
0180
0180
0180
0180
0180
0180
0180
0180
0180
ENDCHAR
STARTCHAR uni0296
ENCODING 662
SWIDTH 870 0
DWIDTH 35 0
BBX 14 24 5 0
BITMAP
0600
0600
0600
0600
0600
0600
0600
0600
0600
0600
0700
07C0
01F0
0078
001C
000C
000C
000C
C00C
C01C
E018
7070
3FE0
1FC0
ENDCHAR
STARTCHAR uni0297
ENCODING 663
SWIDTH 870 0
DWIDTH 35 0
BBX 18 28 2 -9
BITMAP
03F000
0FFE00
1C0F00
380780
700380
600180
E00180
C00180
C00000
C00000
C00000
C00000
C00000
C00000
C00000
C00000
C00000
C00000
C00000
C00000
C00000
E00000
600000
7000C0
3803C0
1E0F80
0FFF00
03F800
ENDCHAR
STARTCHAR uni0298
ENCODING 664
SWIDTH 870 0
DWIDTH 34 0
BBX 19 18 2 0
BITMAP
03F800
0FFE00
1E0F00
380380
7001C0
6000C0
E000E0
C0E060
C1F060
C1F060
C1F060
E0E0E0
6000C0
7001C0
380380
1E0F00
0FFE00
03F800
ENDCHAR
STARTCHAR uni0299
ENCODING 665
SWIDTH 870 0
DWIDTH 34 0
BBX 13 18 5 0
BITMAP
FF80
FFC0
C060
C030
C030
C030
C030
C0E0
FFE0
FFF0
C070
C038
C018
C018
C018
C030
FFF0
FFC0
ENDCHAR
STARTCHAR uni029A
ENCODING 666
SWIDTH 870 0
DWIDTH 35 0
BBX 17 18 3 0
BITMAP
07E000
1FF800
383C00
600E00
600700
600300
700180
780180
3FC180
7FC180
780180
E00380
C00300
C00700
E00E00
703C00
3FF800
0FE000
ENDCHAR
STARTCHAR uni029B
ENCODING 667
SWIDTH 870 0
DWIDTH 35 0
BBX 21 20 1 0
BITMAP
0000F8
03E3F8
0FFF80
1C3F00
300E00
600600
600600
C00600
C00000
C00000
C00000
C00000
C07F80
E07F80
600380
700700
380700
1C1E00
0FFC00
03F000
ENDCHAR
STARTCHAR uni029C
ENCODING 668
SWIDTH 870 0
DWIDTH 34 0
BBX 12 18 5 0
BITMAP
C030
C030
C030
C030
C030
C030
C030
C030
FFF0
FFF0
C030
C030
C030
C030
C030
C030
C030
C030
ENDCHAR
STARTCHAR uni029D
ENCODING 669
SWIDTH 870 0
DWIDTH 35 0
BBX 18 35 3 -10
BITMAP
006000
00F000
00F000
00E000
000000
000000
000000
0FE000
0FE000
006000
006000
006000
006000
006000
006000
006000
006000
006000
006000
006000
006000
006000
006000
006000
006000
1FE000
7FE000
E1F000
C0F800
C1FC00
C3DE00
7F8F00
3E0780
000380
0000C0
ENDCHAR
STARTCHAR uni029E
ENCODING 670
SWIDTH 870 0
DWIDTH 34 0
BBX 16 27 3 -9
BITMAP
F003
F803
1C03
0E03
0703
0383
01C3
00E3
0077
003F
003F
007F
00FB
01E3
03C3
0F83
1E03
1E03
0003
0003
0003
0003
0003
0003
0003
0003
0003
ENDCHAR
STARTCHAR uni029F
ENCODING 671
SWIDTH 870 0
DWIDTH 35 0
BBX 12 18 5 0
BITMAP
C000
C000
C000
C000
C000
C000
C000
C000
C000
C000
C000
C000
C000
C000
C000
C000
FFF0
FFF0
ENDCHAR
STARTCHAR uni02A0
ENCODING 672
SWIDTH 870 0
DWIDTH 35 0
BBX 23 35 0 -9
BITMAP
00003E
0000FE
0001C0
000180
000300
000300
000300
000300
07E300
0FFB00
3C3F00
300F00
600700
600700
C00300
C00300
C00300
C00300
C00300
C00300
600700
600700
300F00
3C3F00
0FFB00
07E300
000300
000300
000300
000300
000300
000300
000300
000300
000300
ENDCHAR
STARTCHAR uni02A1
ENCODING 673
SWIDTH 870 0
DWIDTH 35 0
BBX 15 24 4 0
BITMAP
0FC0
3FF0
7838
E01C
E00C
C006
0006
0006
0006
000C
003C
00F8
03E0
0380
0300
0300
FFC0
FFFC
FFFC
0300
0300
0300
0300
0300
ENDCHAR
STARTCHAR uni02A2
ENCODING 674
SWIDTH 870 0
DWIDTH 35 0
BBX 15 24 4 0
BITMAP
07E0
1FF8
383C
700E
E00E
C006
C000
C000
C000
E000
7800
3E00
0F80
0380
0180
0180
7FE0
7FFE
7FFE
0180
0180
0180
0180
0180
ENDCHAR
STARTCHAR uni02A3
ENCODING 675
SWIDTH 870 0
DWIDTH 35 0
BBX 23 26 0 0
BITMAP
001800
001800
001800
001800
001800
001800
001800
0F9800
1FFFFC
38FFFC
30781C
603838
603838
C01870
C018F0
C018E0
C019E0
C019C0
C01B80
C01B80
603F00
603F00
707E00
38FE00
1FFFFE
0F9FFE
ENDCHAR
STARTCHAR uni02A4
ENCODING 676
SWIDTH 870 0
DWIDTH 35 0
BBX 23 33 0 -7
BITMAP
001800
001800
001800
001800
001800
001800
001800
0F9800
1FFFFE
38FFFE
707FFE
60381C
60383C
C01838
C01870
C01870
C018E0
C019E0
C019F8
C018F8
60381C
60380C
70780E
38F806
1FF806
0F9806
000006
000006
00100C
001C0C
001E18
000FF0
0003E0
ENDCHAR
STARTCHAR uni02A5
ENCODING 677
SWIDTH 870 0
DWIDTH 35 0
BBX 22 30 0 -4
BITMAP
001800
001800
001800
001800
001800
001800
001800
0F9800
1FFFFC
38FFFC
30781C
603838
603838
C01870
C01870
C018E0
C018C0
C019C0
C01980
C01B80
603B78
603FFC
707FDC
38FFFC
1FFFF8
0F9FE0
000C00
001C00
001800
001000
ENDCHAR
STARTCHAR uni02A6
ENCODING 678
SWIDTH 870 0
DWIDTH 34 0
BBX 23 24 0 0
BITMAP
0C0000
0C0000
0C0000
0C0000
0C0000
CC7FC0
EDFFF0
FFF838
FFF01C
0C600C
0C600C
0C700C
0C7F80
0C3FF0
0C1FFC
0C01FC
0C001E
0C0006
0C0006
0C0006
0C000C
06001C
07FFF8
01FFE0
ENDCHAR
STARTCHAR uni02A7
ENCODING 679
SWIDTH 870 0
DWIDTH 35 0
BBX 21 30 1 -4
BITMAP
0001F0
0007F8
060E00
060C00
061800
061800
061800
061800
FFF800
FFF800
061800
061800
061800
061800
061800
061800
061800
061800
061800
061800
061800
061800
061800
079800
03F800
01F800
007000
00F000
1FE000
0F8000
ENDCHAR
STARTCHAR uni02A8
ENCODING 680
SWIDTH 870 0
DWIDTH 35 0
BBX 23 29 0 -4
BITMAP
0C0000
0C0000
0C0000
0C0000
0C0000
0C0000
ECE3E0
FFEFF0
FFFC38
0C381C
0C300C
0C300C
0C700C
0C6004
0C6000
0C6000
0C6000
0C6000
0C603C
0C60FE
0C31CE
0C3B9E
063F3C
07FFF8
01FFE0
001800
003800
003000
002000
ENDCHAR
STARTCHAR uni02A9
ENCODING 681
SWIDTH 870 0
DWIDTH 35 0
BBX 23 33 0 -8
BITMAP
01F800
03F800
070000
0C0000
0C0000
0C0000
0C0000
FFF3E0
FFFFF8
0C3E1C
0C3C0C
0C3806
0C3006
0C3006
0C3006
0C3006
0C3006
0C3006
0C3006
0C3006
0C3006
0C3006
0C3006
0C3006
0C3006
000006
000006
000006
000006
00000C
00001C
0007F8
0007E0
ENDCHAR
STARTCHAR uni02AA
ENCODING 682
SWIDTH 870 0
DWIDTH 34 0
BBX 22 25 0 0
BITMAP
FE0000
FE0000
060000
060000
060000
060000
063F00
06FFC0
07C0E0
078070
070030
070030
078030
07F800
06FFE0
067FF0
0607F8
06003C
06001C
06000C
06000C
06001C
060038
FFFFF0
FFFFC0
ENDCHAR
STARTCHAR uni02AB
ENCODING 683
SWIDTH 870 0
DWIDTH 35 0
BBX 23 25 0 0
BITMAP
FE0000
FE0000
060000
060000
060000
060000
060000
07FFF8
07FFF8
060078
0600F0
0601E0
0603C0
060380
060700
060E00
061E00
063C00
067800
067000
06E000
07C000
07C000
FFFFFE
FFFFFC
ENDCHAR
STARTCHAR uni02AC
ENCODING 684
SWIDTH 870 0
DWIDTH 35 0
BBX 11 23 6 0
BITMAP
C060
C060
EEE0
6EC0
6EC0
6FC0
7BC0
3B80
3B80
3B80
3180
0000
4040
C060
EE60
6EC0
6EC0
6EC0
7BC0
7B80
3B80
3B80
3180
ENDCHAR
STARTCHAR uni02AD
ENCODING 685
SWIDTH 870 0
DWIDTH 35 0
BBX 9 14 7 5
BITMAP
FF80
FF80
C180
C180
C180
0000
0000
0000
0000
FF80
FF80
C180
C180
C180
ENDCHAR
STARTCHAR uni02AE
ENCODING 686
SWIDTH 870 0
DWIDTH 34 0
BBX 22 26 0 -8
BITMAP
7E000C
FF000C
03800C
00C00C
00C00C
00C00C
00C00C
00C00C
00C00C
00C00C
00C00C
00C00C
00C00C
00C01C
00E03C
00707C
003FEC
000F8C
00000C
00000C
00000C
00000C
00000C
00000C
00000C
00000C
ENDCHAR
STARTCHAR uni02AF
ENCODING 687
SWIDTH 870 0
DWIDTH 34 0
BBX 23 26 0 -8
BITMAP
F80180
FE0180
060180
030180
030180
030180
030180
030180
030180
030180
030180
030180
030180
030380
038380
01C780
00FF80
007980
000180
000180
000180
0001C0
0000C0
0000E0
00007E
00003E
ENDCHAR
STARTCHAR uni02B0
ENCODING 688
SWIDTH 870 0
DWIDTH 34 0
BBX 11 20 6 14
BITMAP
C000
C000
C000
C000
C000
C000
DF00
FFC0
F0E0
E060
C060
C060
C060
C060
C060
C060
C060
C060
C060
C060
ENDCHAR
STARTCHAR uni02B1
ENCODING 689
SWIDTH 870 0
DWIDTH 34 0
BBX 11 20 6 14
BITMAP
1F00
7F00
E000
C000
C000
C000
DF00
FFC0
F0E0
E060
C060
C060
C060
C060
C060
C060
C060
C060
C060
C060
ENDCHAR
STARTCHAR uni02B2
ENCODING 690
SWIDTH 870 0
DWIDTH 35 0
BBX 11 25 7 8
BITMAP
01C0
01E0
01E0
01C0
0000
0000
0FC0
0FC0
00C0
00C0
00C0
00C0
00C0
00C0
00C0
00C0
00C0
00C0
00C0
00C0
00C0
00C0
0180
FF80
FE00
ENDCHAR
STARTCHAR uni02B3
ENCODING 691
SWIDTH 870 0
DWIDTH 35 0
BBX 11 14 6 14
BITMAP
C780
CFE0
FEE0
F840
F000
C000
C000
C000
C000
C000
C000
C000
C000
C000
ENDCHAR
STARTCHAR uni02B4
ENCODING 692
SWIDTH 870 0
DWIDTH 35 0
BBX 11 14 6 13
BITMAP
0060
0060
0060
0060
0060
0060
0060
0060
00E0
01E0
C3E0
FFE0
FE60
3C60
ENDCHAR
STARTCHAR uni02B5
ENCODING 693
SWIDTH 870 0
DWIDTH 35 0
BBX 17 21 3 6
BITMAP
006000
006000
006000
006000
006000
006000
006000
006000
00E000
01E000
C3E000
FFE000
FE6000
3C6000
006000
006000
006000
006000
003000
001F80
000F00
ENDCHAR
STARTCHAR uni02B6
ENCODING 694
SWIDTH 870 0
DWIDTH 35 0
BBX 11 14 6 14
BITMAP
C0E0
C1E0
C180
C380
C700
CF00
FE00
FF00
C380
C180
C180
C380
FF00
FE00
ENDCHAR
STARTCHAR uni02B7
ENCODING 695
SWIDTH 870 0
DWIDTH 35 0
BBX 15 15 4 13
BITMAP
C006
E006
E00E
E38E
E38C
67CC
77CC
76DC
76FC
3EF8
3C78
3C78
3C78
1C70
1830
ENDCHAR
STARTCHAR uni02B8
ENCODING 696
SWIDTH 870 0
DWIDTH 35 0
BBX 15 20 4 8
BITMAP
C006
E00E
600C
701C
3018
3838
1830
1C70
0C70
0EE0
06E0
07C0
03C0
0380
0380
0300
0700
0E00
3E00
3C00
ENDCHAR
STARTCHAR uni02B9
ENCODING 697
SWIDTH 870 0
DWIDTH 35 0
BBX 9 12 7 14
BITMAP
0400
0F00
0F80
1F00
1E00
3E00
3C00
3800
7800
7000
E000
C000
ENDCHAR
STARTCHAR uni02BA
ENCODING 698
SWIDTH 870 0
DWIDTH 35 0
BBX 16 12 4 14
BITMAP
0C18
0E1C
1FBF
1F3E
3E7C
3C78
3C78
78F0
70E0
E1C0
E1C0
C180
ENDCHAR
STARTCHAR uni02BB
ENCODING 699
SWIDTH 870 0
DWIDTH 35 0
BBX 7 13 8 13
BITMAP
08
3C
30
60
60
C0
C0
C0
FC
FE
FE
7E
3C
ENDCHAR
STARTCHAR uni02BC
ENCODING 700
SWIDTH 870 0
DWIDTH 35 0
BBX 7 13 8 13
BITMAP
78
FC
FE
FE
7E
06
06
06
0C
0C
18
38
60
ENDCHAR
STARTCHAR uni02BD
ENCODING 701
SWIDTH 870 0
DWIDTH 35 0
BBX 7 13 8 13
BITMAP
3C
7E
FE
FE
FC
C0
C0
C0
40
60
30
38
0C
ENDCHAR
STARTCHAR uni02BE
ENCODING 702
SWIDTH 870 0
DWIDTH 35 0
BBX 5 9 9 17
BITMAP
C0
F0
38
18
18
18
38
F0
C0
ENDCHAR
STARTCHAR uni02BF
ENCODING 703
SWIDTH 870 0
DWIDTH 35 0
BBX 5 9 9 17
BITMAP
18
78
E0
C0
C0
C0
E0
78
38
ENDCHAR
STARTCHAR uni02C0
ENCODING 704
SWIDTH 870 0
DWIDTH 34 0
BBX 14 17 4 7
BITMAP
0FC0
3FF0
7078
E038
C01C
C00C
000C
000C
000C
001C
0038
00F0
03E0
0380
0300
0300
0300
ENDCHAR
STARTCHAR uni02C1
ENCODING 705
SWIDTH 870 0
DWIDTH 35 0
BBX 14 17 4 7
BITMAP
0FC0
3FF0
7838
701C
E00C
C00C
C000
C000
C000
E000
7800
3E00
0F80
0380
0180
0180
0180
ENDCHAR
STARTCHAR uni02C2
ENCODING 706
SWIDTH 870 0
DWIDTH 35 0
BBX 15 16 4 11
BITMAP
0006
001E
007C
00F0
03C0
0F00
3E00
F800
F800
3E00
0F00
03C0
00F0
007C
001E
0006
ENDCHAR
STARTCHAR uni02C3
ENCODING 707
SWIDTH 870 0
DWIDTH 35 0
BBX 16 16 4 11
BITMAP
C000
F000
7C00
1E00
0780
01E0
00F8
003E
003F
00F8
01E0
0780
1F00
7C00
F000
C000
ENDCHAR
STARTCHAR uni02C4
ENCODING 708
SWIDTH 870 0
DWIDTH 35 0
BBX 17 16 3 12
BITMAP
008000
008000
01C000
01C000
03E000
077000
063000
0E3800
0C1800
1C1C00
180C00
380600
700700
600300
E00380
C00180
ENDCHAR
STARTCHAR uni02C5
ENCODING 709
SWIDTH 870 0
DWIDTH 35 0
BBX 17 16 3 11
BITMAP
C00180
E00380
600300
700700
300E00
180C00
1C1C00
0C1800
0E3800
063000
077000
03E000
01E000
01C000
008000
008000
ENDCHAR
STARTCHAR circumflex
ENCODING 710
SWIDTH 870 0
DWIDTH 35 0
BBX 13 7 5 20
BITMAP
0200
0700
1FC0
3DE0
78F0
F078
6030
ENDCHAR
STARTCHAR caron
ENCODING 711
SWIDTH 870 0
DWIDTH 35 0
BBX 13 6 5 20
BITMAP
E038
F078
38E0
1DC0
0F80
0200
ENDCHAR
STARTCHAR uni02C8
ENCODING 712
SWIDTH 870 0
DWIDTH 35 0
BBX 2 13 10 13
BITMAP
C0
C0
C0
C0
C0
C0
C0
C0
C0
C0
C0
C0
C0
ENDCHAR
STARTCHAR uni02C9
ENCODING 713
SWIDTH 870 0
DWIDTH 35 0
BBX 13 2 5 21
BITMAP
FFF8
FFF8
ENDCHAR
STARTCHAR uni02CA
ENCODING 714
SWIDTH 870 0
DWIDTH 35 0
BBX 9 7 7 20
BITMAP
0300
0780
1E00
3C00
7800
E000
4000
ENDCHAR
STARTCHAR uni02CB
ENCODING 715
SWIDTH 870 0
DWIDTH 35 0
BBX 7 7 8 21
BITMAP
C0
E0
F0
78
3E
0E
06
ENDCHAR
STARTCHAR uni02CC
ENCODING 716
SWIDTH 870 0
DWIDTH 35 0
BBX 2 13 10 -6
BITMAP
C0
C0
C0
C0
C0
C0
C0
C0
C0
C0
C0
C0
C0
ENDCHAR
STARTCHAR uni02CD
ENCODING 717
SWIDTH 870 0
DWIDTH 35 0
BBX 13 2 5 -5
BITMAP
FFF8
FFF8
ENDCHAR
STARTCHAR uni02CE
ENCODING 718
SWIDTH 870 0
DWIDTH 35 0
BBX 7 7 8 -7
BITMAP
C0
E0
F0
78
3E
0E
06
ENDCHAR
STARTCHAR uni02CF
ENCODING 719
SWIDTH 870 0
DWIDTH 35 0
BBX 7 7 8 -7
BITMAP
06
0E
1E
38
70
E0
C0
ENDCHAR
STARTCHAR uni02D0
ENCODING 720
SWIDTH 870 0
DWIDTH 35 0
BBX 5 18 9 0
BITMAP
F8
F8
70
70
70
70
20
00
00
00
00
20
70
70
70
70
F8
F8
ENDCHAR
STARTCHAR uni02D1
ENCODING 721
SWIDTH 870 0
DWIDTH 35 0
BBX 5 7 9 11
BITMAP
F8
F8
70
70
70
70
20
ENDCHAR
STARTCHAR uni02D2
ENCODING 722
SWIDTH 870 0
DWIDTH 35 0
BBX 5 9 9 9
BITMAP
C0
F0
38
18
18
18
38
F0
C0
ENDCHAR
STARTCHAR uni02D3
ENCODING 723
SWIDTH 870 0
DWIDTH 35 0
BBX 5 9 9 9
BITMAP
18
78
E0
C0
C0
C0
E0
78
18
ENDCHAR
STARTCHAR uni02D4
ENCODING 724
SWIDTH 870 0
DWIDTH 34 0
BBX 10 7 6 5
BITMAP
0C00
0C00
0C00
0C00
0C00
FFC0
FFC0
ENDCHAR
STARTCHAR uni02D5
ENCODING 725
SWIDTH 870 0
DWIDTH 35 0
BBX 11 7 6 0
BITMAP
FFE0
FFE0
0400
0400
0C00
0C00
0C00
ENDCHAR
STARTCHAR uni02D6
ENCODING 726
SWIDTH 870 0
DWIDTH 35 0
BBX 11 12 6 0
BITMAP
0C00
0C00
0C00
0C00
0C00
FFE0
FFE0
0400
0400
0C00
0C00
0C00
ENDCHAR
STARTCHAR uni02D7
ENCODING 727
SWIDTH 870 0
DWIDTH 35 0
BBX 11 2 6 5
BITMAP
FFE0
FFE0
ENDCHAR
STARTCHAR breve
ENCODING 728
SWIDTH 870 0
DWIDTH 34 0
BBX 11 7 6 21
BITMAP
4040
C060
C060
E0E0
71C0
3F80
1F00
ENDCHAR
STARTCHAR dotaccent
ENCODING 729
SWIDTH 870 0
DWIDTH 35 0
BBX 4 4 10 21
BITMAP
60
F0
F0
E0
ENDCHAR
STARTCHAR ring
ENCODING 730
SWIDTH 870 0
DWIDTH 35 0
BBX 7 8 8 20
BITMAP
38
7C
CE
C6
C6
CE
7C
38
ENDCHAR
STARTCHAR ogonek
ENCODING 731
SWIDTH 870 0
DWIDTH 35 0
BBX 7 5 8 -5
BITMAP
7E
F0
C6
FE
7C
ENDCHAR
STARTCHAR tilde
ENCODING 732
SWIDTH 870 0
DWIDTH 35 0
BBX 13 5 5 20
BITMAP
1C18
7E38
FFF8
E3F0
C1C0
ENDCHAR
STARTCHAR hungarumlaut
ENCODING 733
SWIDTH 870 0
DWIDTH 35 0
BBX 13 7 5 20
BITMAP
0618
0F38
1E78
3DE0
F3C0
E780
C300
ENDCHAR
STARTCHAR uni02DE
ENCODING 734
SWIDTH 870 0
DWIDTH 35 0
BBX 9 5 7 10
BITMAP
2100
E180
7300
3F00
1C00
ENDCHAR
STARTCHAR uni02DF
ENCODING 735
SWIDTH 870 0
DWIDTH 35 0
BBX 11 10 6 19
BITMAP
4040
E0E0
3180
1B00
0E00
0E00
1B00
31C0
60C0
C060
ENDCHAR
STARTCHAR uni02E0
ENCODING 736
SWIDTH 870 0
DWIDTH 35 0
BBX 13 19 5 9
BITMAP
C018
C038
6030
7070
3060
18C0
19C0
0D80
0F80
0700
0700
0700
0D00
0D80
0D80
0D80
0D80
0F80
0700
ENDCHAR
STARTCHAR uni02E1
ENCODING 737
SWIDTH 870 0
DWIDTH 35 0
BBX 14 19 5 14
BITMAP
7F00
7F00
0300
0300
0300
0300
0300
0300
0300
0300
0300
0300
0300
0300
0300
0300
0300
FFFC
FFFC
ENDCHAR
STARTCHAR uni02E2
ENCODING 738
SWIDTH 870 0
DWIDTH 35 0
BBX 13 15 5 13
BITMAP
0F80
3FE0
7070
6030
6030
7000
3FC0
1FF0
00F0
4038
E018
6018
7838
3FF0
0FC0
ENDCHAR
STARTCHAR uni02E3
ENCODING 739
SWIDTH 870 0
DWIDTH 35 0
BBX 17 15 3 13
BITMAP
700600
F80F00
7C1C00
1E3800
0F7000
07E000
03C000
03E000
07F000
0E7800
1C3C00
381E00
700F80
600300
C00000
ENDCHAR
STARTCHAR uni02E4
ENCODING 740
SWIDTH 870 0
DWIDTH 35 0
BBX 11 19 6 13
BITMAP
1F80
7FC0
70E0
E060
C060
C000
C000
E000
7800
3E00
0E00
0600
0600
0600
0600
0600
0600
0600
0600
ENDCHAR
STARTCHAR uni02E5
ENCODING 741
SWIDTH 870 0
DWIDTH 35 0
BBX 10 25 6 0
BITMAP
FFC0
FFC0
00C0
00C0
00C0
00C0
00C0
00C0
00C0
00C0
00C0
00C0
00C0
00C0
00C0
00C0
00C0
00C0
00C0
00C0
00C0
00C0
00C0
00C0
00C0
ENDCHAR
STARTCHAR uni02E6
ENCODING 742
SWIDTH 870 0
DWIDTH 35 0
BBX 10 26 6 0
BITMAP
00C0
00C0
00C0
00C0
00C0
00C0
FFC0
FFC0
00C0
00C0
00C0
00C0
00C0
00C0
00C0
00C0
00C0
00C0
00C0
00C0
00C0
00C0
00C0
00C0
00C0
00C0
ENDCHAR
STARTCHAR uni02E7
ENCODING 743
SWIDTH 870 0
DWIDTH 35 0
BBX 10 26 6 0
BITMAP
00C0
00C0
00C0
00C0
00C0
00C0
00C0
00C0
00C0
00C0
00C0
00C0
FFC0
FFC0
00C0
00C0
00C0
00C0
00C0
00C0
00C0
00C0
00C0
00C0
00C0
00C0
ENDCHAR
STARTCHAR uni02E8
ENCODING 744
SWIDTH 870 0
DWIDTH 35 0
BBX 10 26 6 0
BITMAP
00C0
00C0
00C0
00C0
00C0
00C0
00C0
00C0
00C0
00C0
00C0
00C0
00C0
00C0
00C0
00C0
00C0
00C0
FFC0
FFC0
00C0
00C0
00C0
00C0
00C0
00C0
ENDCHAR
STARTCHAR uni02E9
ENCODING 745
SWIDTH 870 0
DWIDTH 35 0
BBX 10 26 6 0
BITMAP
00C0
00C0
00C0
00C0
00C0
00C0
00C0
00C0
00C0
00C0
00C0
00C0
00C0
00C0
00C0
00C0
00C0
00C0
00C0
00C0
00C0
00C0
00C0
00C0
FFC0
FFC0
ENDCHAR
STARTCHAR uni02EA
ENCODING 746
SWIDTH 870 0
DWIDTH 35 0
BBX 6 14 9 6
BITMAP
C0
C0
C0
C0
C0
C0
C0
C0
C0
C0
C0
C0
FC
FC
ENDCHAR
STARTCHAR uni02EB
ENCODING 747
SWIDTH 870 0
DWIDTH 35 0
BBX 6 14 9 6
BITMAP
C0
C0
C0
C0
C0
C0
FC
FC
C0
C0
C0
C0
C0
C0
ENDCHAR
STARTCHAR uni02EC
ENCODING 748
SWIDTH 870 0
DWIDTH 35 0
BBX 13 11 5 -11
BITMAP
E038
6030
7070
3060
38E0
18C0
1DC0
0D80
0F80
0700
0700
ENDCHAR
STARTCHAR uni02ED
ENCODING 749
SWIDTH 870 0
DWIDTH 35 0
BBX 13 6 5 16
BITMAP
FFF8
FFF8
0000
0000
FFF8
FFF8
ENDCHAR
STARTCHAR uni02EE
ENCODING 750
SWIDTH 870 0
DWIDTH 35 0
BBX 15 13 4 13
BITMAP
7878
FCFC
FEFE
FEFE
7E7E
0606
0606
0606
040C
0C0C
1818
3838
6060
ENDCHAR
STARTCHAR uni02EF
ENCODING 751
SWIDTH 870 0
DWIDTH 35 0
BBX 9 10 7 -9
BITMAP
4180
C380
E300
6700
7600
7E00
3C00
3C00
1800
1800
ENDCHAR
STARTCHAR uni02F0
ENCODING 752
SWIDTH 870 0
DWIDTH 35 0
BBX 9 10 7 -9
BITMAP
0C00
0C00
1E00
1E00
3F00
3700
7300
6380
E380
C180
ENDCHAR
STARTCHAR uni02F1
ENCODING 753
SWIDTH 870 0
DWIDTH 35 0
BBX 9 9 7 -9
BITMAP
0380
0F80
7F00
F800
F800
7C00
1F00
0780
0180
ENDCHAR
STARTCHAR uni02F2
ENCODING 754
SWIDTH 870 0
DWIDTH 35 0
BBX 9 9 7 -9
BITMAP
E000
F800
7F00
0F80
0F80
3F00
7C00
F000
C000
ENDCHAR
STARTCHAR uni02F3
ENCODING 755
SWIDTH 870 0
DWIDTH 35 0
BBX 7 8 8 -10
BITMAP
38
7C
CE
C6
C6
CE
7C
38
ENDCHAR
STARTCHAR uni02F4
ENCODING 756
SWIDTH 870 0
DWIDTH 35 0
BBX 9 7 7 11
BITMAP
6000
F000
7C00
3E00
1F00
0700
0380
ENDCHAR
STARTCHAR uni02F5
ENCODING 757
SWIDTH 870 0
DWIDTH 35 0
BBX 13 7 5 11
BITMAP
C300
E780
F3C0
3DE0
1E78
0F38
0618
ENDCHAR
STARTCHAR uni02F6
ENCODING 758
SWIDTH 870 0
DWIDTH 35 0
BBX 13 7 5 11
BITMAP
0618
0F38
1E78
3DE0
F3C0
E780
C300
ENDCHAR
STARTCHAR uni02F7
ENCODING 759
SWIDTH 870 0
DWIDTH 35 0
BBX 13 5 5 -7
BITMAP
1C18
7E38
FFF8
E3F0
C1C0
ENDCHAR
STARTCHAR uni02F8
ENCODING 760
SWIDTH 870 0
DWIDTH 35 0
BBX 5 18 9 12
BITMAP
70
F8
F8
F8
70
00
00
00
00
00
00
00
00
70
F8
F8
F8
70
ENDCHAR
STARTCHAR uni02F9
ENCODING 761
SWIDTH 870 0
DWIDTH 35 0
BBX 6 7 8 17
BITMAP
FC
FC
C0
C0
C0
C0
C0
ENDCHAR
STARTCHAR uni02FA
ENCODING 762
SWIDTH 870 0
DWIDTH 35 0
BBX 6 7 9 17
BITMAP
FC
FC
0C
0C
0C
0C
0C
ENDCHAR
STARTCHAR uni02FB
ENCODING 763
SWIDTH 870 0
DWIDTH 35 0
BBX 6 7 8 0
BITMAP
C0
C0
C0
C0
C0
FC
FC
ENDCHAR
STARTCHAR uni02FC
ENCODING 764
SWIDTH 870 0
DWIDTH 35 0
BBX 6 7 9 0
BITMAP
0C
0C
0C
0C
0C
FC
FC
ENDCHAR
STARTCHAR uni02FD
ENCODING 765
SWIDTH 870 0
DWIDTH 34 0
BBX 20 7 1 -4
BITMAP
C00030
C00030
C00030
C00030
C00030
FFFFF0
FFFFF0
ENDCHAR
STARTCHAR uni02FE
ENCODING 766
SWIDTH 870 0
DWIDTH 35 0
BBX 20 7 2 -4
BITMAP
C00000
C00000
C00000
C00000
C00000
FFFFF0
FFFFF0
ENDCHAR
STARTCHAR uni02FF
ENCODING 767
SWIDTH 870 0
DWIDTH 35 0
BBX 15 7 4 -4
BITMAP
1800
3800
7000
FFFC
7FFE
3000
1800
ENDCHAR
STARTCHAR gravecomb
ENCODING 768
SWIDTH 870 0
DWIDTH 35 0
BBX 9 7 -16 20
BITMAP
6000
F000
3C00
1E00
0F00
0300
0180
ENDCHAR
STARTCHAR acutecomb
ENCODING 769
SWIDTH 870 0
DWIDTH 35 0
BBX 8 7 -14 20
BITMAP
03
07
1E
3C
78
E0
40
ENDCHAR
STARTCHAR uni0302
ENCODING 770
SWIDTH 870 0
DWIDTH 35 0
BBX 13 7 -18 20
BITMAP
0200
0700
1FC0
3DE0
78F0
F078
6030
ENDCHAR
STARTCHAR tildecomb
ENCODING 771
SWIDTH 870 0
DWIDTH 35 0
BBX 13 5 -18 20
BITMAP
1C18
3F38
7FF8
E3F0
C1E0
ENDCHAR
STARTCHAR uni0304
ENCODING 772
SWIDTH 870 0
DWIDTH 35 0
BBX 13 2 -18 21
BITMAP
FFF8
FFF8
ENDCHAR
STARTCHAR uni0305
ENCODING 773
SWIDTH 870 0
DWIDTH 35 0
BBX 23 2 -23 29
BITMAP
FFFFFE
FFFFFE
ENDCHAR
STARTCHAR uni0306
ENCODING 774
SWIDTH 870 0
DWIDTH 35 0
BBX 11 7 -17 21
BITMAP
4040
C060
C060
E0E0
71C0
3F80
1F00
ENDCHAR
STARTCHAR uni0307
ENCODING 775
SWIDTH 870 0
DWIDTH 35 0
BBX 4 4 -13 21
BITMAP
60
F0
F0
E0
ENDCHAR
STARTCHAR uni0308
ENCODING 776
SWIDTH 870 0
DWIDTH 35 0
BBX 13 4 -18 21
BITMAP
E030
F078
F078
6070
ENDCHAR
STARTCHAR hookabovecomb
ENCODING 777
SWIDTH 870 0
DWIDTH 35 0
BBX 8 8 -15 20
BITMAP
3C
FE
C7
43
07
1E
18
18
ENDCHAR
STARTCHAR uni030A
ENCODING 778
SWIDTH 870 0
DWIDTH 35 0
BBX 7 8 -15 20
BITMAP
38
7C
CE
C6
C6
CE
7C
38
ENDCHAR
STARTCHAR uni030B
ENCODING 779
SWIDTH 870 0
DWIDTH 35 0
BBX 13 7 -18 20
BITMAP
0618
0F38
1E78
3DE0
F3C0
E780
C300
ENDCHAR
STARTCHAR uni030C
ENCODING 780
SWIDTH 870 0
DWIDTH 35 0
BBX 13 6 -18 20
BITMAP
6038
F078
38F0
1DC0
0F80
0200
ENDCHAR
STARTCHAR uni030D
ENCODING 781
SWIDTH 870 0
DWIDTH 35 0
BBX 2 7 -12 19
BITMAP
C0
C0
C0
C0
C0
C0
C0
ENDCHAR
STARTCHAR uni030E
ENCODING 782
SWIDTH 870 0
DWIDTH 35 0
BBX 6 7 -15 19
BITMAP
CC
CC
CC
CC
CC
CC
CC
ENDCHAR
STARTCHAR uni030F
ENCODING 783
SWIDTH 870 0
DWIDTH 35 0
BBX 14 7 -20 20
BITMAP
C300
F380
7BC0
3CF0
1E78
0F3C
0318
ENDCHAR
STARTCHAR uni0310
ENCODING 784
SWIDTH 870 0
DWIDTH 35 0
BBX 11 8 -17 21
BITMAP
0600
CF60
CF60
CE60
60C0
71C0
3F80
1F00
ENDCHAR
STARTCHAR uni0311
ENCODING 785
SWIDTH 870 0
DWIDTH 35 0
BBX 11 7 -17 20
BITMAP
1F00
3F80
71C0
60C0
C060
C060
C060
ENDCHAR
STARTCHAR uni0312
ENCODING 786
SWIDTH 870 0
DWIDTH 35 0
BBX 7 11 -15 18
BITMAP
08
3C
70
60
C0
C0
FC
FE
FE
7E
3C
ENDCHAR
STARTCHAR uni0313
ENCODING 787
SWIDTH 870 0
DWIDTH 35 0
BBX 7 11 -15 18
BITMAP
78
FC
FE
FE
7E
06
06
0C
1C
38
20
ENDCHAR
STARTCHAR uni0314
ENCODING 788
SWIDTH 870 0
DWIDTH 35 0
BBX 7 11 -15 18
BITMAP
3C
7E
FE
FE
FC
C0
C0
60
70
38
0C
ENDCHAR
STARTCHAR uni0315
ENCODING 789
SWIDTH 870 0
DWIDTH 35 0
BBX 7 11 -7 18
BITMAP
78
FC
FE
FE
7E
06
06
0C
1C
38
20
ENDCHAR
STARTCHAR uni0316
ENCODING 790
SWIDTH 870 0
DWIDTH 35 0
BBX 7 7 -15 -9
BITMAP
C0
E0
70
38
1C
0E
06
ENDCHAR
STARTCHAR uni0317
ENCODING 791
SWIDTH 870 0
DWIDTH 35 0
BBX 7 7 -15 -9
BITMAP
06
0E
1E
3C
70
E0
C0
ENDCHAR
STARTCHAR uni0318
ENCODING 792
SWIDTH 870 0
DWIDTH 35 0
BBX 6 12 -14 -12
BITMAP
0C
0C
0C
0C
0C
FC
FC
0C
0C
0C
0C
0C
ENDCHAR
STARTCHAR uni0319
ENCODING 793
SWIDTH 870 0
DWIDTH 35 0
BBX 6 12 -15 -12
BITMAP
C0
C0
C0
C0
C0
FC
FC
C0
C0
C0
C0
C0
ENDCHAR
STARTCHAR uni031A
ENCODING 794
SWIDTH 870 0
DWIDTH 35 0
BBX 6 7 -14 17
BITMAP
FC
FC
0C
0C
0C
0C
0C
ENDCHAR
STARTCHAR uni031B
ENCODING 795
SWIDTH 870 0
DWIDTH 35 0
BBX 4 7 -4 12
BITMAP
30
30
30
30
60
E0
C0
ENDCHAR
STARTCHAR uni031C
ENCODING 796
SWIDTH 870 0
DWIDTH 35 0
BBX 4 8 -14 -10
BITMAP
30
70
E0
C0
C0
E0
70
30
ENDCHAR
STARTCHAR uni031D
ENCODING 797
SWIDTH 870 0
DWIDTH 34 0
BBX 10 7 -17 -7
BITMAP
0C00
0C00
0C00
0C00
0C00
FFC0
FFC0
ENDCHAR
STARTCHAR uni031E
ENCODING 798
SWIDTH 870 0
DWIDTH 35 0
BBX 11 7 -17 -12
BITMAP
FFE0
FFE0
0400
0400
0C00
0C00
0C00
ENDCHAR
STARTCHAR uni031F
ENCODING 799
SWIDTH 870 0
DWIDTH 35 0
BBX 11 12 -17 -12
BITMAP
0C00
0C00
0C00
0C00
0C00
FFE0
FFE0
0400
0400
0C00
0C00
0C00
ENDCHAR
STARTCHAR uni0320
ENCODING 800
SWIDTH 870 0
DWIDTH 35 0
BBX 13 3 -18 -9
BITMAP
FFF8
FFF8
FE00
ENDCHAR
STARTCHAR uni0321
ENCODING 801
SWIDTH 870 0
DWIDTH 35 0
BBX 10 10 -11 -8
BITMAP
00C0
00C0
00C0
00C0
00C0
00C0
0180
0780
FF00
FC00
ENDCHAR
STARTCHAR uni0322
ENCODING 802
SWIDTH 870 0
DWIDTH 35 0
BBX 9 10 -9 -8
BITMAP
C000
C000
C000
C000
C000
C000
6000
7000
3F80
0F80
ENDCHAR
STARTCHAR dotbelowcomb
ENCODING 803
SWIDTH 870 0
DWIDTH 35 0
BBX 4 4 -13 -9
BITMAP
60
F0
F0
E0
ENDCHAR
STARTCHAR uni0324
ENCODING 804
SWIDTH 870 0
DWIDTH 35 0
BBX 13 4 -18 -9
BITMAP
E030
F078
F078
6070
ENDCHAR
STARTCHAR uni0325
ENCODING 805
SWIDTH 870 0
DWIDTH 35 0
BBX 7 8 -15 -10
BITMAP
38
7C
CE
C6
C6
CE
7C
38
ENDCHAR
STARTCHAR uni0326
ENCODING 806
SWIDTH 870 0
DWIDTH 35 0
BBX 7 11 -15 -12
BITMAP
78
FC
FE
FE
7E
06
06
0C
1C
38
20
ENDCHAR
STARTCHAR uni0327
ENCODING 807
SWIDTH 870 0
DWIDTH 35 0
BBX 7 8 -15 -8
BITMAP
18
18
18
1C
1E
C6
FE
7C
ENDCHAR
STARTCHAR uni0328
ENCODING 808
SWIDTH 870 0
DWIDTH 35 0
BBX 7 5 -15 -5
BITMAP
7E
F0
C6
FE
7C
ENDCHAR
STARTCHAR uni0329
ENCODING 809
SWIDTH 870 0
DWIDTH 35 0
BBX 2 7 -12 -8
BITMAP
C0
C0
C0
C0
C0
C0
C0
ENDCHAR
STARTCHAR uni032A
ENCODING 810
SWIDTH 870 0
DWIDTH 35 0
BBX 7 5 -15 -6
BITMAP
FE
FE
C6
C6
C6
ENDCHAR
STARTCHAR uni032B
ENCODING 811
SWIDTH 870 0
DWIDTH 35 0
BBX 9 7 -16 -6
BITMAP
0080
8080
8080
8880
DD80
FF80
7300
ENDCHAR
STARTCHAR uni032C
ENCODING 812
SWIDTH 870 0
DWIDTH 35 0
BBX 13 7 -18 -9
BITMAP
6030
F078
78F0
3DE0
1FC0
0700
0200
ENDCHAR
STARTCHAR uni032D
ENCODING 813
SWIDTH 870 0
DWIDTH 35 0
BBX 13 6 -18 -8
BITMAP
0200
0F80
1DC0
78F0
F078
4030
ENDCHAR
STARTCHAR uni032E
ENCODING 814
SWIDTH 870 0
DWIDTH 35 0
BBX 11 7 -17 -8
BITMAP
4040
C060
C060
E0E0
71C0
3F80
1F00
ENDCHAR
STARTCHAR uni032F
ENCODING 815
SWIDTH 870 0
DWIDTH 35 0
BBX 11 7 -17 -7
BITMAP
1F00
3F80
71C0
60C0
C060
C060
C060
ENDCHAR
STARTCHAR uni0330
ENCODING 816
SWIDTH 870 0
DWIDTH 35 0
BBX 13 5 -18 -7
BITMAP
1C18
3F38
7FF8
E3F0
C1E0
ENDCHAR
STARTCHAR uni0331
ENCODING 817
SWIDTH 870 0
DWIDTH 35 0
BBX 10 2 -16 -4
BITMAP
FFC0
FFC0
ENDCHAR
STARTCHAR uni0332
ENCODING 818
SWIDTH 870 0
DWIDTH 35 0
BBX 23 2 -23 -7
BITMAP
FFFFFE
FFFFFE
ENDCHAR
STARTCHAR uni0333
ENCODING 819
SWIDTH 870 0
DWIDTH 35 0
BBX 23 7 -23 -10
BITMAP
FFFFFE
FFFFFE
000000
000000
000000
FFFFFE
FFFFFE
ENDCHAR
STARTCHAR uni0334
ENCODING 820
SWIDTH 870 0
DWIDTH 35 0
BBX 17 5 -20 8
BITMAP
0F0180
3FC780
71FF00
E0FE00
C03800
ENDCHAR
STARTCHAR uni0335
ENCODING 821
SWIDTH 870 0
DWIDTH 35 0
BBX 17 2 -20 8
BITMAP
FFFF80
FFFF80
ENDCHAR
STARTCHAR uni0336
ENCODING 822
SWIDTH 870 0
DWIDTH 35 0
BBX 21 2 -22 8
BITMAP
FFFFF8
FFFFF8
ENDCHAR
STARTCHAR uni0337
ENCODING 823
SWIDTH 870 0
DWIDTH 35 0
BBX 15 10 -19 4
BITMAP
000E
001E
007C
01F8
03E0
0F80
3F00
FC00
F000
E000
ENDCHAR
STARTCHAR uni0338
ENCODING 824
SWIDTH 870 0
DWIDTH 35 0
BBX 15 32 -19 -7
BITMAP
0006
0006
000E
000C
001C
0018
0038
0038
0070
0070
0060
00E0
00C0
01C0
0180
0380
0380
0300
0700
0600
0E00
0C00
1C00
1800
3800
3800
3000
7000
6000
E000
C000
C000
ENDCHAR
STARTCHAR uni0339
ENCODING 825
SWIDTH 870 0
DWIDTH 35 0
BBX 4 8 -14 -10
BITMAP
C0
E0
70
30
30
30
E0
C0
ENDCHAR
STARTCHAR uni033A
ENCODING 826
SWIDTH 870 0
DWIDTH 35 0
BBX 7 5 -15 -7
BITMAP
C6
C6
C6
FE
FE
ENDCHAR
STARTCHAR uni033B
ENCODING 827
SWIDTH 870 0
DWIDTH 35 0
BBX 6 6 -14 -9
BITMAP
FC
FC
8C
8C
FC
FC
ENDCHAR
STARTCHAR uni033C
ENCODING 828
SWIDTH 870 0
DWIDTH 35 0
BBX 13 4 -18 -5
BITMAP
78F0
7DF0
8F08
0200
ENDCHAR
STARTCHAR uni033D
ENCODING 829
SWIDTH 870 0
DWIDTH 35 0
BBX 11 8 -17 19
BITMAP
E0C0
7180
3F00
0E00
1F00
3B80
71C0
C0E0
ENDCHAR
STARTCHAR uni033E
ENCODING 830
SWIDTH 870 0
DWIDTH 35 0
BBX 5 11 -14 18
BITMAP
30
70
E0
E0
E0
70
38
18
38
70
60
ENDCHAR
STARTCHAR uni033F
ENCODING 831
SWIDTH 870 0
DWIDTH 35 0
BBX 13 7 -18 21
BITMAP
FFF8
FFF8
0000
0000
0000
FFF8
FFF8
ENDCHAR
STARTCHAR uni0340
ENCODING 832
SWIDTH 870 0
DWIDTH 35 0
BBX 8 7 -22 24
BITMAP
40
E0
78
3C
1E
0F
02
ENDCHAR
STARTCHAR uni0341
ENCODING 833
SWIDTH 870 0
DWIDTH 35 0
BBX 8 8 -9 23
BITMAP
03
07
0F
1E
38
70
E0
40
ENDCHAR
STARTCHAR uni0342
ENCODING 834
SWIDTH 870 0
DWIDTH 35 0
BBX 13 5 -18 20
BITMAP
1C18
3F38
7FF8
E3F0
C1E0
ENDCHAR
STARTCHAR uni0343
ENCODING 835
SWIDTH 870 0
DWIDTH 35 0
BBX 7 11 -15 18
BITMAP
78
FC
FE
FE
7E
06
06
0C
1C
38
20
ENDCHAR
STARTCHAR uni0344
ENCODING 836
SWIDTH 870 0
DWIDTH 35 0
BBX 13 8 -18 21
BITMAP
0010
0078
00F0
01E0
E3E0
F7F0
F6F0
60E0
ENDCHAR
STARTCHAR uni0345
ENCODING 837
SWIDTH 870 0
DWIDTH 35 0
BBX 5 7 -14 -8
BITMAP
C0
C0
C0
C0
C0
F8
78
ENDCHAR
STARTCHAR uni0346
ENCODING 838
SWIDTH 870 0
DWIDTH 35 0
BBX 7 5 -15 22
BITMAP
FE
FE
C6
C6
C6
ENDCHAR
STARTCHAR uni0347
ENCODING 839
SWIDTH 870 0
DWIDTH 35 0
BBX 13 7 -18 -9
BITMAP
FFF8
FFF8
0000
0000
FFF8
FFF8
FE00
ENDCHAR
STARTCHAR uni0348
ENCODING 840
SWIDTH 870 0
DWIDTH 35 0
BBX 5 7 -14 -8
BITMAP
D8
D8
D8
D8
D8
D8
D8
ENDCHAR
STARTCHAR uni0349
ENCODING 841
SWIDTH 870 0
DWIDTH 35 0
BBX 6 7 -14 -12
BITMAP
FC
FC
0C
0C
0C
0C
0C
ENDCHAR
STARTCHAR uni034A
ENCODING 842
SWIDTH 870 0
DWIDTH 35 0
BBX 13 7 -18 21
BITMAP
0060
1DE8
3FF8
7FB8
FFF0
FDE0
1800
ENDCHAR
STARTCHAR uni034B
ENCODING 843
SWIDTH 870 0
DWIDTH 35 0
BBX 13 11 -18 19
BITMAP
0300
0780
0780
1F18
3E38
7F78
F7F0
EFE0
DFC0
1E00
1C00
ENDCHAR
STARTCHAR uni034C
ENCODING 844
SWIDTH 870 0
DWIDTH 35 0
BBX 13 9 -18 20
BITMAP
1C18
3F38
7FF8
7FF8
FFF8
7FF8
7FF8
E3F0
C1E0
ENDCHAR
STARTCHAR uni034D
ENCODING 845
SWIDTH 870 0
DWIDTH 35 0
BBX 12 8 -18 -11
BITMAP
1980
39C0
70E0
FFF0
FFF0
70E0
39C0
1980
ENDCHAR
STARTCHAR uni034E
ENCODING 846
SWIDTH 870 0
DWIDTH 35 0
BBX 8 8 -15 -11
BITMAP
18
3C
7E
FF
5A
18
18
18
ENDCHAR
STARTCHAR uni034F
ENCODING 847
SWIDTH 870 0
DWIDTH 35 0
BBX 1 1 0 0
BITMAP
00
ENDCHAR
STARTCHAR uni0350
ENCODING 848
SWIDTH 870 0
DWIDTH 35 0
BBX 9 8 -16 20
BITMAP
E000
FC00
3F80
0780
1F80
7E00
F000
C000
ENDCHAR
STARTCHAR uni0351
ENCODING 849
SWIDTH 870 0
DWIDTH 35 0
BBX 4 8 -14 20
BITMAP
30
70
E0
C0
C0
E0
70
30
ENDCHAR
STARTCHAR uni0352
ENCODING 850
SWIDTH 870 0
DWIDTH 35 0
BBX 11 9 -17 20
BITMAP
1F00
3F80
71C0
60C0
C060
CE60
CF60
0F00
0600
ENDCHAR
STARTCHAR uni0353
ENCODING 851
SWIDTH 870 0
DWIDTH 35 0
BBX 9 9 -16 -10
BITMAP
C100
E380
7700
3E00
1C00
3E00
7F00
7380
E180
ENDCHAR
STARTCHAR uni0354
ENCODING 852
SWIDTH 870 0
DWIDTH 35 0
BBX 9 9 -16 -9
BITMAP
0380
0F80
7F00
F800
F800
7C00
1F00
0780
0180
ENDCHAR
STARTCHAR uni0355
ENCODING 853
SWIDTH 870 0
DWIDTH 35 0
BBX 9 9 -16 -9
BITMAP
E000
F800
7F00
0F80
0F80
3F00
7C00
F000
C000
ENDCHAR
STARTCHAR uni0356
ENCODING 854
SWIDTH 870 0
DWIDTH 35 0
BBX 17 10 -20 -9
BITMAP
000C00
701C00
7E1E00
1FBE00
03FE00
0FF700
1E7300
78E300
E0E380
C0C180
ENDCHAR
STARTCHAR uni0357
ENCODING 855
SWIDTH 870 0
DWIDTH 35 0
BBX 4 8 -14 20
BITMAP
C0
E0
70
30
30
30
E0
C0
ENDCHAR
STARTCHAR uni0358
ENCODING 856
SWIDTH 870 0
DWIDTH 35 0
BBX 5 5 -5 22
BITMAP
70
F8
F8
F8
70
ENDCHAR
STARTCHAR uni0359
ENCODING 857
SWIDTH 870 0
DWIDTH 35 0
BBX 10 12 -12 -12
BITMAP
0C00
0C00
0C00
CDC0
EFC0
7FC0
1E00
FF80
EFC0
0DC0
0C00
0C00
ENDCHAR
STARTCHAR uni035A
ENCODING 858
SWIDTH 870 0
DWIDTH 35 0
BBX 14 8 -17 -9
BITMAP
3CF0
7FF8
E79C
C30C
C30C
E79C
7FF8
3CF0
ENDCHAR
STARTCHAR uni035B
ENCODING 859
SWIDTH 870 0
DWIDTH 35 0
BBX 9 12 -14 20
BITMAP
7800
7000
7000
7000
7000
FF80
FF00
E700
0700
0F00
0E00
0E00
ENDCHAR
STARTCHAR uni035C
ENCODING 860
SWIDTH 870 0
DWIDTH 35 0
BBX 22 7 -11 -6
BITMAP
E0001C
E0001C
700038
380078
1E01E0
0FFFC0
01FE00
ENDCHAR
STARTCHAR uni035D
ENCODING 861
SWIDTH 870 0
DWIDTH 35 0
BBX 22 7 -11 21
BITMAP
E0001C
E0001C
700038
380078
1E01E0
0FFFC0
01FE00
ENDCHAR
STARTCHAR uni035E
ENCODING 862
SWIDTH 870 0
DWIDTH 35 0
BBX 20 2 -10 21
BITMAP
FFFFF0
FFFFF0
ENDCHAR
STARTCHAR uni035F
ENCODING 863
SWIDTH 870 0
DWIDTH 35 0
BBX 20 2 -10 -7
BITMAP
FFFFF0
FFFFF0
ENDCHAR
STARTCHAR uni0360
ENCODING 864
SWIDTH 870 0
DWIDTH 35 0
BBX 23 5 -11 20
BITMAP
07C00E
3FF03E
7FFC7C
FC7FF0
E00FC0
ENDCHAR
STARTCHAR uni0361
ENCODING 865
SWIDTH 870 0
DWIDTH 35 0
BBX 22 7 -11 20
BITMAP
01FE00
0FFFC0
1E01E0
380070
700038
E0001C
E0001C
ENDCHAR
STARTCHAR uni0362
ENCODING 866
SWIDTH 870 0
DWIDTH 35 0
BBX 23 8 -11 -11
BITMAP
000020
000030
000018
FFFFFC
FFFFFE
00001C
000038
000030
ENDCHAR
STARTCHAR uni0363
ENCODING 867
SWIDTH 870 0
DWIDTH 35 0
BBX 9 10 -16 19
BITMAP
3E00
7F80
2180
3F80
7F80
E180
C180
C380
7F80
3F80
ENDCHAR
STARTCHAR uni0364
ENCODING 868
SWIDTH 870 0
DWIDTH 35 0
BBX 11 10 -17 19
BITMAP
1F00
7F80
61C0
FFC0
FFC0
C000
E040
70E0
3FC0
1F00
ENDCHAR
STARTCHAR uni0365
ENCODING 869
SWIDTH 870 0
DWIDTH 35 0
BBX 10 12 -16 20
BITMAP
1C00
1C00
0000
7C00
7C00
0C00
0C00
0C00
0C00
0C00
FFC0
FFC0
ENDCHAR
STARTCHAR uni0366
ENCODING 870
SWIDTH 870 0
DWIDTH 35 0
BBX 11 10 -17 19
BITMAP
1F00
3F80
71C0
C060
C060
C060
C060
71C0
3F80
1F00
ENDCHAR
STARTCHAR uni0367
ENCODING 871
SWIDTH 870 0
DWIDTH 35 0
BBX 9 10 -16 19
BITMAP
C180
C180
C180
C180
C180
C180
C180
C380
FF80
3F80
ENDCHAR
STARTCHAR uni0368
ENCODING 872
SWIDTH 870 0
DWIDTH 35 0
BBX 10 10 -16 19
BITMAP
1E00
7F80
6180
C180
C000
C000
C080
61C0
7F80
1F00
ENDCHAR
STARTCHAR uni0369
ENCODING 873
SWIDTH 870 0
DWIDTH 35 0
BBX 9 14 -16 19
BITMAP
0180
0180
0180
1D80
7F80
6380
C180
C180
C180
C180
C180
6380
7F80
3D80
ENDCHAR
STARTCHAR uni036A
ENCODING 874
SWIDTH 870 0
DWIDTH 35 0
BBX 7 14 -15 19
BITMAP
C0
C0
C0
F8
FC
E6
C6
C6
C6
C6
C6
C6
C6
C6
ENDCHAR
STARTCHAR uni036B
ENCODING 875
SWIDTH 870 0
DWIDTH 35 0
BBX 11 10 -17 19
BITMAP
FBC0
FFE0
E760
C660
C660
C660
C660
C660
C660
C660
ENDCHAR
STARTCHAR uni036C
ENCODING 876
SWIDTH 870 0
DWIDTH 35 0
BBX 8 10 -15 19
BITMAP
CE
FB
E0
C0
C0
C0
C0
C0
C0
C0
ENDCHAR
STARTCHAR uni036D
ENCODING 877
SWIDTH 870 0
DWIDTH 35 0
BBX 7 13 -15 19
BITMAP
30
30
30
FE
FE
30
30
30
30
30
30
3E
1E
ENDCHAR
STARTCHAR uni036E
ENCODING 878
SWIDTH 870 0
DWIDTH 35 0
BBX 9 10 -16 19
BITMAP
C180
C180
E380
6300
6300
3600
3600
1C00
1C00
1C00
ENDCHAR
STARTCHAR uni036F
ENCODING 879
SWIDTH 870 0
DWIDTH 35 0
BBX 11 10 -17 19
BITMAP
E0C0
F1C0
3B80
1F00
0E00
1E00
3F00
7380
61E0
C060
ENDCHAR
STARTCHAR uni0370
ENCODING 880
SWIDTH 870 0
DWIDTH 35 0
BBX 14 24 4 0
BITMAP
C000
C000
C000
C000
C000
C000
C000
C000
C000
C000
C000
FFFC
FFFC
C000
C000
C000
C000
C000
C000
C000
C000
C000
C000
C000
ENDCHAR
STARTCHAR uni0371
ENCODING 881
SWIDTH 870 0
DWIDTH 35 0
BBX 14 18 4 0
BITMAP
C000
C000
C000
C000
C000
C000
C000
C000
FFFC
FFFC
C000
C000
C000
C000
C000
C000
C000
C000
ENDCHAR
STARTCHAR uni0372
ENCODING 882
SWIDTH 870 0
DWIDTH 35 0
BBX 21 24 1 0
BITMAP
FFFFF8
FFFFF8
C03018
C03018
C03018
C03018
C03018
C03018
C03018
C03018
C03018
803010
003000
003000
003000
003000
003000
003000
003000
003000
003000
003000
003000
003000
ENDCHAR
STARTCHAR uni0373
ENCODING 883
SWIDTH 870 0
DWIDTH 34 0
BBX 15 25 4 0
BITMAP
FFFE
FFFE
C306
C306
C306
C306
C306
C306
C306
C306
C306
0300
0300
0300
0300
0300
0300
0300
0300
0300
0300
0300
01C0
00FE
003E
ENDCHAR
STARTCHAR uni0374
ENCODING 884
SWIDTH 870 0
DWIDTH 35 0
BBX 9 12 7 14
BITMAP
0400
0F00
0F80
1F00
1E00
3E00
3C00
3800
7800
7000
E000
C000
ENDCHAR
STARTCHAR uni0375
ENCODING 885
SWIDTH 870 0
DWIDTH 35 0
BBX 9 12 7 -7
BITMAP
0400
0F00
0F80
1F00
1E00
3E00
3C00
3800
7800
7000
E000
C000
ENDCHAR
STARTCHAR uni0376
ENCODING 886
SWIDTH 870 0
DWIDTH 35 0
BBX 17 24 3 0
BITMAP
C00380
C00780
C00780
C00F80
C01F80
C01D80
C03D80
C03980
C07180
C0F180
C0E180
C1E180
C3C180
C38180
C78180
CF0180
CE0180
DE0180
FC0180
F80180
F80180
F00180
E00180
E00180
ENDCHAR
STARTCHAR uni0377
ENCODING 887
SWIDTH 870 0
DWIDTH 35 0
BBX 20 18 5 0
BITMAP
C03800
C03800
C07800
C0F800
C0F800
C1D800
C3D800
C39800
C71800
CF1800
CE1800
DC1800
DC1800
F81800
F01800
F00E00
E007F0
C001F0
ENDCHAR
STARTCHAR uni037A
ENCODING 890
SWIDTH 870 0
DWIDTH 35 0
BBX 5 7 9 -8
BITMAP
C0
C0
C0
C0
C0
F8
78
ENDCHAR
STARTCHAR uni037B
ENCODING 891
SWIDTH 870 0
DWIDTH 35 0
BBX 18 19 3 0
BITMAP
03F000
1FFC00
3C0E00
780700
700380
600180
6001C0
6000C0
0000C0
0000C0
0000C0
0000C0
0001C0
000180
C00380
F00700
7C0F00
3FFC00
07F000
ENDCHAR
STARTCHAR uni037C
ENCODING 892
SWIDTH 870 0
DWIDTH 35 0
BBX 18 19 2 0
BITMAP
03F000
0FFE00
1C0F00
380780
700380
600180
E00180
C00180
C06000
C0F000
C0F000
C06000
C00000
600000
7000C0
3003C0
3C0F80
0FFF00
03F800
ENDCHAR
STARTCHAR uni037D
ENCODING 893
SWIDTH 870 0
DWIDTH 35 0
BBX 18 19 3 0
BITMAP
03F000
1FFC00
3C0E00
780700
700380
600180
6001C0
6000C0
0180C0
03C0C0
03C0C0
0180C0
0001C0
000180
C00380
F00700
7C0F00
3FFC00
07F000
ENDCHAR
STARTCHAR uni037E
ENCODING 894
SWIDTH 870 0
DWIDTH 35 0
BBX 7 23 8 -6
BITMAP
38
7C
7C
7C
38
00
00
00
00
00
00
00
78
FC
FE
FE
7E
06
06
0C
1C
38
20
ENDCHAR
STARTCHAR uni037F
ENCODING 895
SWIDTH 870 0
DWIDTH 35 0
BBX 17 24 3 0
BITMAP
01FF80
01FF80
000180
000180
000180
000180
000180
000180
000180
000180
000180
000180
000180
C00180
C00180
C00180
C00180
C00180
C00180
C00300
600700
781E00
3FFC00
07F000
ENDCHAR
STARTCHAR tonos
ENCODING 900
SWIDTH 870 0
DWIDTH 35 0
BBX 9 7 7 20
BITMAP
0300
0780
1E00
3C00
7800
E000
4000
ENDCHAR
STARTCHAR dieresistonos
ENCODING 901
SWIDTH 870 0
DWIDTH 34 0
BBX 13 9 5 21
BITMAP
0010
0078
00F0
01E0
03C0
E760
F6F0
F0F0
E0E0
ENDCHAR
STARTCHAR Alphatonos
ENCODING 902
SWIDTH 870 0
DWIDTH 35 0
BBX 21 26 1 0
BITMAP
C00000
C00000
C07000
C07800
C0D800
C0D800
C1CC00
018C00
018E00
038600
030600
070700
070300
060380
0E0380
0C0180
1FFFC0
1FFFC0
1800E0
3800E0
300060
700070
700030
600038
E00038
C00018
ENDCHAR
STARTCHAR anoteleia
ENCODING 903
SWIDTH 870 0
DWIDTH 35 0
BBX 5 5 9 12
BITMAP
70
F8
F8
F8
70
ENDCHAR
STARTCHAR Epsilontonos
ENCODING 904
SWIDTH 870 0
DWIDTH 35 0
BBX 19 26 2 0
BITMAP
C00000
C00000
DFFFE0
DFFFE0
D80000
D80000
D80000
180000
180000
180000
180000
180000
180000
1FF800
1FF800
180000
180000
180000
180000
180000
180000
180000
180000
180000
1FFFE0
1FFFE0
ENDCHAR
STARTCHAR Etatonos
ENCODING 905
SWIDTH 870 0
DWIDTH 35 0
BBX 19 26 2 0
BITMAP
C00000
C00000
CC0060
CC0060
CC0060
CC0060
CC0060
0C0060
0C0060
0C0060
0C0060
0C0060
0C0060
0FFFE0
0FFFE0
0C0060
0C0060
0C0060
0C0060
0C0060
0C0060
0C0060
0C0060
0C0060
0C0060
0C0060
ENDCHAR
STARTCHAR Iotatonos
ENCODING 906
SWIDTH 870 0
DWIDTH 35 0
BBX 20 26 2 0
BITMAP
C00000
C00000
CFFFF0
CFFFF0
C01800
C01800
C01800
001800
001800
001800
001800
001800
001800
001800
001800
001800
001800
001800
001800
001800
001800
001800
001800
001800
0FFFF0
0FFFF0
ENDCHAR
STARTCHAR Omicrontonos
ENCODING 908
SWIDTH 870 0
DWIDTH 35 0
BBX 21 26 1 0
BITMAP
C00000
C00000
C1FC00
C7FF00
CF0780
DC01C0
F800E0
F00060
600030
600030
E00038
C00018
C00018
C00018
C00018
C00018
C00018
E00038
600030
600030
300060
3800E0
1C01C0
0F0780
07FF00
01FC00
ENDCHAR
STARTCHAR Upsilontonos
ENCODING 910
SWIDTH 870 0
DWIDTH 35 0
BBX 21 25 1 0
BITMAP
C00000
D80030
DC0038
CE0070
CE00E0
C700E0
C381C0
038180
01C380
00E700
00E600
007E00
003C00
003C00
001800
001800
001800
001800
001800
001800
001800
001800
001800
001800
001800
ENDCHAR
STARTCHAR Omegatonos
ENCODING 911
SWIDTH 870 0
DWIDTH 34 0
BBX 21 26 1 0
BITMAP
C00000
C00000
C0FC00
C7FF80
CF03C0
DC00E0
F80060
F00030
300030
600018
600018
600018
600018
600018
600018
700038
300070
380060
1C00E0
0E01C0
070380
038700
01CE00
01CE00
7FCFF8
7FCFF8
ENDCHAR
STARTCHAR iotadieresistonos
ENCODING 912
SWIDTH 870 0
DWIDTH 34 0
BBX 13 30 5 0
BITMAP
0010
0078
00F0
01E0
03C0
E760
F6F0
F0F0
60E0
0000
0000
0000
FC00
FC00
0C00
0C00
0C00
0C00
0C00
0C00
0C00
0C00
0C00
0C00
0C00
0C00
0C00
0700
03F8
01F8
ENDCHAR
STARTCHAR Alpha
ENCODING 913
SWIDTH 870 0
DWIDTH 35 0
BBX 21 24 1 0
BITMAP
007000
007000
00F800
00D800
01DC00
019C00
038C00
038E00
030600
070700
070700
0E0300
0E0380
0C0180
1FFFC0
1FFFC0
3800C0
3800E0
300060
700070
600070
E00030
E00038
C00018
ENDCHAR
STARTCHAR Beta
ENCODING 914
SWIDTH 870 0
DWIDTH 33 0
BBX 16 24 3 0
BITMAP
FFE0
FFF0
C038
C00C
C006
C006
C006
C006
C006
C00C
C038
DFF0
FFF8
C01C
C006
C003
C003
C003
C003
C003
C006
C00E
FFFC
FFF0
ENDCHAR
STARTCHAR Gamma
ENCODING 915
SWIDTH 870 0
DWIDTH 35 0
BBX 16 24 4 0
BITMAP
FFFE
FFFF
C000
C000
C000
C000
C000
C000
C000
C000
C000
C000
C000
C000
C000
C000
C000
C000
C000
C000
C000
C000
C000
C000
ENDCHAR
STARTCHAR uni0394
ENCODING 916
SWIDTH 870 0
DWIDTH 35 0
BBX 21 24 1 0
BITMAP
007000
007000
00F800
00D800
01DC00
018C00
018C00
038E00
030600
070700
070700
060300
0E0380
0C0180
1C01C0
1C01C0
1800C0
3800E0
3800E0
300060
700070
600030
FFFFF8
FFFFF8
ENDCHAR
STARTCHAR Epsilon
ENCODING 917
SWIDTH 870 0
DWIDTH 35 0
BBX 16 24 3 0
BITMAP
FFFF
FFFF
C000
C000
C000
C000
C000
C000
C000
C000
C000
FFC0
FFC0
C000
C000
C000
C000
C000
C000
C000
C000
C000
FFFF
FFFF
ENDCHAR
STARTCHAR Zeta
ENCODING 918
SWIDTH 870 0
DWIDTH 35 0
BBX 19 24 2 0
BITMAP
7FFF80
7FFF80
000780
000700
000E00
001E00
001C00
003800
007800
007000
00E000
01E000
01C000
038000
078000
070000
0E0000
1E0000
1C0000
380000
780000
700000
FFFFC0
7FFFE0
ENDCHAR
STARTCHAR Eta
ENCODING 919
SWIDTH 870 0
DWIDTH 35 0
BBX 15 24 4 0
BITMAP
C006
C006
C006
C006
C006
C006
C006
C006
C006
C006
C006
FFFE
FFFE
C006
C006
C006
C006
C006
C006
C006
C006
C006
C006
C006
ENDCHAR
STARTCHAR Theta
ENCODING 920
SWIDTH 870 0
DWIDTH 34 0
BBX 20 24 1 0
BITMAP
01F800
07FE00
0E0700
1C0380
3801C0
7000C0
600060
600060
E00030
C00030
C00030
C7FF30
CFFFB0
C00030
C00030
C00070
600060
600060
3000E0
3801C0
1C03C0
0F0780
07FF00
01F800
ENDCHAR
STARTCHAR Iota
ENCODING 921
SWIDTH 870 0
DWIDTH 35 0
BBX 16 24 4 0
BITMAP
FFFF
FFFF
0180
0180
0180
0180
0180
0180
0180
0180
0180
0180
0180
0180
0180
0180
0180
0180
0180
0180
0180
0180
FFFF
FFFF
ENDCHAR
STARTCHAR Kappa
ENCODING 922
SWIDTH 870 0
DWIDTH 35 0
BBX 18 24 2 0
BITMAP
C00380
C00780
C00E00
C01C00
C03800
C0F000
C1E000
C3C000
C78000
CF0000
DF0000
FF8000
F1C000
E0E000
C07000
C03000
C03800
C01800
C01C00
C00C00
C00C00
C00E00
C007C0
C007C0
ENDCHAR
STARTCHAR Lambda
ENCODING 923
SWIDTH 870 0
DWIDTH 35 0
BBX 21 24 1 0
BITMAP
007000
007000
00F800
00D800
01DC00
019C00
038C00
038E00
030600
070700
060700
0E0300
0E0380
0C0180
1C01C0
1C01C0
3800C0
3800E0
300060
700070
700070
E00030
E00038
C00018
ENDCHAR
STARTCHAR Mu
ENCODING 924
SWIDTH 870 0
DWIDTH 34 0
BBX 19 24 2 0
BITMAP
E000E0
F001E0
F001E0
F803E0
F803E0
DC0760
DC0760
CE0E60
CE0E60
CE1E60
C71C60
C71C60
C3B860
C3B860
C1F060
C1F060
C0E060
C0E060
C00060
C00060
C00060
C00060
C00060
C00060
ENDCHAR
STARTCHAR Nu
ENCODING 925
SWIDTH 870 0
DWIDTH 35 0
BBX 17 24 3 0
BITMAP
E00180
F00180
F00180
F80180
FC0180
DC0180
DE0180
CE0180
C70180
C78180
C38180
C3C180
C1E180
C0E180
C0F180
C07980
C03980
C03D80
C01F80
C00F80
C00F80
C00780
C00380
C00380
ENDCHAR
STARTCHAR Xi
ENCODING 926
SWIDTH 870 0
DWIDTH 35 0
BBX 21 24 1 0
BITMAP
FFFFF8
FFFFF8
000000
000000
000000
000000
000000
000000
000000
000000
000000
0FFF00
0FFF00
000000
000000
000000
000000
000000
000000
000000
000000
000000
FFFFF8
FFFFF8
ENDCHAR
STARTCHAR Omicron
ENCODING 927
SWIDTH 870 0
DWIDTH 34 0
BBX 20 24 1 0
BITMAP
01F800
07FE00
0E0700
1C0380
3801C0
7000C0
600060
600060
E00030
C00030
C00030
C00030
C00030
C00030
C00030
C00070
600060
600060
3000E0
3801C0
1C03C0
0F0780
07FF00
01F800
ENDCHAR
STARTCHAR Pi
ENCODING 928
SWIDTH 870 0
DWIDTH 35 0
BBX 17 24 3 0
BITMAP
FFFF80
FFFF80
C00180
C00180
C00180
C00180
C00180
C00180
C00180
C00180
C00180
C00180
C00180
C00180
C00180
C00180
C00180
C00180
C00180
C00180
C00180
C00180
C00180
C00180
ENDCHAR
STARTCHAR Rho
ENCODING 929
SWIDTH 870 0
DWIDTH 34 0
BBX 16 24 3 0
BITMAP
FFE0
FFF8
C03C
C00E
C006
C003
C003
C003
C003
C007
C006
C00E
C03C
FFF8
FFC0
C000
C000
C000
C000
C000
C000
C000
C000
C000
ENDCHAR
STARTCHAR Sigma
ENCODING 931
SWIDTH 870 0
DWIDTH 35 0
BBX 19 24 2 0
BITMAP
7FFF80
FFFF80
700000
780000
380000
1C0000
1E0000
0E0000
070000
038000
038000
01C000
01C000
038000
038000
070000
0E0000
0E0000
1C0000
380000
780000
700000
FFFFC0
7FFFE0
ENDCHAR
STARTCHAR Tau
ENCODING 932
SWIDTH 870 0
DWIDTH 35 0
BBX 20 24 2 0
BITMAP
FFFFF0
FFFFF0
006000
006000
006000
006000
006000
006000
006000
006000
006000
006000
006000
006000
006000
006000
006000
006000
006000
006000
006000
006000
006000
006000
ENDCHAR
STARTCHAR Upsilon
ENCODING 933
SWIDTH 870 0
DWIDTH 35 0
BBX 18 24 3 0
BITMAP
C00180
E001C0
700380
700700
380700
1C0E00
1C0C00
0E1C00
073800
073000
03F000
01E000
01C000
00C000
00C000
00C000
00C000
00C000
00C000
00C000
00C000
00C000
00C000
00C000
ENDCHAR
STARTCHAR Phi
ENCODING 934
SWIDTH 870 0
DWIDTH 34 0
BBX 19 24 2 0
BITMAP
3FFFC0
3FFFC0
006000
006000
006000
03FC00
1FFF00
3C6780
7061C0
6060C0
C06060
C06060
C06060
C06060
C06060
6060E0
7061C0
3C6380
1FFF00
03FC00
006000
006000
3FFFC0
3FFFC0
ENDCHAR
STARTCHAR Chi
ENCODING 935
SWIDTH 870 0
DWIDTH 35 0
BBX 23 25 0 -1
BITMAP
700038
F80038
1C0070
0C00E0
0E01E0
0701C0
038380
018700
01CF00
00EE00
007C00
003800
007800
007C00
00EE00
01C600
01C700
038380
0701C0
0E00C0
0E00E0
1C0070
38003E
70001E
700000
ENDCHAR
STARTCHAR Psi
ENCODING 936
SWIDTH 870 0
DWIDTH 35 0
BBX 17 24 3 0
BITMAP
C18180
C18180
C18180
C18180
C18180
C18180
C18180
C18180
C18180
C18180
C18180
618300
618700
318E00
3DBC00
0FF800
03C000
018000
018000
018000
018000
018000
018000
018000
ENDCHAR
STARTCHAR uni03A9
ENCODING 937
SWIDTH 870 0
DWIDTH 35 0
BBX 21 24 1 0
BITMAP
01FC00
07FF00
1E03C0
3800E0
300060
600030
600030
C00018
C00018
C00018
C00018
C00018
C00018
E00038
600070
700060
3800E0
1C01C0
0E0380
070700
038E00
038E00
FF8FF8
FF8FF8
ENDCHAR
STARTCHAR Iotadieresis
ENCODING 938
SWIDTH 870 0
DWIDTH 34 0
BBX 16 30 4 0
BITMAP
3830
3C78
3C78
1870
0000
0000
FFFF
FFFF
0180
0180
0180
0180
0180
0180
0180
0180
0180
0180
0180
0180
0180
0180
0180
0180
0180
0180
0180
0180
FFFF
FFFF
ENDCHAR
STARTCHAR Upsilondieresis
ENCODING 939
SWIDTH 870 0
DWIDTH 35 0
BBX 18 31 3 0
BITMAP
1C0C00
1E1E00
1E1E00
0C0C00
000000
000000
400180
E001C0
E00380
700300
380700
380E00
1C0E00
0E1C00
0E1800
073800
03F000
03E000
01E000
00C000
00C000
00C000
00C000
00C000
00C000
00C000
00C000
00C000
00C000
00C000
00C000
ENDCHAR
STARTCHAR alphatonos
ENCODING 940
SWIDTH 870 0
DWIDTH 34 0
BBX 18 27 2 0
BITMAP
000300
000700
001E00
003C00
007800
00F000
006000
000000
03F000
0FFCC0
1E0EC0
3807C0
7003C0
6001C0
E001C0
C000C0
C000C0
C000C0
C000C0
C000C0
E001C0
6001C0
7003C0
3807C0
1C1EC0
0FFCC0
03F0C0
ENDCHAR
STARTCHAR epsilontonos
ENCODING 941
SWIDTH 870 0
DWIDTH 35 0
BBX 14 27 5 0
BITMAP
001C
003C
0078
00F0
03C0
0380
0300
0000
0000
1F80
7FE0
E0F0
C070
C030
C000
F000
7F80
7F80
7800
E000
C000
C000
C000
E008
707C
3FF8
0FC0
ENDCHAR
STARTCHAR etatonos
ENCODING 942
SWIDTH 870 0
DWIDTH 35 0
BBX 15 36 4 -9
BITMAP
000E
001E
003C
0078
00F0
01C0
0180
0000
0000
C3E0
CFF8
DC1C
F00C
E006
C006
C006
C006
C006
C006
C006
C006
C006
C006
C006
C006
C006
C006
0006
0006
0006
0006
0006
0006
0006
0006
0006
ENDCHAR
STARTCHAR iotatonos
ENCODING 943
SWIDTH 870 0
DWIDTH 35 0
BBX 14 27 5 0
BITMAP
0038
0078
00F0
01E0
03C0
0700
0600
0000
0000
FE00
FE00
0600
0600
0600
0600
0600
0600
0600
0600
0600
0600
0600
0600
0600
0380
01FC
00FC
ENDCHAR
STARTCHAR upsilondieresistonos
ENCODING 944
SWIDTH 870 0
DWIDTH 34 0
BBX 16 30 3 0
BITMAP
0004
001E
003C
0078
00F0
39D8
3DBC
3C3C
3838
0000
0000
C006
C006
C006
C006
C007
C003
C003
C003
C003
C003
C003
C003
C007
C006
C00E
E01C
7878
3FF0
0FC0
ENDCHAR
STARTCHAR alpha
ENCODING 945
SWIDTH 870 0
DWIDTH 34 0
BBX 18 19 2 0
BITMAP
03F0C0
0FFCC0
1E0EC0
3807C0
7003C0
6001C0
E001C0
C000C0
C000C0
C000C0
C000C0
C000C0
E001C0
6001C0
7003C0
3807C0
1C1EC0
0FFCC0
03F0C0
ENDCHAR
STARTCHAR beta
ENCODING 946
SWIDTH 870 0
DWIDTH 35 0
BBX 15 34 4 -9
BITMAP
1F00
3FC0
70E0
E060
C030
C030
C030
C070
C0E0
C7E0
C7E0
C0F8
C03C
C01C
C00E
C006
C006
C006
C606
C706
C706
C30C
C39C
C1F8
C0F0
C000
C000
C000
C000
C000
C000
C000
C000
C000
ENDCHAR
STARTCHAR gamma
ENCODING 947
SWIDTH 870 0
DWIDTH 35 0
BBX 19 28 2 -9
BITMAP
7000C0
FE00E0
3F01C0
0781C0
01C180
00C380
00E300
006700
006600
007E00
003E00
003C00
003C00
003800
003800
003000
007000
006000
00E000
00E000
01C000
01C000
018000
038000
030000
070000
060000
060000
ENDCHAR
STARTCHAR delta
ENCODING 948
SWIDTH 870 0
DWIDTH 34 0
BBX 18 27 2 0
BITMAP
3FFE00
3FFF00
07C000
01E000
00F000
007800
003C00
001C00
000E00
03FF00
0FFF00
1E0F80
380780
700380
6001C0
C000C0
C000C0
C000C0
C000C0
C000C0
C000C0
600180
700380
380700
1C0E00
0FFC00
03F000
ENDCHAR
STARTCHAR epsilon
ENCODING 949
SWIDTH 870 0
DWIDTH 35 0
BBX 14 18 5 0
BITMAP
1F80
7FE0
E0F0
C070
C030
C000
F000
7F80
7F80
7800
E000
C000
C000
C000
E008
707C
3FF8
0FC0
ENDCHAR
STARTCHAR zeta
ENCODING 950
SWIDTH 870 0
DWIDTH 35 0
BBX 18 32 3 -5
BITMAP
3FFF00
1FFE00
00F000
01C000
038000
070000
0E0000
1C0000
1C0000
380000
300000
700000
600000
600000
E00000
C00000
C00000
C00000
C00000
C00000
C00000
600000
600000
300000
1C0000
0FFC00
03FF00
000380
000180
0001C0
0001C0
000080
ENDCHAR
STARTCHAR eta
ENCODING 951
SWIDTH 870 0
DWIDTH 35 0
BBX 15 27 4 -9
BITMAP
C7E0
CFF8
FC1C
F00C
E006
C006
C006
C006
C006
C006
C006
C006
C006
C006
C006
C006
C006
C006
0006
0006
0006
0006
0006
0006
0006
0006
0006
ENDCHAR
STARTCHAR theta
ENCODING 952
SWIDTH 870 0
DWIDTH 35 0
BBX 15 26 4 0
BITMAP
07C0
1FE0
3C70
3018
701C
600C
600C
C00E
C006
C006
C006
C006
FFFE
FFFE
C006
C006
C006
C006
C006
E00C
600C
701C
3018
3C78
1FF0
07C0
ENDCHAR
STARTCHAR iota
ENCODING 953
SWIDTH 870 0
DWIDTH 35 0
BBX 14 18 5 0
BITMAP
FE00
FE00
0600
0600
0600
0600
0600
0600
0600
0600
0600
0600
0600
0600
0600
0380
01FC
00FC
ENDCHAR
STARTCHAR kappa
ENCODING 954
SWIDTH 870 0
DWIDTH 35 0
BBX 16 18 4 0
BITMAP
C078
C078
C0F0
C3C0
C780
CF00
DE00
F800
FC00
EE00
C700
C380
C1C0
C0E0
C070
C038
C01F
C00E
ENDCHAR
STARTCHAR lambda
ENCODING 955
SWIDTH 870 0
DWIDTH 35 0
BBX 19 26 2 0
BITMAP
1E0000
1F0000
130000
038000
018000
01C000
00C000
00E000
00E000
00F000
01F000
01B800
039800
031C00
070C00
060E00
0E0600
0C0700
1C0300
180380
380380
3001C0
7001C0
6000C0
E000E0
C00060
ENDCHAR
STARTCHAR uni03BC
ENCODING 956
SWIDTH 870 0
DWIDTH 35 0
BBX 15 27 4 -9
BITMAP
C006
C006
C006
C006
C006
C006
C006
C006
C006
C006
C006
C006
C006
C00E
C01E
E0FE
FFFE
DFC6
C000
C000
C000
C000
C000
C000
C000
C000
C000
ENDCHAR
STARTCHAR nu
ENCODING 957
SWIDTH 870 0
DWIDTH 35 0
BBX 19 18 2 0
BITMAP
6000C0
E000E0
7001C0
300180
380380
180300
1C0700
1C0700
0E0E00
0E0E00
061C00
071C00
031800
03B800
01B000
01F000
01E000
00E000
ENDCHAR
STARTCHAR xi
ENCODING 958
SWIDTH 870 0
DWIDTH 35 0
BBX 18 32 2 -5
BITMAP
1FFF00
1FFF00
00F000
03C000
078000
0F0000
0E0000
1C0000
180000
180000
180000
180000
1E0000
0FFC00
1FFC00
3E0000
700000
E00000
C00000
C00000
C00000
C00000
C00000
600000
780000
1FFC00
07FF00
000380
000180
0001C0
0001C0
000080
ENDCHAR
STARTCHAR omicron
ENCODING 959
SWIDTH 870 0
DWIDTH 34 0
BBX 19 18 2 0
BITMAP
03F800
0FFE00
1E0F00
380380
7001C0
6000C0
E000E0
C00060
C00060
C00060
C00060
E000E0
6000C0
7001C0
380380
1E0F00
0FFE00
03F800
ENDCHAR
STARTCHAR pi
ENCODING 960
SWIDTH 870 0
DWIDTH 35 0
BBX 21 18 1 0
BITMAP
FFFFF8
FFFFF8
060180
060180
060180
060180
060180
060180
060180
060180
060180
060180
060180
060180
060180
060180
0601F8
0601F8
ENDCHAR
STARTCHAR rho
ENCODING 961
SWIDTH 870 0
DWIDTH 34 0
BBX 18 27 2 -9
BITMAP
03F000
0FFC00
1E0E00
380700
700380
600180
C000C0
C000C0
C000C0
C000C0
C000C0
C001C0
E00180
F00380
F80780
DC1F00
CFFE00
C3F000
C00000
C00000
C00000
C00000
C00000
C00000
C00000
C00000
C00000
ENDCHAR
STARTCHAR sigma1
ENCODING 962
SWIDTH 870 0
DWIDTH 35 0
BBX 18 24 3 -5
BITMAP
03F000
0FFE00
1C0F00
380780
700380
600180
E00180
C00180
C00000
C00000
C00000
C00000
C00000
600000
700000
300000
3C0000
0FFC00
03FF00
000380
000180
0001C0
0001C0
000080
ENDCHAR
STARTCHAR sigma
ENCODING 963
SWIDTH 870 0
DWIDTH 34 0
BBX 21 18 1 0
BITMAP
03FFF0
0FFFF8
1E0F00
380380
7001C0
6000C0
E000E0
C00060
C00060
C00060
C00060
E000E0
6000C0
7001C0
380380
1E0F00
0FFE00
03F800
ENDCHAR
STARTCHAR tau
ENCODING 964
SWIDTH 870 0
DWIDTH 35 0
BBX 16 18 4 0
BITMAP
FFFF
FFFF
0180
0180
0180
0180
0180
0180
0180
0180
0180
0180
0180
0180
0180
00E0
007F
001F
ENDCHAR
STARTCHAR upsilon
ENCODING 965
SWIDTH 870 0
DWIDTH 34 0
BBX 16 18 3 0
BITMAP
C006
C006
C006
C007
C003
C003
C003
C003
C003
C003
C003
C007
C006
C00C
601C
7878
3FE0
0FC0
ENDCHAR
ENDFONT
